{
.appVersion = "3133";
.formatVersion = 3;
.storedFormatVersion = 1;
DisplayStrings = (
"){"
);
axes = (
{
name = Weight;
tag = wght;
},
{
name = Width;
tag = wdth;
},
{
name = Custom;
tag = CUS1;
}
);
classes = (
{
code = "zero.hex one.hex two.hex three.hex four.hex five.hex six.hex seven.hex eight.hex nine.hex a.hex b.hex c.hex d.hex e.hex f.hex A.hex B.hex C.hex D.hex E.hex F.hex ";
name = hex_digit_decorated;
},
{
code = "zero one two three four five six seven eight nine a b c d e f A B C D E F";
name = hex_digit;
}
);
customParameters = (
{
name = isFixedPitch;
value = 1;
}
);
date = "2016-05-30 09:02:42 +0000";
familyName = mononoki;
featurePrefixes = (
{
code = "languagesystem DFLT dflt;
languagesystem latn dflt;
languagesystem latn CAT;
";
disabled = 1;
name = Languagesystems;
}
);
features = (
{
code = "";
tag = aalt;
},
{
automatic = 1;
code = "lookup locl_latn_0 {
	script latn;
	language CAT;
	sub  l' periodcentered' l by ldot;
	sub  L' periodcentered' L by Ldot;
} locl_latn_0;
";
tag = locl;
},
{
automatic = 1;
code = "sub zero by zeroinferior;
sub one by oneinferior;
sub two by twoinferior;
sub three by threeinferior;
sub four by fourinferior;
sub five by fiveinferior;
sub six by sixinferior;
sub seven by seveninferior;
sub eight by eightinferior;
sub nine by nineinferior;
sub parenleft by parenleftinferior;
sub parenright by parenrightinferior;
sub equal by equalinferior;
sub minus by minusinferior;
sub plus by plusinferior;
";
tag = subs;
},
{
automatic = 1;
code = "sub zero by zeroinferior;
sub one by oneinferior;
sub two by twoinferior;
sub three by threeinferior;
sub four by fourinferior;
sub five by fiveinferior;
sub six by sixinferior;
sub seven by seveninferior;
sub eight by eightinferior;
sub nine by nineinferior;
sub parenleft by parenleftinferior;
sub parenright by parenrightinferior;
sub equal by equalinferior;
sub minus by minusinferior;
sub plus by plusinferior;
";
tag = sinf;
},
{
automatic = 1;
code = "sub zero by zerosuperior;

glyphs = (
{
glyphname = A;
lastChange = "2019-03-25 21:22:10 +0000";
layers = (
{
anchors = (
{
name = ogonek;
pos = (517,10);
},
{
name = top;
pos = (288,700);
}
);
hints = (
{
horizontal = 1;
origin = (0,3);
target = (1,3);
type = TTShift;
},
{
horizontal = 1;
origin = (0,20);
type = TTSnap;
},
{
horizontal = 1;
origin = (0,11);
type = TTSnap;
},
{
horizontal = 1;
origin = (0,6);
target = (1,0);
type = TTDiagonal;
},
{
horizontal = 1;
origin = (0,0);
target = (1,6);
type = TTDiagonal;
},
{
horizontal = 1;
origin = (0,15);
target = (1,8);
type = TTShift;
},
{
horizontal = 1;
origin = (0,10);
target = up;
type = BottomGhost;
},
{
horizontal = 1;
origin = (0,15);
target = (1,8);
type = Stem;
},
{
horizontal = 1;
origin = (0,3);
target = (1,3);
type = Stem;
}
);
layerId = "A14B1AE3-86D5-4EA7-AE2F-7B4FA04DAB2E";
shapes = (
{
closed = 1;
nodes = (
(410,621,ls),
(396,679,o),
(347,710,o),
(288,710,cs),
(229,710,o),
(180,679,o),
(165,621,cs),
(17,28,ls),
(13,11,o),
(21,0,o),
(39,0,cs),
(74,0,ls),
(89,0,o),
(98,7,o),
(102,22,cs),
(152,220,l),
(424,220,l),
(473,22,ls),
(477,7,o),
(486,0,o),
(501,0,cs),
(537,0,ls),
(554,0,o),
(562,11,o),
(558,28,cs)
);
},
{
closed = 1;
nodes = (
(249,607,ls),
(253,625,o),
(271,634,o),
(288,634,cs),
(305,634,o),
(323,625,o),
(327,607,cs),
(405,296,l),
(171,296,l)
);
}
);
width = 575;
},
{
anchors = (
{
name = ogonek;
pos = (517,10);
},
{
name = top;
pos = (288,700);
}
);
hints = (
{
horizontal = 1;
origin = (0,4);
target = (1,8);
type = TTStem;
},
{
horizontal = 1;
origin = (0,17);
target = (1,0);
type = TTStem;
},
{
horizontal = 1;
origin = (0,24);
target = up;
type = BottomGhost;
},
{
horizontal = 1;
origin = (0,4);
target = (1,8);
type = Stem;
},
{
horizontal = 1;
origin = (0,17);
target = (1,0);
type = Stem;
}
);
layerId = "FB732A47-0020-4E5B-B7FA-72B1D79E8828";
shapes = (
{
closed = 1;
nodes = (
(74,0,ls),
(94,0,o),
(108,11,o),
(112,30,c),
(160,220,l),
(416,220,l),
(463,30,ls),
(468,10,o),
(482,0,o),
(501,0,cs),
(537,0,ls),
(561,0,o),
(574,18,o),
(568,41,cs),
(420,633,ls),
(405,693,o),
(355,730,o),
(288,730,cs),
(222,730,o),
(171,693,o),
(155,634,cs),
(7,40,ls),
(2,17,o),
(15,0,o),
(39,0,cs)
);
},
{
closed = 1;
nodes = (
(259,615,l),
(261,626,o),
(273,634,o),
(288,634,cs),
(303,634,o),
(315,626,o),
(317,615,c),
(392,316,l),
(184,316,l)
);
}
);
width = 575;
},
{
anchors = (
{
name = ogonek;
pos = (518,5);
},
{
name = top;
pos = (288,700);
}
);
associatedMasterId = "FB732A47-0020-4E5B-B7FA-72B1D79E8828";
layerId = "E3E16BB1-FE4D-46B1-8609-3144CC288255";
name = "Bold Jan 23 14, 22:22";
shapes = (
{
closed = 1;
nodes = (
(396,679,o),
(352,710,o),
(288,710,cs),
(223,710,o),
(180,679,o),
(165,621,cs),
(17,28,ls),
(13,11,o),
(21,0,o),
(39,0,cs),
(159,0,ls),
(174,0,o),
(186,7,o),
(187,22,cs),
(249,607,ls),
(251,624,o),
(267,634,o),
(288,634,cs),
(309,634,o),
(325,624,o),
(327,607,cs),
(388,22,ls),
(390,7,o),
(401,0,o),
(416,0,cs),
(537,0,ls),
(554,0,o),
(563,11,o),
(558,28,cs),
(410,621,ls)
);
},
{
closed = 1;
nodes = (
(91,170,l),
(489,170,l),
(489,246,l),
(91,246,l)
);
}
);
width = 575;
},
{
associatedMasterId = "FB732A47-0020-4E5B-B7FA-72B1D79E8828";
layerId = "3ADB0BAF-ABAE-426A-9E2E-4239AD9C3170";
name = "Bold Aug 24 14, 22:46";
shapes = (
{
closed = 1;
nodes = (
(91,170,l),
(489,170,l),
(489,246,l),
(91,246,l)
);
},
{
closed = 1;
nodes = (
(396,679,o),
(352,710,o),
(288,710,cs),
(223,710,o),
(180,679,o),
(165,621,cs),
(17,28,ls),
(13,11,o),
(21,0,o),
(39,0,cs),
(124,0,ls),
(139,0,o),
(150,7,o),
(152,22,cs),
(249,607,ls),
(252,624,o),
(267,634,o),
(288,634,cs),
(309,634,o),
(324,624,o),
(327,607,cs),
(423,22,ls),
(426,7,o),
(436,0,o),
(451,0,cs),
(537,0,ls),
(554,0,o),
(563,11,o),
(558,28,cs),
(410,621,ls)
);
}
);
width = 575;
},
{
anchors = (
{
name = ogonek;
pos = (479,10);
},
{
name = top;
pos = (359,700);
}
);
hints = (
{
horizontal = 1;
origin = (0,10);
target = up;
type = BottomGhost;
},
{
horizontal = 1;
origin = (0,15);
target = (1,8);
type = Stem;
},
{
horizontal = 1;
origin = (0,3);
target = (1,3);
type = Stem;
}
);
layerId = "8A9476DE-11F4-4864-A7B4-14D9B7165FAE";
shapes = (
{
closed = 1;
nodes = (
(469,621,ls),
(464,679,o),
(414,710,o),
(355,710,cs),
(296,710,o),
(248,679,o),
(224,621,cs),
(-18,28,ls),
(-25,11,o),
(-19,0,o),
(-1,0,cs),
(34,0,ls),
(49,0,o),
(61,7,o),
(66,22,c),
(147,220,l),
(419,220,l),
(437,22,l),
(439,7,o),
(446,0,o),
(461,0,cs),
(497,0,ls),
(514,0,o),
(525,11,o),
(523,28,cs)
);
},
{
closed = 1;
nodes = (
(306,607,l),
(312,625,o),
(332,634,o),
(349,634,cs),
(366,634,o),
(382,625,o),
(384,607,cs),
(412,296,l),
(178,296,l)
);
}
);
width = 575;
},
{
anchors = (
{
name = bottom;
pos = (259,0);
},
{
name = ogonek;
pos = (499,10);
},
{
name = top;
pos = (323,700);
}
);
hints = (
{
horizontal = 1;
origin = (0,10);
target = up;
type = BottomGhost;
},
{
horizontal = 1;
origin = (0,15);
target = (1,8);
type = Stem;
},
{
horizontal = 1;
origin = (0,3);
target = (1,0);
type = Stem;
}
);
layerId = "C492240F-DFB2-48B7-8D1C-81E7E6E3599E";
shapes = (
{
closed = 1;
nodes = (
(479,633,ls),
(474,693,o),
(422,730,o),
(355,730,cs),
(289,730,o),
(240,693,o),
(214,634,cs),
(-28,40,l),
(-36,17,o),
(-26,0,o),
(-2,0,cs),
(33,0,ls),
(53,0,o),
(69,11,o),
(76,30,c),
(154,220,l),
(409,220,l),
(427,30,l),
(428,10,o),
(441,0,o),
(460,0,cs),
(496,0,ls),
(520,0,o),
(536,18,o),
(533,41,c)
);
},
{
closed = 1;
nodes = (
(315,615,l),
(319,626,o),
(332,634,o),
(347,634,cs),
(362,634,o),
(373,626,o),
(373,615,c),
(401,316,l),
(193,316,l)
);
}
);
width = 575;
},
{
anchors = (
{
name = ogonek;
pos = (517,10);
},
{
name = top;
pos = (288,700);
}
);
associatedMasterId = "FB732A47-0020-4E5B-B7FA-72B1D79E8828";
layerId = "234F1611-D2EF-4505-9A34-41693E77C462";
name = "Bold Feb 26 15, 17:46";
shapes = (
{
closed = 1;
nodes = (
(396,679,o),
(352,710,o),
(288,710,cs),
(223,710,o),
(180,679,o),
(165,621,cs),
(17,28,ls),
(13,11,o),
(21,0,o),
(39,0,cs),
(74,0,ls),
(89,0,o),
(99,7,o),
(102,22,cs),
(239,567,ls),
(242,578,o),
(251,584,o),
(260,584,cs),
(270,584,o),
(279,578,o),
(282,567,cs),
(418,22,ls),
(422,7,o),
(431,0,o),
(446,0,cs),
(537,0,ls),
(554,0,o),
(563,11,o),
(558,28,cs),
(410,621,ls)
);
},
{
closed = 1;
nodes = (
(131,220,l),
(459,220,l),
(459,296,l),
(131,296,l)
);
}
);
width = 575;
}
);
unicode = 65;
},
{
glyphname = AE;
lastChange = "2016-06-09 18:35:33 +0000";
layers = (
{
hints = (
{
horizontal = 1;
origin = (0,32);
target = (1,1);
type = Stem;
},
{
horizontal = 1;
origin = (0,28);
target = up;
type = BottomGhost;
},
{
horizontal = 1;
origin = (0,20);
target = (1,5);
type = Stem;
},
{
horizontal = 1;
origin = (0,1);
target = (0,10);
type = Stem;
},
{
horizontal = 1;
place = (0, 7699);
place = (0, 7699);
type = Stem;
},
{
horizontal = 1;
origin = (0,32);
target = (1,1);
type = TTStem;
},
{
horizontal = 1;
origin = (0,1);
target = (0,10);
type = TTStem;
},
{
horizontal = 1;
origin = (0,20);
target = (0,11);
type = TTStem;
},
{
horizontal = 1;
origin = (0,20);
target = (1,5);
type = TTStem;
},
{
place = (288, 8499);
place = (288, 8499);
type = Stem;
}
);
layerId = "A14B1AE3-86D5-4EA7-AE2F-7B4FA04DAB2E";
shapes = (
{
closed = 1;
nodes = (
(373,77,l),
(373,326,l),
(475,326,ls),
(491,326,o),
(500,335,o),
(500,351,cs),
(500,378,ls),
(500,394,o),
(491,403,o),
(475,403,cs),
(373,403,l),
(373,624,l),
(482,624,ls),
(498,624,o),
(507,632,o),
(507,649,cs),
(507,675,ls),
(507,692,o),
(498,700,o),
(482,700,cs),
(288,700,ls),
(223,700,o),
(180,679,o),
(165,621,cs),
(17,28,ls),
(13,11,o),
(21,0,o),
(39,0,cs),
(74,0,ls),
(89,0,o),
(99,7,o),
(102,22,c),
(139,170,l),
(288,170,l),
(288,25,ls),
(288,9,o),
(297,0,o),
(313,0,cs),
(493,0,ls),
(510,0,o),
(518,9,o),
(518,25,cs),
(518,52,ls),
(518,68,o),
(510,77,o),
(493,77,cs)
);
},
{
closed = 1;
nodes = (
(288,246,l),
(158,246,l),
(249,607,ls),
(253,624,o),
(267,634,o),
(288,634,c)
);
}
);
width = 575;
},
{
hints = (
{
horizontal = 1;
place = (0, 9699);
place = (0, 9699);
type = Stem;
},
{
horizontal = 1;
origin = (0,32);
target = (1,1);
type = TTStem;
},
{
horizontal = 1;
origin = (0,1);
target = (0,10);
type = TTStem;
},
{
horizontal = 1;
origin = (0,20);
target = (0,11);
type = TTStem;
}
);
layerId = "FB732A47-0020-4E5B-B7FA-72B1D79E8828";
shapes = (
{
closed = 1;
nodes = (
(383,97,l),
(383,326,l),
(475,326,l),
(496,326,o),
(510,340,o),
(510,361,c),
(510,388,l),
(510,409,o),
(496,423,o),
(475,423,c),
(383,423,l),
(383,624,l),
(482,624,l),
(504,624,o),
(517,637,o),
(517,659,c),
(517,685,l),
(517,707,o),
(504,720,o),
(482,720,c),
(288,720,l),
(214,720,o),
(170,692,o),
(155,634,c),
(7,40,l),
(2,17,o),
(15,0,o),
(39,0,c),
(74,0,l),
(94,0,o),
(108,11,o),
(112,30,c),
(147,170,l),
(278,170,l),
(278,35,l),
(278,14,o),
(292,0,o),
(313,0,c),
(493,0,l),
(515,0,o),
(528,13,o),
(528,35,c),
(528,62,l),
(528,84,o),
(515,97,o),
(493,97,c)
);
},
{
closed = 1;
nodes = (
(278,266,l),
(171,266,l),
(259,615,l),
(261,625,o),
(268,631,o),
(278,633,c)
);
}
);
width = 575;
},
{
layerId = "8A9476DE-11F4-4864-A7B4-14D9B7165FAE";
shapes = (
{
closed = 1;
nodes = (
(346,77,l),
(385,326,l),
(487,326,ls),
(503,326,o),
(513,335,o),
(516,351,cs),
(520,378,ls),
(523,394,o),
(515,403,o),
(499,403,cs),
(397,403,l),
(432,624,l),
(541,624,ls),
(557,624,o),
(568,632,o),
(570,649,cs),
(574,675,ls),
(577,692,o),
(569,700,o),
(553,700,cs),
(359,700,ls),
(294,700,o),
(248,679,o),
(224,621,cs),
(-18,28,ls),
(-25,11,o),
(-19,0,o),
(-1,0,cs),
(34,0,ls),
(49,0,o),
(61,7,o),
(66,22,c),
(126,170,l),
(275,170,l),
(252,25,ls),
(250,9,o),
(257,0,o),
(273,0,cs),
(453,0,ls),
(470,0,o),
(480,9,o),
(482,25,cs),
(487,52,ls),
(489,68,o),
(483,77,o),
(466,77,cs)
);
},
{
closed = 1;
nodes = (
(287,246,l),
(157,246,l),
(306,607,ls),
(312,624,o),
(328,634,o),
(349,634,c)
);
}
);
width = 575;
},
{
layerId = "C492240F-DFB2-48B7-8D1C-81E7E6E3599E";
shapes = (
{
closed = 1;
nodes = (
(357,97,l),
(393,326,l),
(485,326,l),
(506,326,o),
(523,340,o),
(526,361,c),
(530,388,l),
(534,409,o),
(522,423,o),
(501,423,c),
(409,423,l),
(441,624,l),
(540,624,l),
(562,624,o),
(577,637,o),
(580,659,c),
(584,685,l),
(588,707,o),
(577,720,o),
(555,720,c),
(361,720,l),
(287,720,o),
(238,692,o),
(214,634,c),
(-28,40,l),
(-36,17,o),
(-26,0,o),
(-2,0,c),
(33,0,l),
(53,0,o),
(69,11,o),
(76,30,c),
(133,170,l),
(264,170,l),
(242,35,l),
(239,14,o),
(251,0,o),
(272,0,c),
(452,0,l),
(474,0,o),
(489,13,o),
(492,35,c),
(497,62,l),
(500,84,o),
(489,97,o),
(467,97,c)
);
},
{
closed = 1;
nodes = (
(279,266,l),
(172,266,l),
(315,615,l),
(319,625,o),
(327,631,o),
(337,633,c)
);
}
);
width = 575;
}
);
unicode = 198;
},
{
glyphname = B;
lastChange = "2016-06-09 18:35:33 +0000";
layers = (
{
hints = (
{
horizontal = 1;
place = (0, 7699);
place = (0, 7699);
type = Stem;
},
{
horizontal = 1;
origin = (2,1);
target = (1,8);
type = TTStem;
},
{
horizontal = 1;
origin = (0,17);
target = (0,24);
type = TTStem;
}
);
layerId = "A14B1AE3-86D5-4EA7-AE2F-7B4FA04DAB2E";
shapes = (
{
closed = 1;
nodes = (
(102,25,ls),
(102,9,o),
(111,0,o),
(127,0,cs),
(264,0,ls),
(424,0,o),
(513,96,o),
(513,196,cs),
(513,271,o),
(463,341,o),
(382,370,c),
(430,395,o),
(473,453,o),
(473,521,cs),
(473,606,o),
(406,700,o),
(244,700,cs),
(64,700,ls),
(47,700,o),
(39,691,o),
(39,675,cs),
(39,649,ls),
(39,633,o),
(47,624,o),
(64,624,cs),
(102,624,l)
);
},
{
closed = 1;
nodes = (
(187,624,l),
(244,624,ls),
(354,624,o),
(398,564,o),
(398,511,cs),
(398,452,o),
(344,403,o),
(244,403,cs),
(187,403,l)
);
},
{
closed = 1;
nodes = (
(187,77,l),
(187,326,l),
(264,326,ls),
(380,326,o),
(437,263,o),
(437,201,cs),
(437,139,o),
(380,77,o),
(264,77,cs)
);
}
);
width = 575;
},
{
hints = (
{
horizontal = 1;
place = (0, 9699);
place = (0, 9699);
type = Stem;
},
{
horizontal = 1;
origin = (2,1);
target = (1,8);
type = TTStem;
},
{
horizontal = 1;
origin = (0,17);
target = (0,24);
type = TTStem;
}
);
layerId = "FB732A47-0020-4E5B-B7FA-72B1D79E8828";
shapes = (
{
closed = 1;
nodes = (
(92,35,ls),
(92,14,o),
(106,0,o),
(127,0,cs),
(264,0,ls),
(414,0,o),
(523,88,o),
(523,206,cs),
(523,281,o),
(477,348,o),
(394,382,c),
(452,415,o),
(483,473,o),
(483,531,cs),
(483,643,o),
(386,720,o),
(244,720,cs),
(64,720,ls),
(42,720,o),
(29,707,o),
(29,685,cs),
(29,659,ls),
(29,637,o),
(42,624,o),
(64,624,cs),
(92,624,l)
);
},
{
closed = 1;
nodes = (
(197,624,l),
(244,624,ls),
(331,624,o),
(388,582,o),
(388,521,cs),
(388,462,o),
(331,423,o),
(244,423,cs),
(197,423,l)
);
},
{
closed = 1;
nodes = (
(197,97,l),
(197,326,l),
(264,326,ls),
(360,326,o),
(427,278,o),
(427,211,cs),
(427,144,o),
(360,97,o),
(264,97,cs)
);
}
);
width = 575;
},
{
layerId = "8A9476DE-11F4-4864-A7B4-14D9B7165FAE";
shapes = (
{
closed = 1;
nodes = (
(66,25,l),
(64,9,o),
(71,0,o),
(87,0,cs),
(224,0,ls),
(382,0,o),
(507,75,o),
(507,213,cs),
(507,289,o),
(469,346,o),
(401,370,c),
(473,404,o),
(519,476,o),
(519,553,cs),
(519,658,o),
(435,700,o),
(315,700,cs),
(135,700,l),
(118,700,o),
(109,691,o),
(106,675,cs),
(102,649,ls),
(100,633,o),
(106,624,o),
(123,624,cs),
(161,624,l)
);
},
{
closed = 1;
nodes = (
(246,624,l),
(303,624,ls),
(394,624,o),
(442,591,o),
(442,527,cs),
(442,448,o),
(370,403,o),
(268,403,cs),
(211,403,l)
);
},
{
closed = 1;
nodes = (
(160,77,l),
(199,326,l),
(276,326,ls),
(362,326,o),
(431,299,o),
(431,215,cs),
(431,121,o),
(348,77,o),
(237,77,cs)
);
}
);
width = 575;
},
{
layerId = "C492240F-DFB2-48B7-8D1C-81E7E6E3599E";
shapes = (
{
closed = 1;
nodes = (
(58,35,l),
(55,15,o),
(67,0,o),
(87,0,c),
(224,0,l),
(386,0,o),
(518,81,o),
(518,223,cs),
(518,297,o),
(482,354,o),
(405,382,c),
(484,416,o),
(531,482,o),
(531,563,cs),
(531,675,o),
(440,720,o),
(318,720,c),
(138,720,l),
(117,720,o),
(101,705,o),
(98,685,c),
(94,659,l),
(91,639,o),
(102,624,o),
(123,624,c),
(151,624,l)
);
},
{
closed = 1;
nodes = (
(256,624,l),
(313,624,l),
(399,624,o),
(432,594,o),
(432,539,cs),
(432,461,o),
(365,423,o),
(271,423,c),
(224,423,l)
);
},
{
closed = 1;
nodes = (
(173,97,l),
(209,326,l),
(276,326,l),
(358,326,o),
(422,300,o),
(422,223,cs),
(422,137,o),
(344,97,o),
(240,97,c)
);
}
);
width = 575;
},
{
associatedMasterId = "FB732A47-0020-4E5B-B7FA-72B1D79E8828";
layerId = "DFD46035-AB43-4705-B5B2-3F5ACE543FFD";
name = "Bold Mar 1 15, 13:25";
shapes = (
{
closed = 1;
nodes = (
(102,25,l),
(102,9,o),
(111,0,o),
(127,0,cs),
(264,0,ls),
(403,0,o),
(513,53,o),
(513,192,cs),
(514,271,o),
(464,342,o),
(382,370,c),
(430,395,o),
(473,447,o),
(473,521,cs),
(473,649,o),
(376,700,o),
(244,700,cs),
(64,700,l),
(47,700,o),
(39,691,o),
(39,675,cs),
(39,649,ls),
(39,633,o),
(47,624,o),
(64,624,cs),
(102,624,l)
);
},
{
closed = 1;
nodes = (
(237,624,l),
(244,624,ls),
(313,624,o),
(348,591,o),
(348,513,cs),
(348,440,o),
(318,403,o),
(244,403,cs),
(237,403,l)
);
},
{
closed = 1;
nodes = (
(237,77,l),
(237,326,l),
(264,326,ls),
(340,326,o),
(387,277,o),
(387,197,cs),
(387,117,o),
(345,77,o),
(264,77,cs)
);
}
);
width = 575;
}
);
unicode = 66;
},
{
glyphname = C;
lastChange = "2016-06-09 18:35:33 +0000";
layers = (
{
anchors = (
{
name = bottom;
pos = (328,0);
},
{
name = top;
pos = (288,700);
}
);
background = {
anchors = (
{
name = top;
pos = (288,700);
}
);
shapes = (
{
closed = 1;
nodes = (
(85,243,ls),
(85,99,o),
(144,-10,o),
(288,-10,cs),
(429,-10,o),
(490,97,o),
(490,243,cs),
(490,457,ls),
(490,602,o),
(431,710,o),
(288,710,cs),
(146,710,o),
(85,604,o),
(85,457,cs)
);
},
{
closed = 1;
nodes = (
(405,243,ls),
(405,151,o),
(380,67,o),
(288,67,cs),
(196,67,o),
(170,151,o),
(170,243,cs),
(170,457,ls),
(170,549,o),
(196,634,o),
(288,634,cs),
(380,634,o),
(405,549,o),
(405,457,cs)
);
}
);
};
hints = (
{
horizontal = 1;
origin = (0,25);
target = (0,12);
type = Stem;
},
{
horizontal = 1;
origin = (0,32);
target = (0,5);
type = Stem;
},
{
origin = (0,29);
target = (0,8);
type = Stem;
},
{
horizontal = 1;
origin = (0,25);
target = (0,12);
type = TTStem;
},
{
horizontal = 1;
origin = (0,32);
target = (0,5);
type = TTStem;
}
);
layerId = "A14B1AE3-86D5-4EA7-AE2F-7B4FA04DAB2E";
shapes = (
{
closed = 1;
nodes = (
(475,92,o),
(464,97,o),
(449,91,cs),
(405,75,o),
(369,68,o),
(338,68,cs),
(259,68,o),
(171,114,o),
(171,310,cs),
(171,390,ls),
(171,586,o),
(259,632,o),
(338,632,cs),
(369,632,o),
(405,625,o),
(449,609,cs),
(464,603,o),
(475,608,o),
(481,623,cs),
(491,647,ls),
(497,662,o),
(493,674,o),
(478,680,cs),
(431,700,o),
(385,710,o),
(340,710,cs),
(222,710,o),
(85,640,o),
(85,390,cs),
(85,310,ls),
(85,60,o),
(222,-10,o),
(340,-10,cs),
(385,-10,o),
(431,0,o),
(478,20,cs),
(493,26,o),
(497,38,o),
(491,53,cs),
(481,77,ls)
);
}
);
width = 575;
},
{
anchors = (
{
name = bottom;
pos = (288,0);
},
{
name = top;
pos = (338,700);
}
);
hints = (
{
horizontal = 1;
origin = (0,32);
target = (0,5);
type = TTStem;
},
{
horizontal = 1;
origin = (0,25);
target = (0,12);
type = TTStem;
}
);
layerId = "FB732A47-0020-4E5B-B7FA-72B1D79E8828";
shapes = (
{
closed = 1;
nodes = (
(482,101,o),
(465,108,o),
(445,100,cs),
(404,85,o),
(369,78,o),
(338,78,cs),
(235,78,o),
(181,158,o),
(181,310,cs),
(181,400,ls),
(181,552,o),
(235,632,o),
(338,632,cs),
(369,632,o),
(404,625,o),
(446,610,cs),
(465,602,o),
(482,609,o),
(490,629,cs),
(500,653,ls),
(508,674,o),
(501,691,o),
(482,699,cs),
(434,720,o),
(387,730,o),
(340,730,cs),
(174,730,o),
(75,608,o),
(75,400,cs),
(75,310,ls),
(75,102,o),
(174,-20,o),
(340,-20,cs),
(387,-20,o),
(434,-10,o),
(482,11,cs),
(501,19,o),
(508,36,o),
(500,57,cs),
(490,81,ls)
);
}
);
width = 575;
},
{
anchors = (
{
name = bottom;
pos = (248,0);
},
{
name = top;
pos = (359,700);
}
);
layerId = "8A9476DE-11F4-4864-A7B4-14D9B7165FAE";
shapes = (
{
closed = 1;
nodes = (
(448,82,o),
(438,87,o),
(422,81,cs),
(376,65,o),
(339,58,o),
(308,58,cs),
(241,58,o),
(172,91,o),
(172,217,cs),
(172,253,o),
(176,286,o),
(193,390,cs),
(224,586,o),
(320,632,o),
(399,632,cs),
(430,632,o),
(464,625,o),
(506,609,cs),
(520,603,o),
(532,608,o),
(540,623,cs),
(554,647,ls),
(562,662,o),
(560,674,o),
(546,680,cs),
(502,700,o),
(458,710,o),
(413,710,cs),
(295,710,o),
(147,640,o),
(107,390,cs),
(90,280,o),
(85,246,o),
(85,207,cs),
(85,33,o),
(194,-20,o),
(297,-20,cs),
(342,-20,o),
(390,-10,o),
(440,10,cs),
(456,16,o),
(462,28,o),
(458,43,cs),
(452,67,ls)
);
}
);
width = 575;
},
{
anchors = (
{
name = bottom;
pos = (247,0);
},
{
name = top;
pos = (361,720);
}
);
layerId = "C492240F-DFB2-48B7-8D1C-81E7E6E3599E";
shapes = (
{
closed = 1;
nodes = (
(457,101,o),
(441,108,o),
(420,100,cs),
(376,85,o),
(340,78,o),
(309,78,cs),
(225,78,o),
(182,131,o),
(182,228,cs),
(182,258,o),
(185,282,o),
(203,400,cs),
(227,552,o),
(294,632,o),
(397,632,cs),
(428,632,o),
(462,625,o),
(501,610,cs),
(519,602,o),
(537,609,o),
(548,629,cs),
(562,653,ls),
(574,674,o),
(569,691,o),
(552,699,cs),
(507,720,o),
(461,730,o),
(414,730,cs),
(248,730,o),
(130,608,o),
(97,400,cs),
(81,296,o),
(76,258,o),
(76,219,cs),
(76,68,o),
(155,-20,o),
(296,-20,cs),
(343,-20,o),
(391,-10,o),
(443,11,cs),
(463,19,o),
(473,36,o),
(468,57,cs),
(462,81,ls)
);
}
);
width = 575;
},
{
anchors = (
{
name = bottom;
pos = (288,0);
},
{
name = top;
pos = (288,700);
}
);
associatedMasterId = "A14B1AE3-86D5-4EA7-AE2F-7B4FA04DAB2E";
layerId = "EAB1E37A-6AC8-4E6F-8F3C-2E37E6FC87D7";
name = "Regular Jan 11 15, 19:10";
shapes = (
{
closed = 1;
nodes = (
(519,668,ls),
(522,684,o),
(516,694,o),
(499,697,cs),
(438,708,o),
(384,710,o),
(351,710,cs),
(99,710,o),
(85,524,o),
(85,370,cs),
(85,330,ls),
(85,178,o),
(99,-10,o),
(351,-10,cs),
(382,-10,o),
(435,-9,o),
(499,3,cs),
(516,6,o),
(522,17,o),
(519,33,cs),
(513,59,ls),
(509,75,o),
(499,81,o),
(483,78,cs),
(428,69,o),
(379,67,o),
(351,67,cs),
(214,67,o),
(170,130,o),
(170,330,cs),
(170,371,ls),
(170,520,o),
(179,634,o),
(351,634,cs),
(376,634,o),
(426,632,o),
(483,622,cs),
(499,619,o),
(509,626,o),
(513,641,cs)
);
}
);
width = 575;
}
);
unicode = 67;
},
{
glyphname = D;
lastChange = "2016-06-09 18:46:00 +0000";
layers = (
{
anchors = (
{
name = center;
pos = (288,350);
},
{
name = top;
pos = (288,700);
}
);
hints = (
{
horizontal = 1;
place = (0, 7699);
place = (0, 7699);
type = Stem;
},
{
horizontal = 1;
origin = (0,0);
target = (1,4);
type = TTStem;
}
);
layerId = "A14B1AE3-86D5-4EA7-AE2F-7B4FA04DAB2E";
shapes = (
{
closed = 1;
nodes = (
(64,700,ls),
(47,700,o),
(39,691,o),
(39,675,cs),
(39,649,ls),
(39,633,o),
(47,624,o),
(64,624,cs),
(102,624,l),
(102,25,ls),
(102,9,o),
(111,0,o),
(127,0,cs),
(183,0,ls),
(434,0,o),
(517,102,o),
(517,330,cs),
(517,370,ls),
(517,631,o),
(393,700,o),
(144,700,cs)
);
},
{
closed = 1;
nodes = (
(432,330,ls),
(432,147,o),
(360,77,o),
(187,77,c),
(187,623,l),
(367,623,o),
(432,536,o),
(432,370,cs)
);
}
);
width = 575;
},
{
anchors = (
{
name = center;
pos = (288,350);
},
{
name = top;
pos = (288,700);
}
);
hints = (
{
horizontal = 1;
place = (0, 9699);
place = (0, 9699);
type = Stem;
},
{
horizontal = 1;
origin = (0,0);
target = (0,7);
type = TTStem;
}
);
layerId = "FB732A47-0020-4E5B-B7FA-72B1D79E8828";
shapes = (
{
closed = 1;
nodes = (
(64,720,l),
(43,720,o),
(29,705,o),
(29,685,c),
(29,659,l),
(29,639,o),
(43,624,o),
(64,624,c),
(92,624,l),
(92,35,l),
(92,15,o),
(107,0,o),
(127,0,c),
(183,0,l),
(439,0,o),
(527,108,o),
(527,330,c),
(527,390,l),
(527,647,o),
(396,720,o),
(144,720,c)
);
},
{
closed = 1;
nodes = (
(422,330,l),
(422,167,o),
(357,100,o),
(197,97,c),
(197,623,l),
(362,615,o),
(422,537,o),
(422,390,c)
);
}
);
width = 575;
},
{
layerId = "8A9476DE-11F4-4864-A7B4-14D9B7165FAE";
shapes = (
{
closed = 1;
nodes = (
(133,700,ls),
(118,700,o),
(108,692,o),
(106,677,cs),
(102,651,ls),
(99,634,o),
(108,624,o),
(125,624,cs),
(161,624,l),
(66,27,ls),
(63,10,o),
(72,0,o),
(89,0,cs),
(143,0,ls),
(394,0,o),
(494,102,o),
(528,320,cs),
(542,405,o),
(546,433,o),
(546,473,cs),
(546,648,o),
(402,700,o),
(185,700,cs)
);
},
{
closed = 1;
nodes = (
(415,145,o),
(345,80,o),
(160,76,c),
(247,622,l),
(405,614,o),
(461,570,o),
(461,473,cs),
(461,441,o),
(459,420,o),
(444,332,cs)
);
}
);
width = 575;
},
{
layerId = "C492240F-DFB2-48B7-8D1C-81E7E6E3599E";
shapes = (
{
closed = 1;
nodes = (
(133,720,ls),
(112.621,720,o),
(98.725,708.1,o),
(96.088,688.322,cs),
(92.116,662.521,ls),
(88.089,639.716,o),
(101.43,624,o),
(125,624,cs),
(149.283,624,l),
(56.124,38.572,ls),
(52.089,15.716,o),
(65.43,0,o),
(89,0,cs),
(143,0,ls),
(387.627,0,o),
(501.408,94.605,o),
(537.881,328.459,cs),
(551.884,413.48,o),
(556,442.289,o),
(556,483,cs),
(556,645.878,o),
(438.179,720,o),
(185,720,cs)
);
},
{
closed = 1;
nodes = (
(406.344,164.44,o),
(341.709,102.667,o),
(171.775,96.349,c),
(255.456,621.515,l),
(398.026,612.889,o),
(451,574.553,o),
(451,483,cs),
(451,451.475,o),
(449.08,431.316,o),
(434.142,343.68,cs)
);
}
);
width = 575;
}
);
unicode = 68;
},
{
glyphname = Eth;
lastChange = "2016-06-09 18:35:33 +0000";
layers = (
{
anchors = (
{
name = center;
pos = (288,350);
},
{
name = top;
pos = (288,700);
}
);
hints = (
{
horizontal = 1;
origin = (1,4);
target = (1,11);
type = TTShift;
},
{
horizontal = 1;
origin = (0,17);
target = (0,10);
type = TTShift;
},
{
horizontal = 1;
place = (0, 7699);
place = (0, 7699);
type = Stem;
},
{
horizontal = 1;
origin = (0,0);
target = (1,13);
type = TTStem;
}
);
layerId = "A14B1AE3-86D5-4EA7-AE2F-7B4FA04DAB2E";
shapes = (
{
closed = 1;
nodes = (
(64,700,ls),
(47,700,o),
(39,691,o),
(39,675,cs),
(39,649,ls),
(39,633,o),
(47,624,o),
(64,624,cs),
(102,624,l),
(102,389,l),
(67,389,ls),
(51,389,o),
(42,380,o),
(42,363,cs),
(42,337,ls),
(42,321,o),
(51,312,o),
(67,312,cs),
(102,312,l),
(102,25,ls),
(102,9,o),
(111,0,o),
(127,0,cs),
(183,0,ls),
(434,0,o),
(517,102,o),
(517,330,cs),
(517,370,ls),
(517,631,o),
(393,700,o),
(144,700,cs)
);
},
{
closed = 1;
nodes = (
(432,147,o),
(360,77,o),
(187,77,c),
(187,312,l),
(290,312,ls),
(306,312,o),
(315,321,o),
(315,337,cs),
(315,364,ls),
(315,380,o),
(306,389,o),
(290,389,cs),
(187,389,l),
(187,623,l),
(367,618,o),
(432,536,o),
(432,370,cs),
(432,330,ls)
);
}
);
width = 575;
},
{
layerId = "FB732A47-0020-4E5B-B7FA-72B1D79E8828";
shapes = (
{
closed = 1;
nodes = (
(42,337,ls),
(42,321,o),
(51,312,o),
(67,312,cs),
(290,312,ls),
(306,312,o),
(315,321,o),
(315,337,cs),
(315,364,ls),
(315,380,o),
(306,389,o),
(290,389,cs),
(67,389,ls),
(51,389,o),
(42,380,o),
(42,363,cs)
);
},
{
ref = D;
}
);
width = 575;
},
{
layerId = "8A9476DE-11F4-4864-A7B4-14D9B7165FAE";
shapes = (
{
closed = 1;
nodes = (
(36,337,ls),
(33,321,o),
(41,312,o),
(57,312,cs),
(280,312,ls),
(296,312,o),
(306,321,o),
(309,337,cs),
(313,364,ls),
(316,380,o),
(308,389,o),
(292,389,cs),
(69,389,ls),
(53,389,o),
(43,380,o),
(40,363,cs)
);
},
{
pos = (-10,0);
ref = D;
}
);
width = 575;
},
{
layerId = "C492240F-DFB2-48B7-8D1C-81E7E6E3599E";
shapes = (
{
closed = 1;
nodes = (
(36,337,ls),
(33,321,o),
(41,312,o),
(57,312,cs),
(280,312,ls),
(296,312,o),
(306,321,o),
(309,337,cs),
(313,364,ls),
(316,380,o),
(308,389,o),
(292,389,cs),
(69,389,ls),
(53,389,o),
(43,380,o),
(40,363,cs)
);
},
{
pos = (-10,0);
ref = D;
}
);
width = 575;
}
);
unicode = 208;
},
{
glyphname = E;
lastChange = "2019-03-25 21:31:47 +0000";
layers = (
{
anchors = (
{
name = bottom;
pos = (288,0);
},
{
name = ogonek;
pos = (518,1);
},
{
name = top;
pos = (288,700);
}
);
hints = (
{
horizontal = 1;
origin = (0,1);
target = (0,10);
type = TTStem;
},
{
horizontal = 1;
origin = (0,20);
target = (0,11);
type = TTStem;
},
{
horizontal = 1;
origin = (0,27);
target = (0,0);
type = Stem;
},
{
horizontal = 1;
origin = (0,1);
target = (0,10);
type = Stem;
},
{
horizontal = 1;
origin = (0,20);
target = (0,11);
type = Stem;
},
{
origin = (0,24);
target = (0,0);
type = Stem;
}
);
layerId = "A14B1AE3-86D5-4EA7-AE2F-7B4FA04DAB2E";
shapes = (
{
closed = 1;
nodes = (
(170,77,l),
(170,326,l),
(448,326,ls),
(464,326,o),
(473,335,o),
(473,351,cs),
(473,378,ls),
(473,394,o),
(464,403,o),
(448,403,cs),
(170,403,l),
(170,624,l),
(469,624,ls),
(485,624,o),
(494,632,o),
(494,649,cs),
(494,675,ls),
(494,692,o),
(485,700,o),
(469,700,cs),
(110,700,ls),
(94,700,o),
(85,691,o),
(85,675,cs),
(85,25,ls),
(85,9,o),
(94,0,o),
(110,0,cs),
(491,0,ls),
(507,0,o),
(516,9,o),
(516,25,cs),
(516,52,ls),
(516,68,o),
(507,77,o),
(491,77,cs)
);
}
);
width = 575;
},
{
anchors = (
{
name = bottom;
pos = (288,0);
},
{
name = ogonek;
pos = (518,5);
},
{
name = top;
pos = (288,700);
}
);
hints = (
{
horizontal = 1;
origin = (0,1);
target = (0,10);
type = TTStem;
},
{
horizontal = 1;
origin = (0,20);
target = (0,11);
type = TTStem;
},
{
horizontal = 1;
origin = (0,27);
target = (0,0);
type = Stem;
},
{
horizontal = 1;
origin = (0,1);
target = (0,10);
type = Stem;
},
{
horizontal = 1;
origin = (0,20);
target = (0,11);
type = Stem;
},
{
origin = (0,24);
target = (0,0);
type = Stem;
}
);
layerId = "FB732A47-0020-4E5B-B7FA-72B1D79E8828";
shapes = (
{
closed = 1;
nodes = (
(180,97,l),
(180,326,l),
(448,326,l),
(468.142,326,o),
(483,340.858,o),
(483,361,c),
(483,388,l),
(483,408.142,o),
(468.142,423,o),
(448,423,c),
(180,423,l),
(180,624,l),
(469,624,l),
(488.802,624,o),
(504,637.509,o),
(504,659,c),
(504,685,l),
(504,706.491,o),
(488.802,720,o),
(469,720,c),
(110,720,l),
(89.858,720,o),
(75,705.142,o),
(75,685,c),
(75,35,l),
(75,14.858,o),
(89.858,0,o),
(110,0,c),
(491,0,l),
(511.142,0,o),
(526,14.858,o),
(526,35,c),
(526,62,l),
(526,82.142,o),
(511.142,97,o),
(491,97,c)
);
}
);
width = 575;
},
{
anchors = (
{
name = bottom;
pos = (288,0);
},
{
name = ogonek;
pos = (518,5);
},
{
name = top;
pos = (288,700);
}
);
associatedMasterId = "FB732A47-0020-4E5B-B7FA-72B1D79E8828";
layerId = "FA838C2B-CCD9-4E2D-9956-7C9A2EC469FC";
name = "Bold Jan 23 14, 22:24";
shapes = (
{
closed = 1;
nodes = (
(255,77,l),
(255,326,l),
(448,326,ls),
(464,326,o),
(473,335,o),
(473,351,cs),
(473,378,ls),
(473,394,o),
(464,403,o),
(448,403,cs),
(255,403,l),
(255,624,l),
(469,624,ls),
(485,624,o),
(494,632,o),
(494,649,cs),
(494,675,ls),
(494,692,o),
(485,700,o),
(469,700,cs),
(110,700,ls),
(94,700,o),
(85,691,o),
(85,675,cs),
(85,25,ls),
(85,9,o),
(94,0,o),
(110,0,cs),
(491,0,ls),
(507,0,o),
(516,9,o),
(516,25,cs),
(516,52,ls),
(516,68,o),
(507,77,o),
(491,77,cs)
);
}
);
width = 575;
},
{
hints = (
{
horizontal = 1;
origin = (0,27);
target = (0,0);
type = Stem;
},
{
horizontal = 1;
origin = (0,1);
target = (0,10);
type = Stem;
},
{
horizontal = 1;
origin = (0,20);
target = (0,11);
type = Stem;
}
);
layerId = "8A9476DE-11F4-4864-A7B4-14D9B7165FAE";
shapes = (
{
closed = 1;
nodes = (
(143,77,l),
(182,326,l),
(460,326,ls),
(476,326,o),
(486,335,o),
(489,351,cs),
(493,378,ls),
(496,394,o),
(488,403,o),
(472,403,cs),
(194,403,l),
(229,624,l),
(528,624,ls),
(544,624,o),
(555,632,o),
(557,649,cs),
(561,675,ls),
(564,692,o),
(556,700,o),
(540,700,cs),
(181,700,ls),
(165,700,o),
(155,691,o),
(152,675,cs),
(49,25,ls),
(47,9,o),
(54,0,o),
(70,0,cs),
(451,0,ls),
(467,0,o),
(478,9,o),
(480,25,cs),
(485,52,ls),
(487,68,o),
(480,77,o),
(464,77,cs)
);
}
);
width = 575;
},
{
hints = (
{
horizontal = 1;
origin = (0,27);
target = (0,0);
type = Stem;
},
{
horizontal = 1;
origin = (0,1);
target = (0,10);
type = Stem;
},
{
horizontal = 1;
origin = (0,20);
target = (0,11);
type = Stem;
}
);
layerId = "C492240F-DFB2-48B7-8D1C-81E7E6E3599E";
shapes = (
{
closed = 1;
nodes = (
(156,97,l),
(192,326,l),
(460,326,l),
(480,326,o),
(497,341,o),
(501,361,c),
(505,388,l),
(508,408,o),
(496,423,o),
(475,423,c),
(207,423,l),
(239,624,l),
(528,624,l),
(548,624,o),
(565,638,o),
(569,659,c),
(573,685,l),
(576,706,o),
(563,720,o),
(543,720,c),
(184,720,l),
(164,720,o),
(147,705,o),
(144,685,c),
(41,35,l),
(38,15,o),
(50,0,o),
(70,0,c),
(451,0,l),
(472,0,o),
(489,15,o),
(492,35,c),
(496,62,l),
(499,82,o),
(487,97,o),
(467,97,c)
);
}
);
width = 575;
}
);
unicode = 69;
},
{
glyphname = F;
lastChange = "2016-06-09 18:35:33 +0000";
layers = (
{
hints = (
{
horizontal = 1;
place = (0, 0);
place = (0, 0);
type = Stem;
},
{
origin = (0,4);
target = (0,11);
type = Stem;
},
{
horizontal = 1;
origin = (0,12);
target = (0,21);
type = Stem;
},
{
horizontal = 1;
origin = (0,0);
target = (0,22);
type = Stem;
},
{
horizontal = 1;
place = (21.5, -21.5);
place = (21.5, -21.5);
type = Stem;
},
{
horizontal = 1;
origin = (0,12);
target = (0,21);
type = TTStem;
},
{
horizontal = 1;
origin = (0,0);
target = (0,22);
type = TTStem;
}
);
layerId = "A14B1AE3-86D5-4EA7-AE2F-7B4FA04DAB2E";
shapes = (
{
closed = 1;
nodes = (
(110,700,ls),
(94,700,o),
(85,691,o),
(85,675,cs),
(85,25,ls),
(85,9,o),
(94,0,o),
(110,0,cs),
(145,0,ls),
(162,0,o),
(170,9,o),
(170,25,cs),
(170,292,l),
(469,292,ls),
(485,292,o),
(494,300,o),
(494,316,cs),
(494,343,ls),
(494,359,o),
(485,368,o),
(469,368,cs),
(170,368,l),
(170,624,l),
(491,624,ls),
(507,624,o),
(516,632,o),
(516,649,cs),
(516,675,ls),
(516,692,o),
(507,700,o),
(491,700,cs)
);
}
);
width = 575;
},
{
hints = (
{
horizontal = 1;
place = (21.5, -21.5);
place = (21.5, -21.5);
type = Stem;
},
{
horizontal = 1;
origin = (0,12);
target = (0,21);
type = TTStem;
},
{
horizontal = 1;
origin = (0,0);
target = (0,22);
type = TTStem;
}
);
layerId = "FB732A47-0020-4E5B-B7FA-72B1D79E8828";
shapes = (
{
closed = 1;
nodes = (
(110,720,l),
(89.858,720,o),
(75,705.142,o),
(75,685,c),
(75,35,l),
(75,14.858,o),
(89.858,0,o),
(110,0,c),
(145,0,l),
(166.491,0,o),
(180,15.198,o),
(180,35,c),
(180,292,l),
(469,292,l),
(488.802,292,o),
(504,305.509,o),
(504,326,c),
(504,353,l),
(504,373.142,o),
(489.142,388,o),
(469,388,c),
(180,388,l),
(180,624,l),
(491,624,l),
(510.802,624,o),
(526,637.509,o),
(526,659,c),
(526,685,l),
(526,706.491,o),
(510.802,720,o),
(491,720,c)
);
}
);
width = 575;
},
{
layerId = "8A9476DE-11F4-4864-A7B4-14D9B7165FAE";
shapes = (
{
closed = 1;
nodes = (
(181,700,l),
(165,700,o),
(155,691,o),
(152,675,cs),
(49,25,ls),
(47,9,o),
(54,0,o),
(70,0,cs),
(105,0,ls),
(122,0,o),
(132,9,o),
(134,25,cs),
(177,292,l),
(476,292,ls),
(492,292,o),
(502,300,o),
(504,316,cs),
(509,343,ls),
(511,359,o),
(504,368,o),
(488,368,cs),
(189,368,l),
(229,624,l),
(550,624,ls),
(566,624,o),
(577,632,o),
(579,649,cs),
(583,675,ls),
(586,692,o),
(578,700,o),
(562,700,c)
);
}
);
width = 575;
},
{
layerId = "C492240F-DFB2-48B7-8D1C-81E7E6E3599E";
shapes = (
{
closed = 1;
nodes = (
(184,720,l),
(164,720,o),
(147,705,o),
(144,685,c),
(41,35,l),
(38,15,o),
(50,0,o),
(70,0,c),
(105,0,l),
(127,0,o),
(143,15,o),
(146,35,c),
(187,292,l),
(476,292,l),
(495,292,o),
(513,306,o),
(516,326,c),
(520,353,l),
(524,373,o),
(511,388,o),
(491,388,c),
(202,388,l),
(239,624,l),
(550,624,l),
(570,624,o),
(587,638,o),
(591,659,c),
(595,685,l),
(598,706,o),
(585,720,o),
(565,720,c)
);
}
);
width = 575;
}
);
unicode = 70;
},
{
glyphname = G;
lastChange = "2019-04-26 18:47:52 +0000";
layers = (
{
anchors = (
{
name = bottom;
pos = (328,0);
},
{
name = top;
pos = (288,700);
}
);
hints = (
{
horizontal = 1;
origin = (0,12);
target = (0,39);
type = Stem;
},
{
horizontal = 1;
origin = (0,0);
target = (0,7);
type = Stem;
},
{
horizontal = 1;
origin = (0,32);
target = (0,19);
type = Stem;
},
{
origin = (0,36);
target = (0,15);
type = Stem;
},
{
origin = (0,9);
target = (0,45);
type = Stem;
},
{
horizontal = 1;
options = 4;
origin = (0,39);
target = (0,12);
type = TTStem;
},
{
horizontal = 1;
options = 4;
origin = (0,7);
target = (0,0);
type = TTStem;
},
{
horizontal = 1;
options = 4;
origin = (0,32);
target = (0,19);
type = TTStem;
}
);
layerId = "A14B1AE3-86D5-4EA7-AE2F-7B4FA04DAB2E";
shapes = (
{
closed = 1;
nodes = (
(343,399,ls),
(327,399,o),
(318,390,o),
(318,373,cs),
(318,347,ls),
(318,331,o),
(326,322,o),
(343,322,cs),
(415,322,l),
(415,80,l),
(386,72,o),
(360,68,o),
(338,68,cs),
(259,68,o),
(171,114,o),
(171,310,cs),
(171,390,ls),
(171,586,o),
(259,632,o),
(338,632,cs),
(369,632,o),
(405,625,o),
(449,609,cs),
(464,603,o),
(475,608,o),
(481,623,cs),
(491,647,ls),
(497,662,o),
(493,674,o),
(478,680,cs),
(431,700,o),
(385,710,o),
(340,710,cs),
(222,710,o),
(85,640,o),
(85,390,cs),
(85,310,ls),
(85,60,o),
(222,-10,o),
(340,-10,cs),
(385,-10,o),
(432,0,o),
(481,21,cs),
(494,27,o),
(500,37,o),
(500,51,cs),
(500,374,ls),
(500,390,o),
(491,399,o),
(475,399,cs)
);
}
);
width = 575;
},
{
anchors = (
{
name = bottom;
pos = (288,0);
},
{
name = top;
pos = (288,700);
}
);
hints = (
{
horizontal = 1;
origin = (0,39);
target = (0,12);
type = TTStem;
},
{
horizontal = 1;
origin = (0,7);
target = (0,0);
type = TTStem;
},
{
horizontal = 1;
origin = (0,32);
target = (0,19);
type = TTStem;
},
{
horizontal = 1;
origin = (0,12);
target = (0,39);
type = Stem;
},
{
horizontal = 1;
origin = (0,0);
target = (0,7);
type = Stem;
},
{
horizontal = 1;
origin = (0,32);
target = (0,19);
type = Stem;
},
{
origin = (0,36);
target = (0,15);
type = Stem;
},
{
origin = (0,9);
target = (0,45);
type = Stem;
}
);
layerId = "FB732A47-0020-4E5B-B7FA-72B1D79E8828";
shapes = (
{
closed = 1;
nodes = (
(343,409,ls),
(321,409,o),
(308,395,o),
(308,373,cs),
(308,347,ls),
(308,325,o),
(321,312,o),
(343,312,cs),
(405,312,l),
(405,88,l),
(380,81,o),
(358,78,o),
(338,78,cs),
(235,78,o),
(181,158,o),
(181,310,cs),
(181,400,ls),
(181,552,o),
(235,632,o),
(338,632,cs),
(369,632,o),
(404,625,o),
(446,610,cs),
(465,602,o),
(482,609,o),
(490,629,cs),
(500,653,ls),
(508,674,o),
(501,691,o),
(482,699,cs),
(434,720,o),
(387,730,o),
(340,730,cs),
(174,730,o),
(75,608,o),
(75,400,cs),
(75,310,ls),
(75,102,o),
(174,-20,o),
(340,-20,cs),
(387,-20,o),
(436,-9,o),
(485,12,cs),
(501,19,o),
(510,33,o),
(510,51,cs),
(510,374,ls),
(510,395,o),
(496,409,o),
(475,409,cs)
);
}
);
width = 575;
},
{
anchors = (
{
name = bottom;
pos = (248,0);
},
{
name = top;
pos = (359,700);
}
);
hints = (
{
horizontal = 1;
origin = (0,12);
target = (0,43);
type = Stem;
},
{
horizontal = 1;
origin = (0,0);
target = (0,7);
type = Stem;
},
{
horizontal = 1;
origin = (0,34);
target = (0,21);
type = Stem;
}
);
layerId = "8A9476DE-11F4-4864-A7B4-14D9B7165FAE";
shapes = (
{
closed = 1;
nodes = (
(365,389,ls),
(349,389,o),
(339,380,o),
(336,363,cs),
(332,337,ls),
(329,321,o),
(336,312,o),
(353,312,cs),
(425,312,l),
(386,70,l),
(356,62,o),
(330,58,o),
(308,58,cs),
(241,58,o),
(172,91,o),
(172,217,cs),
(172,253,o),
(176,286,o),
(193,390,cs),
(224,586,o),
(320,632,o),
(399,632,cs),
(430,632,o),
(464,625,o),
(506,609,cs),
(520,603,o),
(532,608,o),
(540,623,cs),
(554,647,ls),
(562,662,o),
(560,674,o),
(546,680,cs),
(502,700,o),
(458,710,o),
(413,710,cs),
(295,710,o),
(147,640,o),
(107,390,cs),
(90,280,o),
(85,246,o),
(85,206,cs),
(85,33,o),
(194,-20,o),
(297,-20,cs),
(342,-20,o),
(391,-10,o),
(443,11,cs),
(457,17,o),
(465,27,o),
(467,41,cs),
(518,364,ls),
(521,380,o),
(513,389,o),
(497,389,cs)
);
}
);
width = 575;
},
{
anchors = (
{
name = bottom;
pos = (247,0);
},
{
name = top;
pos = (358,700);
}
);
hints = (
{
horizontal = 1;
origin = (0,12);
target = (0,43);
type = Stem;
},
{
horizontal = 1;
origin = (0,0);
target = (0,7);
type = Stem;
},
{
horizontal = 1;
origin = (0,34);
target = (0,21);
type = Stem;
}
);
layerId = "C492240F-DFB2-48B7-8D1C-81E7E6E3599E";
shapes = (
{
closed = 1;
nodes = (
(367,409,ls),
(345,409,o),
(329,395,o),
(326,373,cs),
(322,347,ls),
(318,325,o),
(329,312,o),
(351,312,cs),
(413,312,l),
(378,88,l),
(352,81,o),
(329,78,o),
(309,78,cs),
(225,78,o),
(182,131,o),
(182,228,cs),
(182,263,o),
(185,282,o),
(203,400,cs),
(227,552,o),
(294,632,o),
(397,632,cs),
(428,632,o),
(462,625,o),
(501,610,cs),
(519,602,o),
(537,609,o),
(548,629,cs),
(562,653,ls),
(574,674,o),
(569,691,o),
(552,699,cs),
(507,720,o),
(461,730,o),
(414,730,cs),
(248,730,o),
(130,608,o),
(97,400,cs),
(81,296,o),
(76,264,o),
(76,218,cs),
(76,68,o),
(155,-20,o),
(296,-20,cs),
(343,-20,o),
(393,-9,o),
(446,12,cs),
(463,19,o),
(474,33,o),
(477,51,cs),
(528,374,ls),
(531,395,o),
(520,409,o),
(499,409,cs)
);
}
);
width = 575;
},
{
anchors = (
{
name = bottom;
pos = (288,0);
},
{
name = top;
pos = (288,700);
}
);
associatedMasterId = "A14B1AE3-86D5-4EA7-AE2F-7B4FA04DAB2E";
layerId = "7CEC482E-CEEB-449C-87C9-6A1C6A72855B";
name = "Regular Jan 11 15, 19:29";
shapes = (
{
closed = 1;
nodes = (
(85,330,ls),
(85,178,o),
(100,-10,o),
(351,-10,cs),
(390,-10,o),
(439,-6,o),
(489,3,cs),
(504,5,o),
(512,14,o),
(512,30,cs),
(512,364,ls),
(512,380,o),
(503,389,o),
(487,389,cs),
(355,389,ls),
(339,389,o),
(330,380,o),
(330,363,cs),
(330,337,ls),
(330,321,o),
(338,312,o),
(355,312,cs),
(427,312,l),
(427,72,l),
(385,68,o),
(372,67,o),
(351,67,cs),
(214,67,o),
(170,130,o),
(170,298,cs),
(170,403,ls),
(170,520,o),
(179,634,o),
(351,634,cs),
(376,634,o),
(426,632,o),
(468,624,cs),
(484,621,o),
(494,627,o),
(498,643,cs),
(504,669,ls),
(507,685,o),
(501,696,o),
(484,699,cs),
(438,708,o),
(384,710,o),
(351,710,cs),
(99,710,o),
(85,524,o),
(85,370,cs)
);
}
);
width = 575;
}
);
unicode = 71;
},
{
glyphname = H;
lastChange = "2016-06-09 18:35:33 +0000";
layers = (
{
anchors = (
{
name = bottom;
pos = (288,0);
},
{
name = center;
pos = (288,350);
},
{
name = top;
pos = (288,700);
},
{
name = topleft;
pos = (20,700);
}
);
hints = (
{
horizontal = 1;
place = (0, 0);
place = (0, 0);
type = Stem;
},
{
horizontal = 1;
place = (0, 0);
place = (0, 0);
type = Stem;
},
{
horizontal = 1;
origin = (0,10);
target = down;
type = TopGhost;
},
{
horizontal = 1;
origin = (0,22);
target = (0,5);
type = Stem;
},
{
origin = (0,13);
target = (0,6);
type = Stem;
},
{
origin = (0,3);
target = (0,32);
type = Stem;
},
{
horizontal = 1;
origin = (0,22);
target = (0,5);
type = TTShift;
},
{
horizontal = 1;
origin = (0,9);
type = TTSnap;
},
{
horizontal = 1;
origin = (0,0);
type = TTSnap;
},
{
horizontal = 1;
origin = (0,18);
type = TTSnap;
},
{
horizontal = 1;
origin = (0,27);
type = TTSnap;
}
);
layerId = "A14B1AE3-86D5-4EA7-AE2F-7B4FA04DAB2E";
shapes = (
{
closed = 1;
nodes = (
(447,700,ls),
(431,700,o),
(422,692,o),
(422,675,cs),
(422,410,l),
(153,410,l),
(153,675,ls),
(153,692,o),
(145,700,o),
(128,700,cs),
(93,700,ls),
(77,700,o),
(68,691,o),
(68,675,cs),
(68,25,ls),
(68,9,o),
(77,0,o),
(93,0,cs),
(128,0,ls),
(145,0,o),
(153,9,o),
(153,25,cs),
(153,333,l),
(422,333,l),
(422,25,ls),
(422,9,o),
(431,0,o),
(447,0,cs),
(482,0,ls),
(499,0,o),
(507,9,o),
(507,25,cs),
(507,675,ls),
(507,692,o),
(498,700,o),
(482,700,cs)
);
}
);
width = 575;
},
{
anchors = (
{
name = bottom;
pos = (288,0);
},
{
name = center;
pos = (288,350);
},
{
name = top;
pos = (288,700);
},
{
name = topleft;
pos = (20,720);
}
);
hints = (
{
horizontal = 1;
place = (21.5, -21.5);
place = (21.5, -21.5);
type = Stem;
},
{
horizontal = 1;
origin = (0,22);
target = (0,5);
type = TTStem;
},
{
horizontal = 1;
origin = (0,9);
type = TTSnap;
},
{
horizontal = 1;
origin = (0,35);
type = TTSnap;
},
{
horizontal = 1;
origin = (0,18);
type = TTSnap;
},
{
horizontal = 1;
origin = (0,28);
type = TTSnap;
}
);
layerId = "FB732A47-0020-4E5B-B7FA-72B1D79E8828";
shapes = (
{
closed = 1;
nodes = (
(447,720,l),
(427.198,720,o),
(412,706.491,o),
(412,685,c),
(412,430,l),
(163,430,l),
(163,685,l),
(163,706.142,o),
(149.142,720,o),
(128,720,c),
(93,720,l),
(72.858,720,o),
(58,705.142,o),
(58,685,c),
(58,35,l),
(58,14.858,o),
(72.858,0,o),
(93,0,c),
(128,0,l),
(149.491,0,o),
(163,15.198,o),
(163,35,c),
(163,333,l),
(412,333,l),
(412,35,l),
(412,14.858,o),
(426.858,0,o),
(447,0,c),
(482,0,l),
(503.491,0,o),
(517,15.198,o),
(517,35,c),
(517,685,l),
(517,706.491,o),
(501.802,720,o),
(482,720,c)
);
}
);
width = 575;
},
{
anchors = (
{
name = bottom;
pos = (248,0);
},
{
name = center;
pos = (304,350);
},
{
name = top;
pos = (359,700);
},
{
name = topleft;
pos = (91,700);
}
);
layerId = "8A9476DE-11F4-4864-A7B4-14D9B7165FAE";
shapes = (
{
closed = 1;
nodes = (
(518,700,ls),
(502,700,o),
(492,692,o),
(489,675,cs),
(447,410,l),
(178,410,l),
(220,675,ls),
(223,692,o),
(216,700,o),
(199,700,cs),
(164,700,ls),
(148,700,o),
(138,691,o),
(135,675,cs),
(32,25,l),
(30,9,o),
(37,0,o),
(53,0,cs),
(88,0,ls),
(105,0,o),
(115,9,o),
(117,25,cs),
(166,333,l),
(435,333,l),
(386,25,ls),
(384,9,o),
(391,0,o),
(407,0,cs),
(442,0,ls),
(459,0,o),
(469,9,o),
(471,25,cs),
(574,675,ls),
(577,692,o),
(569,700,o),
(553,700,cs)
);
}
);
width = 575;
},
{
anchors = (
{
name = bottom;
pos = (247,0);
},
{
name = center;
pos = (304,360);
},
{
name = top;
pos = (361,720);
},
{
name = topleft;
pos = (93,720);
}
);
layerId = "C492240F-DFB2-48B7-8D1C-81E7E6E3599E";
shapes = (
{
closed = 1;
nodes = (
(521,720,l),
(502,720,o),
(484,706,o),
(481,685,c),
(441,430,l),
(192,430,l),
(232,685,l),
(235,706,o),
(224,720,o),
(202,720,c),
(167,720,l),
(147,720,o),
(130,705,o),
(127,685,c),
(24,35,l),
(21,15,o),
(33,0,o),
(53,0,c),
(88,0,l),
(110,0,o),
(126,15,o),
(129,35,c),
(176,333,l),
(425,333,l),
(378,35,l),
(375,15,o),
(387,0,o),
(407,0,c),
(442,0,l),
(464,0,o),
(480,15,o),
(483,35,c),
(586,685,l),
(589,706,o),
(576,720,o),
(556,720,c)
);
}
);
width = 575;
}
);
unicode = 72;
},
{
glyphname = I;
lastChange = "2016-06-09 18:35:33 +0000";
layers = (
{
anchors = (
{
name = bottom;
pos = (288,0);
},
{
name = ogonek;
pos = (518,5);
},
{
name = top;
pos = (288,700);
},
{
name = topleft;
pos = (20,700);
}
);
hints = (
{
horizontal = 1;
place = (0, 7699);
place = (0, 7699);
type = Stem;
},
{
horizontal = 1;
origin = (0,0);
target = (0,7);
type = TTStem;
}
);
layerId = "A14B1AE3-86D5-4EA7-AE2F-7B4FA04DAB2E";
shapes = (
{
closed = 1;
nodes = (
(120,700,ls),
(104,700,o),
(95,692,o),
(95,675,cs),
(95,649,ls),
(95,633,o),
(104,624,o),
(120,624,cs),
(245,624,l),
(245,77,l),
(110,77,ls),
(94,77,o),
(85,68,o),
(85,52,cs),
(85,25,ls),
(85,9,o),
(94,0,o),
(110,0,cs),
(465,0,ls),
(482,0,o),
(490,9,o),
(490,25,cs),
(490,52,ls),
(490,68,o),
(482,77,o),
(465,77,cs),
(330,77,l),
(330,624,l),
(455,624,ls),
(471,624,o),
(480,632,o),
(480,649,cs),
(480,675,ls),
(480,692,o),
(471,700,o),
(455,700,cs)
);
}
);
width = 575;
},
{
anchors = (
{
name = bottom;
pos = (288,0);
},
{
name = ogonek;
pos = (518,5);
},
{
name = top;
pos = (288,700);
},
{
name = topleft;
pos = (20,720);
}
);
hints = (
{
horizontal = 1;
place = (0, 9699);
place = (0, 9699);
type = Stem;
},
{
horizontal = 1;
origin = (0,0);
target = (0,7);
type = TTStem;
},
{
horizontal = 1;
origin = (0,18);
target = (0,26);
type = TTShift;
}
);
layerId = "FB732A47-0020-4E5B-B7FA-72B1D79E8828";
shapes = (
{
closed = 1;
nodes = (
(120,720,l),
(100.198,720,o),
(85,706.491,o),
(85,685,c),
(85,659,l),
(85,638.858,o),
(99.858,624,o),
(120,624,c),
(235,624,l),
(235,97,l),
(110,97,l),
(89.858,97,o),
(75,82.142,o),
(75,62,c),
(75,35,l),
(75,14.858,o),
(89.858,0,o),
(110,0,c),
(465,0,l),
(486.491,0,o),
(500,15.198,o),
(500,35,c),
(500,62,l),
(500,81.802,o),
(486.491,97,o),
(465,97,c),
(340,97,l),
(340,624,l),
(455,624,l),
(474.802,624,o),
(490,637.509,o),
(490,659,c),
(490,685,l),
(490,706.491,o),
(474.802,720,o),
(455,720,c)
);
}
);
width = 575;
},
{
anchors = (
{
name = bottom;
pos = (248,0);
},
{
name = ogonek;
pos = (477,10);
},
{
name = top;
pos = (359,700);
},
{
name = topleft;
pos = (91,700);
}
);
layerId = "8A9476DE-11F4-4864-A7B4-14D9B7165FAE";
shapes = (
{
closed = 1;
nodes = (
(191,700,ls),
(175,700,o),
(165,692,o),
(162,675,cs),
(158,649,ls),
(156,633,o),
(163,624,o),
(179,624,cs),
(304,624,l),
(218,77,l),
(83,77,ls),
(67,77,o),
(56,68,o),
(54,52,cs),
(49,25,ls),
(47,9,o),
(54,0,o),
(70,0,cs),
(425,0,ls),
(442,0,o),
(452,9,o),
(454,25,cs),
(459,52,ls),
(461,68,o),
(455,77,o),
(438,77,cs),
(303,77,l),
(389,624,l),
(514,624,ls),
(530,624,o),
(541,632,o),
(543,649,cs),
(547,675,ls),
(550,692,o),
(542,700,o),
(526,700,cs)
);
}
);
width = 575;
},
{
anchors = (
{
name = bottom;
pos = (247,0);
},
{
name = ogonek;
pos = (476,10);
},
{
name = top;
pos = (361,720);
},
{
name = topleft;
pos = (93,720);
}
);
layerId = "C492240F-DFB2-48B7-8D1C-81E7E6E3599E";
shapes = (
{
closed = 1;
nodes = (
(194,720,l),
(175,720,o),
(157,706,o),
(154,685,c),
(150,659,l),
(147,639,o),
(159,624,o),
(179,624,c),
(294,624,l),
(211,97,l),
(86,97,l),
(66,97,o),
(48,82,o),
(45,62,c),
(41,35,l),
(38,15,o),
(50,0,o),
(70,0,c),
(425,0,l),
(447,0,o),
(463,15,o),
(466,35,c),
(470,62,l),
(473,82,o),
(462,97,o),
(441,97,c),
(316,97,l),
(399,624,l),
(514,624,l),
(534,624,o),
(551,638,o),
(555,659,c),
(559,685,l),
(562,706,o),
(549,720,o),
(529,720,c)
);
}
);
width = 575;
}
);
unicode = 73;
},
{
glyphname = IJ;
lastChange = "2016-06-09 18:35:33 +0000";
layers = (
{
hints = (
{
horizontal = 1;
place = (0, 7699);
place = (0, 7699);
type = Stem;
},
{
horizontal = 1;
origin = (0,0);
target = (0,7);
type = TTStem;
},
{
horizontal = 1;
origin = (1,0);
target = (1,8);
type = TTShift;
},
{
horizontal = 1;
origin = (0,18);
target = (0,26);
type = TTShift;
},
{
horizontal = 1;
origin = (1,19);
target = (1,12);
type = TTShift;
}
);
layerId = "A14B1AE3-86D5-4EA7-AE2F-7B4FA04DAB2E";
shapes = (
{
closed = 1;
nodes = (
(90,700,ls),
(74,700,o),
(65,692,o),
(65,675,cs),
(65,649,ls),
(65,633,o),
(74,624,o),
(90,624,cs),
(115,624,l),
(115,77,l),
(80,77,ls),
(64,77,o),
(55,68,o),
(55,52,cs),
(55,25,ls),
(55,9,o),
(64,0,o),
(80,0,cs),
(235,0,ls),
(252,0,o),
(260,9,o),
(260,25,cs),
(260,52,ls),
(260,68,o),
(252,77,o),
(235,77,cs),
(200,77,l),
(200,624,l),
(225,624,ls),
(241,624,o),
(250,632,o),
(250,649,cs),
(250,675,ls),
(250,692,o),
(241,700,o),
(225,700,cs)
);
},
{
closed = 1;
nodes = (
(352,700,ls),
(336,700,o),
(327,691,o),
(327,675,cs),
(327,649,ls),
(327,632,o),
(336,624,o),
(352,624,cs),
(405,624,l),
(405,125,ls),
(405,86,o),
(377,77,o),
(340,77,cs),
(324,77,o),
(315,68,o),
(315,52,cs),
(315,25,ls),
(315,9,o),
(324,1,o),
(341,1,cs),
(437,1,o),
(490,24,o),
(490,125,cs),
(490,675,ls),
(490,692,o),
(482,700,o),
(465,700,cs)
);
}
);
width = 575;
},
{
hints = (
{
horizontal = 1;
place = (0, 9699);
place = (0, 9699);
type = Stem;
},
{
horizontal = 1;
origin = (0,0);
target = (0,7);
type = TTStem;
},
{
horizontal = 1;
origin = (1,0);
target = (1,7);
type = TTStem;
},
{
horizontal = 1;
origin = (0,17);
target = (0,9);
type = TTStem;
},
{
horizontal = 1;
origin = (1,19);
target = (1,12);
type = TTStem;
}
);
layerId = "FB732A47-0020-4E5B-B7FA-72B1D79E8828";
shapes = (
{
closed = 1;
nodes = (
(90,720,l),
(70.198,720,o),
(55,706.491,o),
(55,685,c),
(55,659,l),
(55,638.858,o),
(69.858,624,o),
(90,624,c),
(105,624,l),
(105,97,l),
(80,97,l),
(59.858,97,o),
(45,82.142,o),
(45,62,c),
(45,35,l),
(45,14.858,o),
(59.858,0,o),
(80,0,c),
(235,0,l),
(256.491,0,o),
(270,15.198,o),
(270,35,c),
(270,62,l),
(270,81.802,o),
(256.491,97,o),
(235,97,c),
(210,97,l),
(210,624,l),
(225,624,l),
(244.802,624,o),
(260,637.509,o),
(260,659,c),
(260,685,l),
(260,706.491,o),
(244.802,720,o),
(225,720,c)
);
},
{
closed = 1;
nodes = (
(352,720,l),
(331.858,720,o),
(317,705.142,o),
(317,685,c),
(317,659,l),
(317,637.509,o),
(332.198,624,o),
(352,624,c),
(395,624,l),
(395,135,l),
(395,103.29,o),
(375.432,97,o),
(340,97,c),
(319.858,97,o),
(305,82.142,o),
(305,62,c),
(305,35,l),
(305,14.509,o),
(320.198,1,o),
(341,1,c),
(439.076,1,o),
(500,27.439,o),
(500,135,c),
(500,685,l),
(500,706.142,o),
(486.142,720,o),
(465,720,c)
);
}
);
width = 575;
},
{
layerId = "8A9476DE-11F4-4864-A7B4-14D9B7165FAE";
shapes = (
{
closed = 1;
nodes = (
(161,700,ls),
(145,700,o),
(135,692,o),
(132,675,cs),
(128,649,ls),
(126,633,o),
(133,624,o),
(149,624,cs),
(174,624,l),
(88,77,l),
(53,77,ls),
(37,77,o),
(26,68,o),
(24,52,cs),
(19,25,ls),
(17,9,o),
(24,0,o),
(40,0,cs),
(195,0,ls),
(212,0,o),
(222,9,o),
(224,25,cs),
(229,52,ls),
(231,68,o),
(225,77,o),
(208,77,cs),
(173,77,l),
(259,624,l),
(284,624,ls),
(300,624,o),
(311,632,o),
(313,649,cs),
(317,675,ls),
(320,692,o),
(312,700,o),
(296,700,cs)
);
},
{
closed = 1;
nodes = (
(423,700,ls),
(407,700,o),
(397,691,o),
(394,675,cs),
(390,649,ls),
(388,632,o),
(395,624,o),
(411,624,cs),
(464,624,l),
(385,125,ls),
(379,86,o),
(350,77,o),
(313,77,cs),
(297,77,o),
(286,68,o),
(284,52,cs),
(279,25,ls),
(277,9,o),
(285,1,o),
(302,1,cs),
(398,1,o),
(454,24,o),
(470,125,cs),
(557,675,ls),
(560,692,o),
(553,700,o),
(536,700,cs)
);
}
);
width = 575;
},
{
layerId = "C492240F-DFB2-48B7-8D1C-81E7E6E3599E";
shapes = (
{
closed = 1;
nodes = (
(164,720,l),
(145,720,o),
(127,706,o),
(124,685,c),
(120,659,l),
(117,639,o),
(129,624,o),
(149,624,c),
(164,624,l),
(81,97,l),
(56,97,l),
(36,97,o),
(18,82,o),
(15,62,c),
(11,35,l),
(8,15,o),
(20,0,o),
(40,0,c),
(195,0,l),
(217,0,o),
(233,15,o),
(236,35,c),
(240,62,l),
(243,82,o),
(232,97,o),
(211,97,c),
(186,97,l),
(269,624,l),
(284,624,l),
(304,624,o),
(321,638,o),
(325,659,c),
(329,685,l),
(332,706,o),
(319,720,o),
(299,720,c)
);
},
{
closed = 1;
nodes = (
(426,720,l),
(406,720,o),
(389,705,o),
(386,685,c),
(382,659,l),
(378,638,o),
(391,624,o),
(411,624,c),
(454,624,l),
(377,135,l),
(372,103,o),
(351,97,o),
(316,97,c),
(296,97,o),
(278,82,o),
(275,62,c),
(271,35,l),
(268,15,o),
(281,1,o),
(302,1,c),
(400,1,o),
(465,27,o),
(482,135,c),
(569,685,l),
(572,706,o),
(561,720,o),
(539,720,c)
);
}
);
width = 575;
}
);
unicode = 306;
},
{
glyphname = J;
lastChange = "2016-06-09 18:35:33 +0000";
layers = (
{
anchors = (
{
name = top;
pos = (288,700);
}
);
hints = (
{
horizontal = 1;
place = (-10, 7800);
place = (-10, 7800);
type = Stem;
},
{
horizontal = 1;
place = (62199, 100);
place = (62199, 100);
type = Stem;
},
{
place = (40399, 100);
place = (40399, 100);
type = Stem;
},
{
horizontal = 1;
place = (-10, 7800);
place = (-10, 7800);
type = Stem;
},
{
horizontal = 1;
origin = (0,0);
target = (0,7);
type = TTStem;
},
{
horizontal = 1;
origin = (0,25);
target = (0,12);
type = TTShift;
},
{
horizontal = 1;
options = 4;
origin = (0,28);
target = (0,9);
type = TTStem;
}
);
layerId = "A14B1AE3-86D5-4EA7-AE2F-7B4FA04DAB2E";
shapes = (
{
closed = 1;
nodes = (
(185,700,ls),
(169,700,o),
(160,691,o),
(160,675,cs),
(160,647,ls),
(160,631,o),
(169,622,o),
(185,622,cs),
(404,622,l),
(404,270,ls),
(404,114,o),
(316,68,o),
(237,68,cs),
(206,68,o),
(170,75,o),
(126,91,cs),
(111,97,o),
(100,92,o),
(94,77,cs),
(84,53,ls),
(78,38,o),
(82,26,o),
(97,20,cs),
(144,0,o),
(196,-10,o),
(243,-10,cs),
(368,-10,o),
(490,60,o),
(490,270,cs),
(490,675,ls),
(490,691,o),
(481,700,o),
(465,700,cs)
);
}
);
width = 575;
},
{
anchors = (
{
name = top;
pos = (288,700);
}
);
hints = (
{
horizontal = 1;
place = (-10, 9800);
place = (-10, 9800);
type = Stem;
},
{
horizontal = 1;
origin = (0,0);
target = (0,7);
type = TTStem;
},
{
horizontal = 1;
origin = (0,25);
target = (0,12);
type = TTStem;
}
);
layerId = "FB732A47-0020-4E5B-B7FA-72B1D79E8828";
shapes = (
{
closed = 1;
nodes = (
(185,720,l),
(164.858,720,o),
(150,705.142,o),
(150,685,c),
(150,657,l),
(150,636.858,o),
(164.858,622,o),
(185,622,c),
(394,622,l),
(394,280,l),
(394,131.335,o),
(330.89,88,o),
(247,88,c),
(206.963,88,o),
(172.679,94.666,o),
(129.417,110.398,c),
(110.749,117.871,o),
(92.207,109.442,o),
(84.715,90.714,c),
(74.769,66.846,l),
(67.355,48.313,o),
(73.98,28.438,o),
(93.286,20.715,c),
(141.065,0.381,o),
(195.047,-10,o),
(247,-10,c),
(375.763,-10,o),
(500,64.33,o),
(500,280,c),
(500,685,l),
(500,705.142,o),
(485.142,720,o),
(465,720,c)
);
}
);
width = 575;
},
{
anchors = (
{
name = bottom;
pos = (248,0);
},
{
name = top;
pos = (359,700);
}
);
layerId = "8A9476DE-11F4-4864-A7B4-14D9B7165FAE";
shapes = (
{
closed = 1;
nodes = (
(268,700,ls),
(252,700,o),
(242,691,o),
(239,675,cs),
(235,649,ls),
(233,632,o),
(240,624,o),
(256,624,cs),
(464,624,l),
(409,275,ls),
(390,153,o),
(332,67,o),
(176,67,cs),
(155,67,o),
(112,69,o),
(67,78,cs),
(51,81,o),
(39,75,o),
(33,59,cs),
(22,33,ls),
(15,17,o),
(20,6,o),
(36,3,cs),
(88,-8,o),
(134,-10,o),
(164,-10,cs),
(328,-10,o),
(459,52,o),
(494,275,cs),
(557,675,ls),
(560,692,o),
(553,700,o),
(536,700,cs)
);
}
);
width = 575;
},
{
anchors = (
{
name = bottom;
pos = (247,0);
},
{
name = top;
pos = (361,720);
}
);
layerId = "C492240F-DFB2-48B7-8D1C-81E7E6E3599E";
shapes = (
{
closed = 1;
nodes = (
(258,720,l),
(238,720,o),
(220,705,o),
(217,685,c),
(213,657,l),
(210,637,o),
(222,622,o),
(242,622,c),
(451,622,l),
(397,280,l),
(374,131,o),
(304,88,o),
(220,88,c),
(180,88,o),
(147,95,o),
(105,110,c),
(89,118,o),
(68,109,o),
(58,91,c),
(44,67,l),
(33,48,o),
(37,28,o),
(55,21,c),
(100,0,o),
(152,-10,o),
(204,-10,c),
(333,-10,o),
(469,64,o),
(503,280,c),
(567,685,l),
(570,705,o),
(558,720,o),
(538,720,c)
);
}
);
width = 575;
},
{
anchors = (
{
name = top;
pos = (288,700);
}
);
associatedMasterId = "A14B1AE3-86D5-4EA7-AE2F-7B4FA04DAB2E";
layerId = "C7C84F2E-726A-4BD5-A5A1-A57EA4026C0F";
name = "Regular Dec 25 14, 15:59";
shapes = (
{
closed = 1;
nodes = (
(147,700,ls),
(131,700,o),
(122,691,o),
(122,675,cs),
(122,649,ls),
(122,632,o),
(131,624,o),
(147,624,cs),
(405,624,l),
(405,275,ls),
(405,153,o),
(361,67,o),
(205,67,cs),
(184,67,o),
(141,69,o),
(94,78,cs),
(78,81,o),
(67,75,o),
(63,59,cs),
(56,33,ls),
(52,17,o),
(59,6,o),
(75,3,cs),
(129,-8,o),
(175,-10,o),
(205,-10,cs),
(369,-10,o),
(490,52,o),
(490,275,cs),
(490,675,ls),
(490,692,o),
(482,700,o),
(465,700,cs)
);
}
);
width = 575;
},
{
anchors = (
{
name = top;
pos = (288,700);
}
);
associatedMasterId = "A14B1AE3-86D5-4EA7-AE2F-7B4FA04DAB2E";
layerId = "5C26ABEB-5643-41C4-BFF0-DFF59DAD40C9";
name = "Regular Dec 30 14, 23:58";
shapes = (
{
closed = 1;
nodes = (
(293,700,ls),
(277,700,o),
(268,692,o),
(268,675,cs),
(268,649,ls),
(268,633,o),
(277,624,o),
(293,624,cs),
(405,624,l),
(405,203,ls),
(405,121,o),
(370,67,o),
(288,67,cs),
(206,67,o),
(170,120,o),
(170,203,cs),
(170,220,o),
(161,228,o),
(145,228,cs),
(110,228,ls),
(94,228,o),
(85,219,o),
(85,203,cs),
(85,67,o),
(153,-10,o),
(288,-10,cs),
(422,-10,o),
(490,66,o),
(490,203,cs),
(490,675,ls),
(490,692,o),
(482,700,o),
(465,700,cs)
);
}
);
width = 575;
},
{
anchors = (
{
name = top;
pos = (288,700);
}
);
associatedMasterId = "A14B1AE3-86D5-4EA7-AE2F-7B4FA04DAB2E";
layerId = "602CC3B6-424E-4E97-A2AB-9F9C879DF274";
name = "Regular Jan 11 15, 19:32";
shapes = (
{
closed = 1;
nodes = (
(165,700,ls),
(149,700,o),
(140,691,o),
(140,675,cs),
(140,649,ls),
(140,632,o),
(149,624,o),
(165,624,cs),
(405,624,l),
(405,275,ls),
(405,153,o),
(361,67,o),
(205,67,cs),
(184,67,o),
(141,69,o),
(94,78,cs),
(78,81,o),
(67,75,o),
(63,59,cs),
(56,33,ls),
(52,17,o),
(59,6,o),
(75,3,cs),
(129,-8,o),
(175,-10,o),
(205,-10,cs),
(369,-10,o),
(490,52,o),
(490,275,cs),
(490,675,ls),
(490,692,o),
(482,700,o),
(465,700,cs)
);
}
);
width = 575;
}
);
unicode = 74;
},
{
glyphname = K;
lastChange = "2016-06-09 18:35:33 +0000";
layers = (
{
anchors = (
{
name = bottom;
pos = (288,0);
},
{
name = top;
pos = (288,700);
}
);
hints = (
{
horizontal = 1;
origin = (0,26);
target = up;
type = BottomGhost;
},
{
horizontal = 1;
origin = (0,19);
target = down;
type = TopGhost;
},
{
origin = (0,23);
target = (0,14);
type = Stem;
},
{
horizontal = 1;
origin = (0,9);
type = TTSnap;
},
{
horizontal = 1;
origin = (0,3);
type = TTSnap;
},
{
horizontal = 1;
origin = (0,27);
type = TTSnap;
},
{
horizontal = 1;
origin = (0,19);
type = TTSnap;
},
{
horizontal = 1;
origin = (0,4);
target = (0,13);
type = TTDiagonal;
},
{
horizontal = 1;
origin = (0,4);
target = (0,32);
type = TTDiagonal;
}
);
layerId = "A14B1AE3-86D5-4EA7-AE2F-7B4FA04DAB2E";
shapes = (
{
closed = 1;
nodes = (
(495,0,ls),
(516,0,o),
(523,14,o),
(510,31,cs),
(263,360,l),
(495,670,ls),
(508,687,o),
(501,700,o),
(480,700,cs),
(427,700,ls),
(414,700,o),
(405,696,o),
(397,685,cs),
(192,399,l),
(170,399,l),
(170,675,ls),
(170,692,o),
(162,700,o),
(145,700,cs),
(110,700,ls),
(94,700,o),
(85,691,o),
(85,675,cs),
(85,25,ls),
(85,9,o),
(94,0,o),
(110,0,cs),
(145,0,ls),
(162,0,o),
(170,9,o),
(170,25,cs),
(170,323,l),
(191,323,l),
(413,16,l),
(420,5,o),
(429,0,o),
(443,0,cs)
);
}
);
width = 575;
},
{
anchors = (
{
name = bottom;
pos = (150,0);
},
{
name = top;
pos = (150,700);
}
);
hints = (
{
horizontal = 1;
place = (21.5, -21.5);
place = (21.5, -21.5);
type = Stem;
},
{
horizontal = 1;
origin = (0,14);
type = TTSnap;
},
{
horizontal = 1;
origin = (0,5);
type = TTSnap;
},
{
horizontal = 1;
origin = (0,22);
type = TTSnap;
},
{
horizontal = 1;
origin = (0,32);
type = TTSnap;
}
);
layerId = "FB732A47-0020-4E5B-B7FA-72B1D79E8828";
shapes = (
{
closed = 1;
nodes = (
(275,370,l),
(503,674,ls),
(520,696,o),
(507,720,o),
(480,720,cs),
(427,720,ls),
(412,720,o),
(398,714,o),
(389,701,cs),
(187,419,l),
(180,419,l),
(180,685,ls),
(180,706,o),
(166,720,o),
(145,720,cs),
(110,720,ls),
(90,720,o),
(75,705,o),
(75,685,cs),
(75,35,ls),
(75,15,o),
(90,0,o),
(110,0,cs),
(145,0,ls),
(166,0,o),
(180,15,o),
(180,35,cs),
(180,323,l),
(186,323,l),
(405,20,l),
(413,7,o),
(427,0,o),
(443,0,cs),
(495,0,ls),
(522,0,o),
(535,25,o),
(518,47,cs)
);
}
);
width = 575;
},
{
anchors = (
{
name = bottom;
pos = (288,0);
},
{
name = top;
pos = (288,700);
}
);
associatedMasterId = "A14B1AE3-86D5-4EA7-AE2F-7B4FA04DAB2E";
hints = (
{
horizontal = 1;
place = (0, 0);
place = (0, 0);
type = Stem;
},
{
horizontal = 1;
place = (0, 0);
place = (0, 0);
type = Stem;
},
{
place = (0, 0);
place = (0, 0);
type = Stem;
},
{
place = (0, 0);
place = (0, 0);
type = Stem;
}
);
layerId = "BB43E745-9A80-48D3-8D14-E72876A0B727";
name = "Regular Dec 28 13, 16:32";
shapes = (
{
closed = 1;
nodes = (
(110,700,ls),
(94,700,o),
(85,691,o),
(85,675,cs),
(85,25,ls),
(85,9,o),
(94,0,o),
(110,0,cs),
(145,0,ls),
(162,0,o),
(170,9,o),
(170,25,cs),
(170,307,l),
(409,61,ls),
(425,46,o),
(433,35,o),
(440,18,cs),
(444,6,o),
(451,0,o),
(466,0,cs),
(503,0,ls),
(520,0,o),
(530,10,o),
(527,26,cs),
(518,64,o),
(499,86,o),
(469,115,cs),
(240,339,l),
(234,344,o),
(230,349,o),
(229,357,c),
(229,364,o),
(233,370,o),
(239,375,cs),
(468,584,ls),
(500,613,o),
(523,639,o),
(528,681,cs),
(530,692,o),
(527,699,o),
(516,700,c),
(467,700,ls),
(452,700,o),
(445,693,o),
(439,679,cs),
(434,665,o),
(424,653,o),
(410,640,cs),
(170,408,l),
(170,675,ls),
(170,692,o),
(162,700,o),
(145,700,cs)
);
}
);
width = 575;
},
{
anchors = (
{
name = bottom;
pos = (288,0);
},
{
name = top;
pos = (288,700);
}
);
associatedMasterId = "A14B1AE3-86D5-4EA7-AE2F-7B4FA04DAB2E";
hints = (
{
horizontal = 1;
place = (700, -10);
place = (700, -10);
type = Stem;
},
{
horizontal = 1;
place = (0, 10.5);
place = (0, 10.5);
type = Stem;
},
{
place = (85, 85);
place = (85, 85);
type = Stem;
},
{
place = (0, 0);
place = (0, 0);
type = Stem;
}
);
layerId = "77622695-0762-4F07-B24C-0AFBFE246664";
name = "Regular Dec 28 13, 19:48";
shapes = (
{
closed = 1;
nodes = (
(264,364,l),
(438,538,ls),
(494,594,o),
(524,642,o),
(524,675,cs),
(524,691,o),
(515,700,o),
(499,700,cs),
(464,700,ls),
(448,700,o),
(439,691,o),
(439,675,cs),
(439,654,o),
(420,623,o),
(384,587,cs),
(170,373,l),
(170,675,ls),
(170,692,o),
(162,700,o),
(145,700,cs),
(110,700,ls),
(94,700,o),
(85,691,o),
(85,675,cs),
(85,25,ls),
(85,9,o),
(94,0,o),
(110,0,cs),
(145,0,ls),
(162,0,o),
(170,9,o),
(170,25,cs),
(170,355,l),
(384,147,ls),
(419,112,o),
(439,80,o),
(439,57,cs),
(439,25,ls),
(439,9,o),
(448,0,o),
(464,0,cs),
(499,0,ls),
(516,0,o),
(524,9,o),
(524,25,cs),
(524,57,ls),
(524,92,o),
(494,141,o),
(438,196,cs)
);
},
{
closed = 1;
nodes = (
(132,326,l),
(241,326,l),
(241,403,l),
(132,403,l)
);
}
);
width = 575;
},
{
anchors = (
{
name = bottom;
pos = (288,0);
},
{
name = top;
pos = (288,700);
}
);
associatedMasterId = "A14B1AE3-86D5-4EA7-AE2F-7B4FA04DAB2E";
hints = (
{
horizontal = 1;
place = (700, -10);
place = (700, -10);
type = Stem;
},
{
horizontal = 1;
place = (0, 10.5);
place = (0, 10.5);
type = Stem;
},
{
place = (85, 85);
place = (85, 85);
type = Stem;
},
{
place = (0, 0);
place = (0, 0);
type = Stem;
},
{
horizontal = 1;
place = (0, 0);
place = (0, 0);
type = Stem;
},
{
place = (457, 83);
place = (457, 83);
type = Stem;
}
);
layerId = "905583CC-05CE-4F1B-B3CC-B3D83841DFB9";
name = "Regular Dec 28 13, 21:13";
shapes = (
{
closed = 1;
nodes = (
(110,700,ls),
(94,700,o),
(85,691,o),
(85,675,cs),
(85,25,ls),
(85,9,o),
(94,0,o),
(110,0,cs),
(145,0,ls),
(162,0,o),
(170,9,o),
(170,25,cs),
(170,675,ls),
(170,692,o),
(162,700,o),
(145,700,cs)
);
},
{
closed = 1;
nodes = (
(188,360,l),
(497,669,ls),
(513,685,o),
(507,700,o),
(484,700,cs),
(426,700,ls),
(413,700,o),
(404,696,o),
(395,687,cs),
(107,399,l),
(85,399,l),
(85,323,l),
(106,323,l),
(415,13,ls),
(424,4,o),
(433,0,o),
(446,0,cs),
(504,0,ls),
(527,0,o),
(533,15,o),
(517,31,cs)
);
}
);
width = 575;
},
{
layerId = "8A9476DE-11F4-4864-A7B4-14D9B7165FAE";
shapes = (
{
closed = 1;
nodes = (
(455,0,ls),
(476,0,o),
(486,14,o),
(475,31,cs),
(280,360,l),
(562,670,ls),
(577,687,o),
(572,700,o),
(551,700,cs),
(498,700,ls),
(485,700,o),
(476,696,o),
(466,685,cs),
(216,399,l),
(194,399,l),
(237,675,ls),
(240,692,o),
(233,700,o),
(216,700,cs),
(181,700,ls),
(165,700,o),
(155,691,o),
(152,675,cs),
(49,25,ls),
(47,9,o),
(54,0,o),
(70,0,cs),
(105,0,ls),
(122,0,o),
(132,9,o),
(134,25,cs),
(182,323,l),
(203,323,l),
(376,16,ls),
(381,5,o),
(389,0,o),
(403,0,cs)
);
}
);
width = 575;
},
{
layerId = "C492240F-DFB2-48B7-8D1C-81E7E6E3599E";
shapes = (
{
closed = 1;
nodes = (
(455,0,l),
(483,0,o),
(499,25,o),
(486,47,c),
(295,370,l),
(570,674,l),
(591,696,o),
(581,720,o),
(554,720,c),
(501,720,l),
(486,720,o),
(472,714,o),
(460,701,c),
(214,419,l),
(207,419,l),
(249,685,l),
(252,706,o),
(241,720,o),
(219,720,c),
(184,720,l),
(164,720,o),
(147,705,o),
(144,685,c),
(41,35,l),
(38,15,o),
(50,0,o),
(70,0,c),
(105,0,l),
(127,0,o),
(143,15,o),
(146,35,c),
(192,323,l),
(197,323,l),
(368,20,l),
(368,21,l),
(375,7,o),
(387,0,o),
(403,0,c)
);
}
);
width = 575;
}
);
unicode = 75;
},
{
glyphname = L;
lastChange = "2016-06-09 18:35:33 +0000";
layers = (
{
anchors = (
{
name = bottom;
pos = (288,0);
},
{
name = top;
pos = (288,700);
}
);
hints = (
{
horizontal = 1;
origin = (0,5);
target = down;
type = TopGhost;
},
{
origin = (0,8);
target = (0,1);
type = Stem;
},
{
horizontal = 1;
origin = (0,12);
target = (0,0);
type = Stem;
},
{
horizontal = 1;
origin = (0,4);
type = TTSnap;
},
{
horizontal = 1;
origin = (0,12);
target = (0,0);
type = TTShift;
}
);
layerId = "A14B1AE3-86D5-4EA7-AE2F-7B4FA04DAB2E";
shapes = (
{
closed = 1;
nodes = (
(170,77,l),
(170,675,ls),
(170,692,o),
(162,700,o),
(145,700,cs),
(110,700,ls),
(94,700,o),
(85,691,o),
(85,675,cs),
(85,25,ls),
(85,9,o),
(94,0,o),
(110,0,cs),
(529,0,ls),
(545,0,o),
(554,9,o),
(554,25,cs),
(554,52,ls),
(554,68,o),
(545,77,o),
(529,77,cs)
);
}
);
width = 575;
},
{
anchors = (
{
name = bottom;
pos = (288,0);
},
{
name = top;
pos = (288,700);
}
);
hints = (
{
horizontal = 1;
place = (0, 9699);
place = (0, 9699);
type = Stem;
},
{
horizontal = 1;
origin = (0,4);
type = TTSnap;
},
{
horizontal = 1;
origin = (0,12);
target = (0,0);
type = TTShift;
}
);
layerId = "FB732A47-0020-4E5B-B7FA-72B1D79E8828";
shapes = (
{
closed = 1;
nodes = (
(180,97,l),
(180,685,l),
(180,706.142,o),
(166.142,720,o),
(145,720,c),
(110,720,l),
(89.858,720,o),
(75,705.142,o),
(75,685,c),
(75,35,l),
(75,14.858,o),
(89.858,0,o),
(110,0,c),
(529,0,l),
(549.142,0,o),
(564,14.858,o),
(564,35,c),
(564,62,l),
(564,82.142,o),
(549.142,97,o),
(529,97,c)
);
}
);
width = 575;
},
{
anchors = (
{
name = bottom;
pos = (288,0);
},
{
name = top;
pos = (288,700);
}
);
associatedMasterId = "FB732A47-0020-4E5B-B7FA-72B1D79E8828";
layerId = "7E84CF2B-3B14-49B2-BE45-5830B0EF0584";
name = "Bold Nov 25 14, 07:41";
shapes = (
{
closed = 1;
nodes = (
(220,77,l),
(220,675,ls),
(220,692,o),
(212,700,o),
(195,700,cs),
(110,700,ls),
(94,700,o),
(85,691,o),
(85,675,cs),
(85,25,ls),
(85,9,o),
(94,0,o),
(110,0,cs),
(529,0,ls),
(545,0,o),
(554,9,o),
(554,25,cs),
(554,52,ls),
(554,68,o),
(545,77,o),
(529,77,cs)
);
}
);
width = 575;
},
{
layerId = "8A9476DE-11F4-4864-A7B4-14D9B7165FAE";
shapes = (
{
closed = 1;
nodes = (
(143,77,l),
(237,675,ls),
(240,692,o),
(233,700,o),
(216,700,cs),
(181,700,ls),
(165,700,o),
(155,691,o),
(152,675,cs),
(49,25,ls),
(47,9,o),
(54,0,o),
(70,0,cs),
(489,0,ls),
(505,0,o),
(516,9,o),
(518,25,cs),
(523,52,ls),
(525,68,o),
(518,77,o),
(502,77,cs)
);
}
);
width = 575;
},
{
layerId = "C492240F-DFB2-48B7-8D1C-81E7E6E3599E";
shapes = (
{
closed = 1;
nodes = (
(156,97,l),
(249,685,l),
(252,706,o),
(241,720,o),
(219,720,c),
(184,720,l),
(164,720,o),
(147,705,o),
(144,685,c),
(41,35,l),
(38,15,o),
(50,0,o),
(70,0,c),
(489,0,l),
(510,0,o),
(527,15,o),
(530,35,c),
(534,62,l),
(537,82,o),
(525,97,o),
(505,97,c)
);
}
);
width = 575;
}
);
unicode = 76;
},
{
glyphname = Lslash;
lastChange = "2016-06-09 18:35:33 +0000";
layers = (
{
anchors = (
{
name = bottom;
pos = (288,0);
},
{
name = top;
pos = (288,700);
}
);
hints = (
{
horizontal = 1;
origin = (0,15);
target = down;
type = TopGhost;
},
{
origin = (0,18);
target = (0,11);
type = Stem;
},
{
horizontal = 1;
origin = (0,32);
target = (0,0);
type = Stem;
},
{
horizontal = 1;
origin = (0,14);
type = TTSnap;
},
{
horizontal = 1;
origin = (0,32);
target = (0,0);
type = TTShift;
}
);
layerId = "A14B1AE3-86D5-4EA7-AE2F-7B4FA04DAB2E";
shapes = (
{
closed = 1;
nodes = (
(170,77,l),
(170,343,l),
(307,446,ls),
(319,455,o),
(321,471,o),
(311,484,cs),
(292,507,ls),
(284,517,o),
(269,520,o),
(258,512,cs),
(170,446,l),
(170,675,ls),
(170,692,o),
(162,700,o),
(145,700,cs),
(110,700,ls),
(94,700,o),
(85,691,o),
(85,675,cs),
(85,382,l),
(19,332,ls),
(7,323,o),
(4,306,o),
(14,294,cs),
(34,271,l),
(42,261,o),
(57,259,o),
(68,267,cs),
(85,280,l),
(85,25,ls),
(85,9,o),
(94,0,o),
(110,0,cs),
(529,0,ls),
(545,0,o),
(554,9,o),
(554,25,cs),
(554,52,ls),
(554,68,o),
(545,77,o),
(529,77,cs)
);
}
);
width = 575;
},
{
layerId = "FB732A47-0020-4E5B-B7FA-72B1D79E8828";
shapes = (
{
closed = 1;
nodes = (
(19,332,ls),
(7,323,o),
(4,306,o),
(14,294,cs),
(34,271,ls),
(42,261,o),
(57,259,o),
(68,267,cs),
(307,446,ls),
(319,455,o),
(321,471,o),
(311,484,cs),
(292,507,ls),
(284,517,o),
(269,520,o),
(258,512,cs)
);
},
{
ref = L;
}
);
width = 575;
},
{
layerId = "8A9476DE-11F4-4864-A7B4-14D9B7165FAE";
shapes = (
{
closed = 1;
nodes = (
(32,332,ls),
(19,323,o),
(13,306,o),
(21,294,cs),
(37,271,ls),
(44,261,o),
(58,259,o),
(71,267,cs),
(338,446,ls),
(351,455,o),
(356,471,o),
(348,484,cs),
(333,507,ls),
(326,517,o),
(312,520,o),
(299,512,cs)
);
},
{
ref = L;
}
);
width = 575;
},
{
layerId = "C492240F-DFB2-48B7-8D1C-81E7E6E3599E";
shapes = (
{
closed = 1;
nodes = (
(32,332,ls),
(19,323,o),
(13,306,o),
(21,294,cs),
(37,271,ls),
(44,261,o),
(58,259,o),
(71,267,cs),
(338,446,ls),
(351,455,o),
(356,471,o),
(348,484,cs),
(333,507,ls),
(326,517,o),
(312,520,o),
(299,512,cs)
);
},
{
ref = L;
}
);
width = 575;
}
);
unicode = 321;
},
{
glyphname = M;
lastChange = "2016-06-09 18:35:33 +0000";
layers = (
{
background = {
shapes = (
{
closed = 1;
nodes = (
(426,705,ls),
(412,705,o),
(403,699,o),
(397,687,cs),
(288,469,l),
(179,687,ls),
(173,699,o),
(164,705,o),
(150,705,cs),
(78,705,ls),
(60,705,o),
(51,696,o),
(51,680,cs),
(51,26,ls),
(51,11,o),
(62,0,o),
(77,0,cs),
(111,0,ls),
(126,0,o),
(136,11,o),
(136,26,cs),
(136,275,o),
(134,541,o),
(131,615,c),
(245,388,ls),
(251,375,o),
(260,370,o),
(274,370,cs),
(301,370,ls),
(315,370,o),
(325,375,o),
(331,388,cs),
(444,615,l),
(441,541,o),
(439,275,o),
(439,26,cs),
(439,11,o),
(450,0,o),
(465,0,cs),
(499,0,ls),
(514,0,o),
(524,11,o),
(524,26,cs),
(524,680,ls),
(524,696,o),
(515,705,o),
(498,705,cs)
);
}
);
};
hints = (
{
horizontal = 1;
place = (21.5, -21.5);
place = (21.5, -21.5);
type = Stem;
},
{
horizontal = 1;
place = (704.99, -20.48);
place = (704.99, -20.48);
type = Stem;
},
{
place = (50.99, 73.99);
place = (50.99, 73.99);
type = Stem;
},
{
place = (450.99, 74);
place = (450.99, 74);
type = Stem;
},
{
horizontal = 1;
origin = (0,11);
type = TTSnap;
},
{
horizontal = 1;
origin = (0,3);
type = TTSnap;
},
{
horizontal = 1;
origin = (0,20);
type = TTSnap;
},
{
horizontal = 1;
origin = (0,37);
type = TTSnap;
}
);
layerId = "A14B1AE3-86D5-4EA7-AE2F-7B4FA04DAB2E";
shapes = (
{
closed = 1;
nodes = (
(525,696,o),
(516,705,o),
(498,705,cs),
(482,705,ls),
(454,705,o),
(435,694,o),
(423,669,cs),
(288,399,l),
(153,669,ls),
(141,694,o),
(122,705,o),
(94,705,cs),
(78,705,ls),
(60,705,o),
(51,696,o),
(51,680,cs),
(31,26,ls),
(31,11,o),
(42,0,o),
(57,0,cs),
(91,0,ls),
(106,0,o),
(115,11,o),
(116,26,cs),
(134,540,l),
(245,318,ls),
(251,305,o),
(260,300,o),
(274,300,cs),
(302,300,ls),
(316,300,o),
(325,305,o),
(331,318,cs),
(442,540,l),
(460,26,ls),
(461,11,o),
(470,0,o),
(485,0,cs),
(519,0,ls),
(534,0,o),
(545,11,o),
(545,26,c),
(525,680,l)
);
}
);
width = 575;
},
{
hints = (
{
horizontal = 1;
place = (21.5, -21.5);
place = (21.5, -21.5);
type = Stem;
},
{
horizontal = 1;
place = (724.99, -20.48);
place = (724.99, -20.48);
type = Stem;
},
{
place = (40.99, 93.5);
place = (40.99, 93.5);
type = Stem;
},
{
place = (441.49, 93.5);
place = (441.49, 93.5);
type = Stem;
},
{
horizontal = 1;
origin = (0,11);
type = TTSnap;
},
{
horizontal = 1;
origin = (0,20);
type = TTSnap;
}
);
layerId = "FB732A47-0020-4E5B-B7FA-72B1D79E8828";
shapes = (
{
closed = 1;
nodes = (
(535,712,o),
(521,725,o),
(498,725,cs),
(482,725,ls),
(450,725,o),
(427,711,o),
(414,683,cs),
(288,431,l),
(162,683,ls),
(149,711,o),
(126,725,o),
(94,725,cs),
(78,725,ls),
(55,725,o),
(41,712,o),
(41,690,cs),
(21,36,ls),
(21,16,o),
(37,0,o),
(57,0,cs),
(91,0,ls),
(111,0,o),
(125,14,o),
(126,35,cs),
(143,540,l),
(236,354,ls),
(243,338,o),
(256,330,o),
(274,330,cs),
(302,330,ls),
(320,330,o),
(333,338,o),
(340,354,cs),
(433,540,l),
(450,36,ls),
(451,14,o),
(465,0,o),
(485,0,cs),
(519,0,ls),
(539,0,o),
(555,16,o),
(555,36,c),
(535,690,l)
);
}
);
width = 575;
},
{
associatedMasterId = "A14B1AE3-86D5-4EA7-AE2F-7B4FA04DAB2E";
hints = (
{
horizontal = 1;
place = (0, 0);
place = (0, 0);
type = Stem;
},
{
horizontal = 1;
place = (0, 0);
place = (0, 0);
type = Stem;
},
{
place = (0, 0);
place = (0, 0);
type = Stem;
},
{
place = (0, 0);
place = (0, 0);
type = Stem;
},
{
horizontal = 1;
place = (0, 0);
place = (0, 0);
type = Stem;
}
);
layerId = "3C5773F5-2E87-4C67-91B0-3B6CC869A9AF";
name = "Regular Jan 21 14, 20:24";
shapes = (
{
closed = 1;
nodes = (
(496,705,ls),
(482,705,o),
(473,700,o),
(467,687,cs),
(313,380,ls),
(307,368,o),
(301,359,o),
(288,359,cs),
(275,359,o),
(268,368,o),
(262,380,cs),
(109,687,ls),
(103,700,o),
(93,705,o),
(79,705,cs),
(78,705,ls),
(60,705,o),
(51,696,o),
(51,680,cs),
(51,26,ls),
(51,11,o),
(62,0,o),
(77,0,cs),
(111,0,ls),
(126,0,o),
(136,11,o),
(136,26,cs),
(136,275,o),
(134,401,o),
(131,475,c),
(194,350,ls),
(215,307,o),
(240,271,o),
(288,271,cs),
(336,271,o),
(360,307,o),
(382,350,cs),
(444,475,l),
(441,401,o),
(439,275,o),
(439,26,cs),
(439,11,o),
(450,0,o),
(465,0,cs),
(499,0,ls),
(514,0,o),
(524,11,o),
(524,26,cs),
(524,680,ls),
(524,696,o),
(515,705,o),
(498,705,cs)
);
}
);
width = 575;
},
{
associatedMasterId = "FB732A47-0020-4E5B-B7FA-72B1D79E8828";
layerId = "A2BBEF38-7A14-4F66-A923-37756C42EB97";
name = "Bold Aug 24 14, 22:49";
shapes = (
{
closed = 1;
nodes = (
(524,680,ls),
(524,696,o),
(515,705,o),
(498,705,cs),
(462,705,o),
(447,700,o),
(432,669,cs),
(313,430,ls),
(308,419,o),
(301,409,o),
(288,409,cs),
(275,409,o),
(268,419,o),
(262,430,cs),
(144,667,ls),
(129,696,o),
(115,705,o),
(78,705,cs),
(60,705,o),
(51,696,o),
(51,680,cs),
(51,25,ls),
(51,9,o),
(60,0,o),
(76,0,cs),
(161,0,ls),
(178,0,o),
(186,7,o),
(186,20,cs),
(186,289,o),
(185,407,o),
(182,424,c),
(194,400,ls),
(215,357,o),
(240,321,o),
(288,321,cs),
(336,321,o),
(361,357,o),
(382,400,cs),
(394,425,l),
(391,408,o),
(389,290,o),
(389,20,cs),
(389,7,o),
(398,0,o),
(414,0,cs),
(499,0,ls),
(516,0,o),
(524,9,o),
(524,25,cs)
);
}
);
width = 575;
},
{
layerId = "8A9476DE-11F4-4864-A7B4-14D9B7165FAE";
shapes = (
{
closed = 1;
nodes = (
(596,696,o),
(588,705,o),
(570,705,cs),
(554,705,ls),
(526,705,o),
(505,694,o),
(489,669,cs),
(312,399,l),
(219,669,ls),
(211,694,o),
(194,705,o),
(166,705,cs),
(150,705,ls),
(132,705,o),
(122,696,o),
(119,680,cs),
(-4,26,ls),
(-7,11,o),
(2,0,o),
(17,0,cs),
(51,0,ls),
(66,0,o),
(77,11,o),
(81,26,cs),
(180,540,l),
(256,318,ls),
(260,305,o),
(268,300,o),
(282,300,cs),
(310,300,ls),
(324,300,o),
(334,305,o),
(342,318,cs),
(488,540,l),
(425,26,ls),
(423,11,o),
(430,0,o),
(445,0,cs),
(479,0,ls),
(494,0,o),
(507,11,o),
(510,26,c),
(593,680,l)
);
}
);
width = 575;
},
{
layerId = "C492240F-DFB2-48B7-8D1C-81E7E6E3599E";
shapes = (
{
closed = 1;
nodes = (
(607,712,o),
(595,725,o),
(572,725,cs),
(556,725,ls),
(524,725,o),
(498,711,o),
(481,683,cs),
(315,431,l),
(229,683,ls),
(220,711,o),
(200,725,o),
(168,725,cs),
(152,725,ls),
(129,725,o),
(113,712,o),
(109,690,cs),
(-14,36,ls),
(-18,16,o),
(-4,0,o),
(16,0,cs),
(50,0,ls),
(70,0,o),
(86,14,o),
(90,35,cs),
(187,540,l),
(251,354,ls),
(255,338,o),
(267,330,o),
(285,330,cs),
(313,330,ls),
(331,330,o),
(345,338,o),
(355,354,cs),
(477,540,l),
(415,36,ls),
(412,14,o),
(424,0,o),
(444,0,cs),
(478,0,ls),
(498,0,o),
(516,16,o),
(520,36,c),
(603,690,l)
);
}
);
width = 575;
},
{
associatedMasterId = "A14B1AE3-86D5-4EA7-AE2F-7B4FA04DAB2E";
hints = (
{
horizontal = 1;
origin = (0,16);
target = up;
type = BottomGhost;
},
{
horizontal = 1;
origin = (0,9);
target = down;
type = TopGhost;
},
{
origin = (0,13);
target = (0,20);
type = Stem;
},
{
origin = (0,35);
target = (0,42);
type = Stem;
}
);
layerId = "2EA24EB4-50B4-4827-810B-A0FEEBF5D559";
name = "Regular Jan 31 15, 15:08";
shapes = (
{
closed = 1;
nodes = (
(476,705,ls),
(462,705,o),
(453,700,o),
(447,687,cs),
(288,369,l),
(129,687,ls),
(123,700,o),
(113,705,o),
(99,705,cs),
(78,705,ls),
(60,705,o),
(51,696,o),
(51,680,cs),
(51,26,ls),
(51,11,o),
(62,0,o),
(77,0,cs),
(111,0,ls),
(126,0,o),
(136,11,o),
(136,26,cs),
(136,275,o),
(134,441,o),
(131,515,c),
(245,288,ls),
(251,275,o),
(260,270,o),
(274,270,cs),
(301,270,ls),
(315,270,o),
(325,275,o),
(331,288,cs),
(444,515,l),
(441,441,o),
(439,275,o),
(439,26,cs),
(439,11,o),
(450,0,o),
(465,0,cs),
(499,0,ls),
(514,0,o),
(524,11,o),
(524,26,cs),
(524,680,ls),
(524,696,o),
(515,705,o),
(498,705,cs)
);
}
);
width = 575;
},
{
associatedMasterId = "A14B1AE3-86D5-4EA7-AE2F-7B4FA04DAB2E";
layerId = "EB323E44-F49D-48EC-8547-54FFD746B90A";
name = "Regular Jan 31 15, 16:43";
shapes = (
{
closed = 1;
nodes = (
(288,490,l),
(208,650,ls),
(188,690,o),
(154,710,o),
(123,710,cs),
(85,710,o),
(51,680,o),
(51,620,cs),
(51,26,ls),
(51,11,o),
(62,0,o),
(77,0,cs),
(111,0,ls),
(126,0,o),
(136,11,o),
(136,26,cs),
(136,625,l),
(254,389,l),
(264,371,o),
(276,361,o),
(288,361,cs),
(300,361,o),
(313,371,o),
(322,389,cs),
(440,625,l),
(440,26,ls),
(440,11,o),
(450,0,o),
(465,0,cs),
(499,0,ls),
(514,0,o),
(525,11,o),
(525,26,cs),
(525,620,ls),
(525,680,o),
(491,710,o),
(453,710,cs),
(422,710,o),
(388,690,o),
(368,650,cs)
);
}
);
width = 575;
},
{
associatedMasterId = "A14B1AE3-86D5-4EA7-AE2F-7B4FA04DAB2E";
layerId = "A56985D8-C1BA-48B2-AB33-FFA73D380421";
name = "Regular Jan 31 15, 16:55";
shapes = (
{
closed = 1;
nodes = (
(288,380,l),
(224,636,ls),
(213,680,o),
(180,708,o),
(140,708,cs),
(85,708,o),
(51,673,o),
(51,616,cs),
(51,26,ls),
(51,11,o),
(62,0,o),
(77,0,cs),
(111,0,ls),
(126,0,o),
(136,11,o),
(136,26,cs),
(136,640,l),
(195,403,ls),
(210,343,o),
(241,313,o),
(288,313,cs),
(335,313,o),
(365,343,o),
(380,403,cs),
(439,640,l),
(439,26,ls),
(439,11,o),
(449,0,o),
(464,0,cs),
(498,0,ls),
(513,0,o),
(524,11,o),
(524,26,cs),
(524,616,ls),
(524,673,o),
(490,708,o),
(435,708,cs),
(395,708,o),
(362,680,o),
(351,636,cs)
);
}
);
width = 575;
},
{
associatedMasterId = "A14B1AE3-86D5-4EA7-AE2F-7B4FA04DAB2E";
layerId = "082AF3A6-D95C-4BD2-A0FA-DBCB18FFEC4C";
name = "Regular Feb 2 15, 09:14";
shapes = (
{
closed = 1;
nodes = (
(295,417,ls),
(293,410,o),
(290,407,o),
(287,407,cs),
(284,407,o),
(281,410,o),
(279,417,cs),
(224,636,ls),
(213,680,o),
(180,708,o),
(140,708,cs),
(85,708,o),
(51,673,o),
(51,616,cs),
(51,26,ls),
(51,11,o),
(62,0,o),
(77,0,cs),
(111,0,ls),
(126,0,o),
(136,11,o),
(136,26,cs),
(136,500,ls),
(136,542,o),
(135,595,o),
(132,638,c),
(131,646,o),
(134,650,o),
(138,650,cs),
(141,650,o),
(144,647,o),
(145,641,c),
(195,433,ls),
(213,359,o),
(240,329,o),
(287,329,cs),
(334,329,o),
(361,359,o),
(379,433,cs),
(429,641,l),
(430,647,o),
(433,650,o),
(436,650,cs),
(440,650,o),
(443,646,o),
(442,638,c),
(439,595,o),
(438,542,o),
(438,500,cs),
(438,26,ls),
(438,11,o),
(448,0,o),
(463,0,cs),
(497,0,ls),
(512,0,o),
(523,11,o),
(523,26,cs),
(523,616,ls),
(523,673,o),
(489,708,o),
(434,708,cs),
(394,708,o),
(361,680,o),
(350,636,cs)
);
}
);
width = 575;
},
{
associatedMasterId = "A14B1AE3-86D5-4EA7-AE2F-7B4FA04DAB2E";
layerId = "5E2DFA9B-14D0-4C2A-B11F-3284B54DC3B5";
name = "Regular Feb 5 15, 13:38";
shapes = (
{
closed = 1;
nodes = (
(476,705,ls),
(462,705,o),
(453,700,o),
(447,687,cs),
(288,369,l),
(129,687,ls),
(123,700,o),
(113,705,o),
(99,705,cs),
(78,705,ls),
(60,705,o),
(51,696,o),
(51,680,cs),
(51,26,ls),
(51,11,o),
(62,0,o),
(77,0,cs),
(111,0,ls),
(126,0,o),
(136,11,o),
(136,26,cs),
(136,275,o),
(134,441,o),
(131,515,c),
(245,288,ls),
(251,275,o),
(260,270,o),
(274,270,cs),
(301,270,ls),
(315,270,o),
(325,275,o),
(331,288,cs),
(444,515,l),
(441,441,o),
(439,275,o),
(439,26,cs),
(439,11,o),
(450,0,o),
(465,0,cs),
(499,0,ls),
(514,0,o),
(524,11,o),
(524,26,cs),
(524,680,ls),
(524,696,o),
(515,705,o),
(498,705,cs)
);
}
);
width = 575;
},
{
associatedMasterId = "A14B1AE3-86D5-4EA7-AE2F-7B4FA04DAB2E";
layerId = "B30BAD2B-414C-4C65-9DC3-75FB651E5E82";
name = "Regular Feb 6 15, 10:36";
shapes = (
{
closed = 1;
nodes = (
(465,700,ls),
(397,700,o),
(356,673,o),
(343,620,cs),
(287.5,398.421,l),
(232,620,ls),
(219,673,o),
(178,700,o),
(110,700,cs),
(77,700,ls),
(59,700,o),
(50,696,o),
(50,680,cs),
(50,26,ls),
(50,11,o),
(61,0,o),
(76,0,cs),
(110,0,ls),
(125,0,o),
(135,11,o),
(135,26,cs),
(135,643,l),
(145,642,o),
(152,636,o),
(154,627,cs),
(249.377,246.216,l),
(325.623,246.216,l),
(421,627,ls),
(423,636,o),
(430,642,o),
(440,643,c),
(440,26,ls),
(440,11,o),
(450,0,o),
(465,0,cs),
(499,0,ls),
(514,0,o),
(525,11,o),
(525,26,cs),
(525,680,ls),
(525,696,o),
(516,700,o),
(498,700,cs)
);
}
);
width = 575;
},
{
associatedMasterId = "A14B1AE3-86D5-4EA7-AE2F-7B4FA04DAB2E";
layerId = "0AD06BAF-C611-4CEA-BEF3-3A0EDE20C261";
name = "Regular Feb 11 15, 21:00";
shapes = (
{
closed = 1;
nodes = (
(380,700,o),
(342,673,o),
(333,620,cs),
(289,358,l),
(242,620,ls),
(232,673,o),
(194,700,o),
(130,700,cs),
(94,700,ls),
(78,700,o),
(69,692,o),
(68,676,cs),
(23,26,ls),
(22,9,o),
(30,0,o),
(46,0,cs),
(86,0,ls),
(102,0,o),
(111,8,o),
(112,24,cs),
(145,643,l),
(155,642,o),
(162,637,o),
(164,627,cs),
(244,258,ls),
(247,243,o),
(256,236,o),
(271,236,cs),
(304,236,ls),
(319,236,o),
(328,243,o),
(331,258,cs),
(411,627,ls),
(413,637,o),
(420,642,o),
(430,643,c),
(463,24,ls),
(464,8,o),
(473,0,o),
(489,0,cs),
(529,0,ls),
(545,0,o),
(553,9,o),
(552,26,cs),
(507,676,ls),
(506,692,o),
(497,700,o),
(481,700,cs),
(445,700,ls)
);
}
);
width = 575;
},
{
associatedMasterId = "A14B1AE3-86D5-4EA7-AE2F-7B4FA04DAB2E";
layerId = "A4899836-4005-496A-9CF3-9FFB2CD77A27";
name = "Regular Feb 23 15, 17:40";
shapes = (
{
closed = 1;
nodes = (
(438,700,ls),
(366,700,o),
(339,670,o),
(331,610,cs),
(305,412,ls),
(304,404,o),
(298,400,o),
(288,400,cs),
(278,400,o),
(272,404,o),
(271,412,cs),
(245,610,ls),
(237,670,o),
(210,700,o),
(138,700,cs),
(80,700,ls),
(62,700,o),
(53,696,o),
(53,680,cs),
(53,26,ls),
(53,11,o),
(64,0,o),
(79,0,cs),
(113,0,ls),
(128,0,o),
(138,11,o),
(138,26,cs),
(138,643,l),
(158,641,o),
(170,632,o),
(172,617,cs),
(201,402,ls),
(208,347,o),
(234,325,o),
(288,325,cs),
(342,325,o),
(368,347,o),
(375,402,cs),
(404,617,ls),
(406,632,o),
(418,641,o),
(438,643,c),
(438,26,ls),
(438,11,o),
(448,0,o),
(463,0,cs),
(497,0,ls),
(512,0,o),
(523,11,o),
(523,26,cs),
(523,680,ls),
(523,696,o),
(514,700,o),
(496,700,cs)
);
}
);
width = 575;
}
);
unicode = 77;
},
{
glyphname = N;
lastChange = "2019-04-26 18:58:37 +0000";
layers = (
{
background = {
shapes = (
{
closed = 1;
nodes = (
(262,380,l),
(109,687,ls),
(103,700,o),
(93,705,o),
(79,705,cs),
(78,705,ls),
(60,705,o),
(51,696,o),
(51,680,cs),
(51,26,ls),
(51,11,o),
(62,0,o),
(77,0,cs),
(111,0,ls),
(126,0,o),
(136,11,o),
(136,26,cs),
(136,275,o),
(134,401,o),
(131,475,c),
(194,350,l)
);
},
{
closed = 1;
nodes = (
(299,121,l),
(373,158,l),
(262,380,l),
(188,343,l)
);
}
);
};
hints = (
{
horizontal = 1;
place = (21.5, -21.5);
place = (21.5, -21.5);
type = Stem;
},
{
horizontal = 1;
place = (699.99, -20.48);
place = (699.99, -20.48);
type = Stem;
},
{
origin = (0,13);
target = (0,20);
type = Stem;
},
{
origin = (0,4);
target = (0,29);
type = Stem;
},
{
horizontal = 1;
options = 4;
origin = (0,16);
type = TTSnap;
},
{
horizontal = 1;
options = 4;
origin = (0,9);
type = TTSnap;
}
);
layerId = "A14B1AE3-86D5-4EA7-AE2F-7B4FA04DAB2E";
shapes = (
{
closed = 1;
nodes = (
(446,700,ls),
(431,700,o),
(421,689,o),
(421,674,cs),
(421,169,l),
(171,669,ls),
(159,694,o),
(140,700,o),
(112,700,cs),
(96,700,ls),
(78,700,o),
(69,691,o),
(69,675,cs),
(69,26,ls),
(69,11,o),
(80,0,o),
(95,0,cs),
(129,0,ls),
(144,0,o),
(154,11,o),
(154,26,cs),
(154,527,l),
(404,36,ls),
(417,11,o),
(435,0,o),
(463,0,cs),
(479,0,ls),
(497,0,o),
(506,9,o),
(506,25,cs),
(506,674,ls),
(506,689,o),
(495,700,o),
(480,700,cs)
);
}
);
width = 575;
},
{
anchors = (
{
name = bottom;
pos = (288,0);
},
{
name = top;
pos = (288,700);
}
);
hints = (
{
horizontal = 1;
origin = (0,8);
type = TTSnap;
},
{
horizontal = 1;
origin = (0,17);
type = TTSnap;
}
);
layerId = "FB732A47-0020-4E5B-B7FA-72B1D79E8828";
shapes = (
{
closed = 1;
nodes = (
(446,725,ls),
(426,725,o),
(411,710,o),
(411,689,cs),
(411,201,l),
(180,683,ls),
(166,711,o),
(144,725,o),
(112,725,cs),
(96,725,ls),
(73,725,o),
(59,712,o),
(59,690,cs),
(59,36,ls),
(59,16,o),
(75,0,o),
(95,0,cs),
(129,0,ls),
(149,0,o),
(164,15,o),
(164,36,cs),
(164,515,l),
(395,41,ls),
(409,13,o),
(432,0,o),
(463,0,cs),
(479,0,ls),
(502,0,o),
(516,13,o),
(516,35,cs),
(516,689,ls),
(516,709,o),
(500,725,o),
(480,725,cs)
);
}
);
width = 575;
},
{
anchors = (
{
name = bottom;
pos = (288,0);
},
{
name = top;
pos = (288,700);
}
);
associatedMasterId = "A14B1AE3-86D5-4EA7-AE2F-7B4FA04DAB2E";
hints = (
{
place = (0, 0);
place = (0, 0);
type = Stem;
},
{
place = (0, 0);
place = (0, 0);
type = Stem;
},
{
horizontal = 1;
place = (0, 0);
place = (0, 0);
type = Stem;
},
{
horizontal = 1;
place = (0, 0);
place = (0, 0);
type = Stem;
}
);
layerId = "F0EBB4F6-73C6-4D6A-BC8F-F61F7E337B55";
name = "Regular Dec 27 13, 23:18";
shapes = (
{
closed = 1;
nodes = (
(447,700,ls),
(431,700,o),
(422,691,o),
(422,675,cs),
(422,497,o),
(423,330,o),
(427,166,c),
(160,658,l),
(142,691,o),
(130,705,o),
(88,705,cs),
(75,705,o),
(68,697,o),
(68,680,cs),
(68,25,ls),
(68,9,o),
(77,0,o),
(93,0,cs),
(128,0,ls),
(144,0,o),
(153,9,o),
(153,25,cs),
(153,199,o),
(152,362,o),
(149,522,c),
(415,30,l),
(433,-2,o),
(447,-5,o),
(487,-5,cs),
(500,-5,o),
(507,4,o),
(507,20,cs),
(507,675,ls),
(507,691,o),
(499,700,o),
(482,700,cs)
);
}
);
width = 575;
},
{
anchors = (
{
name = bottom;
pos = (288,0);
},
{
name = top;
pos = (288,700);
}
);
associatedMasterId = "A14B1AE3-86D5-4EA7-AE2F-7B4FA04DAB2E";
hints = (
{
horizontal = 1;
place = (0, 0);
place = (0, 0);
type = Stem;
},
{
horizontal = 1;
place = (0, 0);
place = (0, 0);
type = Stem;
}
);
layerId = "67F167FA-5880-4C8B-BA68-0A5BF5460C80";
name = "Regular Jan 6 14, 22:39";
shapes = (
{
closed = 1;
nodes = (
(434,700,ls),
(418,700,o),
(409,693,o),
(409,680,cs),
(409,521,o),
(415,342,o),
(424,176,c),
(178,669,ls),
(166,692,o),
(149,705,o),
(131,705,cs),
(108,705,ls),
(90,705,o),
(81,696,o),
(81,680,cs),
(81,25,ls),
(81,9,o),
(90,0,o),
(106,0,cs),
(141,0,ls),
(157,0,o),
(166,7,o),
(166,20,cs),
(166,235,o),
(163,414,o),
(156,525,c),
(398,32,l),
(408,8,o),
(426,-5,o),
(444,-5,cs),
(468,-5,ls),
(485,-5,o),
(494,4,o),
(494,20,cs),
(494,675,ls),
(494,691,o),
(486,700,o),
(469,700,cs)
);
}
);
width = 575;
},
{
anchors = (
{
name = bottom;
pos = (288,0);
},
{
name = top;
pos = (288,700);
}
);
associatedMasterId = "FB732A47-0020-4E5B-B7FA-72B1D79E8828";
layerId = "4CAC610D-985A-4C82-87C5-939BAFE27CC4";
name = "Bold Aug 24 14, 22:51";
shapes = (
{
closed = 1;
nodes = (
(507,675,ls),
(507,691,o),
(499,700,o),
(482,700,cs),
(397,700,ls),
(381,700,o),
(372,691,o),
(372,675,cs),
(372,443,o),
(374,323,o),
(377,266,c),
(160,658,ls),
(142,692,o),
(130,705,o),
(88,705,cs),
(75,705,o),
(68,697,o),
(68,680,cs),
(68,25,ls),
(68,9,o),
(77,0,o),
(93,0,cs),
(178,0,ls),
(194,0,o),
(203,9,o),
(203,25,cs),
(203,291,o),
(202,352,o),
(199,422,c),
(415,30,ls),
(433,-2,o),
(447,-5,o),
(487,-5,cs),
(500,-5,o),
(507,4,o),
(507,20,cs)
);
}
);
width = 575;
},
{
layerId = "8A9476DE-11F4-4864-A7B4-14D9B7165FAE";
shapes = (
{
closed = 1;
nodes = (
(518,705,ls),
(503,705,o),
(491,694,o),
(489,679,cs),
(408,169,l),
(237,669,ls),
(229,694,o),
(212,705,o),
(184,705,cs),
(168,705,ls),
(150,705,o),
(140,696,o),
(137,680,cs),
(34,26,ls),
(31,11,o),
(40,0,o),
(55,0,cs),
(89,0,ls),
(104,0,o),
(116,11,o),
(119,26,cs),
(198,527,l),
(370,36,ls),
(379,11,o),
(395,0,o),
(423,0,cs),
(439,0,ls),
(457,0,o),
(468,9,o),
(470,25,cs),
(574,679,ls),
(576,694,o),
(567,705,o),
(552,705,cs)
);
}
);
width = 575;
},
{
layerId = "C492240F-DFB2-48B7-8D1C-81E7E6E3599E";
shapes = (
{
closed = 1;
nodes = (
(520,725,ls),
(500,725,o),
(482,710,o),
(479,689,cs),
(402,201,l),
(247,683,ls),
(237,711,o),
(218,725,o),
(186,725,cs),
(170,725,ls),
(147,725,o),
(131,712,o),
(127,690,cs),
(24,36,ls),
(20,16,o),
(34,0,o),
(54,0,cs),
(88,0,ls),
(108,0,o),
(125,15,o),
(129,36,cs),
(204,515,l),
(360,41,ls),
(370,13,o),
(391,0,o),
(422,0,cs),
(438,0,ls),
(461,0,o),
(477,13,o),
(480,35,cs),
(584,689,ls),
(587,709,o),
(574,725,o),
(554,725,cs)
);
}
);
width = 575;
},
{
anchors = (
{
name = bottom;
pos = (288,0);
},
{
name = top;
pos = (288,700);
}
);
associatedMasterId = "A14B1AE3-86D5-4EA7-AE2F-7B4FA04DAB2E";
background = {
shapes = (
{
closed = 1;
nodes = (
(262,380,l),
(109,687,ls),
(103,700,o),
(93,705,o),
(79,705,cs),
(78,705,ls),
(60,705,o),
(51,696,o),
(51,680,cs),
(51,26,ls),
(51,11,o),
(62,0,o),
(77,0,cs),
(111,0,ls),
(126,0,o),
(136,11,o),
(136,26,cs),
(136,275,o),
(134,401,o),
(131,475,c),
(194,350,l)
);
},
{
closed = 1;
nodes = (
(299,121,l),
(373,158,l),
(262,380,l),
(188,343,l)
);
}
);
};
hints = (
{
horizontal = 1;
origin = (0,11);
target = down;
type = TopGhost;
},
{
horizontal = 1;
origin = (0,19);
target = up;
type = BottomGhost;
},
{
origin = (0,15);
target = (0,22);
type = Stem;
},
{
origin = (0,3);
target = (0,34);
type = Stem;
}
);
layerId = "507F80E5-A4DE-4B16-B13A-DA2F8D7CD793";
name = "Regular Jan 31 15, 16:21";
shapes = (
{
closed = 1;
nodes = (
(451,700,ls),
(436,700,o),
(425,690,o),
(425,675,cs),
(425,435.347,o),
(427.454,241.493,o),
(430.881,156.308,c),
(166,687,ls),
(160,700,o),
(150,705,o),
(136,705,cs),
(92,705,ls),
(74,705,o),
(65,696,o),
(65,680,cs),
(65,26,ls),
(65,11,o),
(76,0,o),
(91,0,cs),
(125,0,ls),
(140,0,o),
(150,11,o),
(150,26,cs),
(150,250.393,o),
(148.237,424.539,o),
(143.883,544.303,c),
(410,13,ls),
(416,1,o),
(425,-5,o),
(439,-5,cs),
(484,-5,ls),
(501,-5,o),
(510,4,o),
(510,20,cs),
(510,675,ls),
(510,690,o),
(500,700,o),
(485,700,cs)
);
}
);
width = 575;
},
{
associatedMasterId = "A14B1AE3-86D5-4EA7-AE2F-7B4FA04DAB2E";
background = {
shapes = (
{
closed = 1;
nodes = (
(262,380,l),
(109,687,ls),
(103,700,o),
(93,705,o),
(79,705,cs),
(78,705,ls),
(60,705,o),
(51,696,o),
(51,680,cs),
(51,26,ls),
(51,11,o),
(62,0,o),
(77,0,cs),
(111,0,ls),
(126,0,o),
(136,11,o),
(136,26,cs),
(136,275,o),
(134,401,o),
(131,475,c),
(194,350,l)
);
},
{
closed = 1;
nodes = (
(299,121,l),
(373,158,l),
(262,380,l),
(188,343,l)
);
}
);
};
hints = (
{
horizontal = 1;
place = (705, -20);
target = down;
type = TopGhost;
},
{
horizontal = 1;
place = (0, 21);
target = up;
type = BottomGhost;
}
);
layerId = "1C087210-05CC-4AAB-BE68-E2418F99B060";
name = "Regular Feb 2 15, 09:16";
shapes = (
{
closed = 1;
nodes = (
(449,704,ls),
(434,704,o),
(424,693,o),
(424,678,cs),
(424,83,ls),
(424,67,o),
(419,59,o),
(414,59,cs),
(409,59,o),
(403,66,o),
(399,81,cs),
(260,636,ls),
(248,683,o),
(205,706,o),
(163,706,cs),
(115,706,o),
(68,676,o),
(68,616,cs),
(68,26,ls),
(68,11,o),
(79,0,o),
(94,0,cs),
(128,0,ls),
(143,0,o),
(153,11,o),
(153,26,cs),
(153,617,ls),
(153,633,o),
(158,641,o),
(163,641,cs),
(168,641,o),
(174,634,o),
(178,619,cs),
(317,64,ls),
(329,17,o),
(372,-6,o),
(414,-6,cs),
(462,-6,o),
(509,24,o),
(509,84,cs),
(509,678,ls),
(509,693,o),
(498,704,o),
(483,704,cs)
);
}
);
width = 575;
},
{
associatedMasterId = "A14B1AE3-86D5-4EA7-AE2F-7B4FA04DAB2E";
background = {
shapes = (
{
closed = 1;
nodes = (
(262,380,l),
(109,687,ls),
(103,700,o),
(93,705,o),
(79,705,cs),
(78,705,ls),
(60,705,o),
(51,696,o),
(51,680,cs),
(51,26,ls),
(51,11,o),
(62,0,o),
(77,0,cs),
(111,0,ls),
(126,0,o),
(136,11,o),
(136,26,cs),
(136,275,o),
(134,401,o),
(131,475,c),
(194,350,l)
);
},
{
closed = 1;
nodes = (
(299,121,l),
(373,158,l),
(262,380,l),
(188,343,l)
);
}
);
};
hints = (
{
horizontal = 1;
place = (705, -20);
target = down;
type = TopGhost;
},
{
horizontal = 1;
place = (0, 21);
target = up;
type = BottomGhost;
}
);
layerId = "09553BCB-41CE-4D1B-8811-D9B2AE168AC0";
name = "Regular Feb 5 15, 12:02";
shapes = (
{
closed = 1;
nodes = (
(451,700,ls),
(436,700,o),
(425,690,o),
(425,675,cs),
(425,435.347,o),
(427.454,241.493,o),
(430.881,156.308,c),
(166,687,ls),
(160,700,o),
(150,705,o),
(136,705,cs),
(92,705,ls),
(74,705,o),
(65,696,o),
(65,680,cs),
(65,26,ls),
(65,11,o),
(76,0,o),
(91,0,cs),
(125,0,ls),
(140,0,o),
(150,11,o),
(150,26,cs),
(150,250.393,o),
(148.237,424.539,o),
(143.883,544.303,c),
(410,13,ls),
(416,1,o),
(425,-5,o),
(439,-5,cs),
(484,-5,ls),
(501,-5,o),
(510,4,o),
(510,20,cs),
(510,675,ls),
(510,690,o),
(500,700,o),
(485,700,cs)
);
}
);
width = 575;
},
{
associatedMasterId = "A14B1AE3-86D5-4EA7-AE2F-7B4FA04DAB2E";
background = {
shapes = (
{
closed = 1;
nodes = (
(262,380,l),
(109,687,ls),
(103,700,o),
(93,705,o),
(79,705,cs),
(78,705,ls),
(60,705,o),
(51,696,o),
(51,680,cs),
(51,26,ls),
(51,11,o),
(62,0,o),
(77,0,cs),
(111,0,ls),
(126,0,o),
(136,11,o),
(136,26,cs),
(136,275,o),
(134,401,o),
(131,475,c),
(194,350,l)
);
},
{
closed = 1;
nodes = (
(299,121,l),
(373,158,l),
(262,380,l),
(188,343,l)
);
}
);
};
hints = (
{
horizontal = 1;
place = (705, -20);
target = down;
type = TopGhost;
},
{
horizontal = 1;
place = (0, 21);
target = up;
type = BottomGhost;
}
);
layerId = "00E36F9D-9C43-40A3-BA78-9F11A0AD36F8";
name = "Regular Jun 9 15, 16:51";
shapes = (
{
closed = 1;
nodes = (
(457,700,ls),
(442,700,o),
(432,689,o),
(432,674,cs),
(432,57,l),
(414,59,o),
(402,67,o),
(398,83,cs),
(266,610,ls),
(252,667,o),
(208,700,o),
(144,700,cs),
(86,700,ls),
(68,700,o),
(59,696,o),
(59,680,cs),
(59,26,ls),
(59,11,o),
(70,0,o),
(85,0,cs),
(119,0,ls),
(134,0,o),
(144,11,o),
(144,26,cs),
(144,643,l),
(162,641,o),
(174,633,o),
(178,617,cs),
(310,90,ls),
(324,33,o),
(368,0,o),
(432,0,cs),
(490,0,ls),
(508,0,o),
(517,4,o),
(517,20,cs),
(517,674,ls),
(517,689,o),
(506,700,o),
(491,700,cs)
);
}
);
width = 575;
}
);
unicode = 78;
},
{
glyphname = O;
lastChange = "2016-06-09 18:35:33 +0000";
layers = (
{
anchors = (
{
name = top;
pos = (288,700);
}
);
hints = (
{
horizontal = 1;
options = 4;
origin = (0,6);
target = (1,13);
type = TTStem;
},
{
horizontal = 1;
options = 4;
origin = (0,13);
target = (1,6);
type = TTStem;
},
{
horizontal = 1;
origin = (0,6);
target = (1,13);
type = Stem;
},
{
horizontal = 1;
origin = (0,13);
target = (1,6);
type = Stem;
},
{
origin = (0,3);
target = (1,2);
type = Stem;
},
{
origin = (1,10);
target = (0,9);
type = Stem;
},
{
horizontal = 1;
origin = (0,6);
target = (1,13);
type = TTStem;
},
{
horizontal = 1;
origin = (0,13);
target = (1,6);
type = TTStem;
}
);
layerId = "A14B1AE3-86D5-4EA7-AE2F-7B4FA04DAB2E";
shapes = (
{
closed = 1;
nodes = (
(170,710,o),
(85,624,o),
(85,457,cs),
(85,243,ls),
(85,76,o),
(170,-10,o),
(288,-10,cs),
(406,-10,o),
(490,78,o),
(490,243,cs),
(490,457,ls),
(490,622,o),
(406,710,o),
(288,710,cs)
);
},
{
closed = 1;
nodes = (
(223,66,o),
(170,131,o),
(170,243,cs),
(170,457,ls),
(170,569,o),
(223,634,o),
(288,634,cs),
(353,634,o),
(405,569,o),
(405,457,cs),
(405,243,ls),
(405,131,o),
(353,66,o),
(288,66,cs)
);
}
);
width = 575;
},
{
anchors = (
{
name = top;
pos = (288,700);
}
);
hints = (
{
horizontal = 1;
origin = (0,3);
target = (1,3);
type = TTStem;
},
{
horizontal = 1;
origin = (0,10);
target = (1,10);
type = TTStem;
}
);
layerId = "FB732A47-0020-4E5B-B7FA-72B1D79E8828";
shapes = (
{
closed = 1;
nodes = (
(75,253,l),
(75,106,o),
(138,-10,o),
(288,-10,c),
(435,-10,o),
(500,104,o),
(500,253,c),
(500,467,l),
(500,615,o),
(437,730,o),
(288,730,c),
(140,730,o),
(75,617,o),
(75,467,c)
);
},
{
closed = 1;
nodes = (
(395,253,l),
(395,163,o),
(372,87,o),
(288,87,c),
(203,87,o),
(180,163,o),
(180,253,c),
(180,467,l),
(180,557,o),
(203,634,o),
(288,634,c),
(372,634,o),
(395,558,o),
(395,467,c)
);
}
);
width = 575;
},
{
layerId = "8A9476DE-11F4-4864-A7B4-14D9B7165FAE";
shapes = (
{
closed = 1;
nodes = (
(238,710,o),
(144,624,o),
(118,457,cs),
(84,246,o),
(77,214,o),
(79,162,cs),
(84,48,o),
(155,-10,o),
(252,-10,cs),
(370,-10,o),
(463,78,o),
(489,243,cs),
(522,456,o),
(528,480,o),
(528,519,cs),
(528,644,o),
(458,710,o),
(356,710,cs)
);
},
{
closed = 1;
nodes = (
(214,66,o),
(173,104,o),
(166,172,cs),
(162,215,o),
(168,237,o),
(203,457,cs),
(221,569,o),
(279,634,o),
(344,634,cs),
(399,634,o),
(442,587,o),
(442,503,cs),
(442,475,o),
(436,443,o),
(404,243,cs),
(386,131,o),
(329,66,o),
(264,66,cs)
);
}
);
width = 575;
},
{
layerId = "C492240F-DFB2-48B7-8D1C-81E7E6E3599E";
shapes = (
{
closed = 1;
nodes = (
(230,730,o),
(134,630,o),
(108,467,cs),
(74,253,ls),
(48,90,o),
(113,-10,o),
(245,-10,cs),
(376,-10,o),
(473,91,o),
(499,253,cs),
(533,467,ls),
(558,629,o),
(493,730,o),
(362,730,cs)
);
},
{
closed = 1;
nodes = (
(196,86,o),
(163,153,o),
(179,253,cs),
(213,467,ls),
(229,567,o),
(283,634,o),
(347,634,cs),
(410,634,o),
(444,567,o),
(428,467,cs),
(394,253,ls),
(378,153,o),
(323,86,o),
(260,86,cs)
);
}
);
width = 575;
}
);
unicode = 79;
},
{
glyphname = Oslash;
lastChange = "2016-06-09 18:35:33 +0000";
layers = (
{
anchors = (
{
name = top;
pos = (288,700);
}
);
hints = (
{
horizontal = 1;
options = 4;
origin = (0,26);
target = (2,3);
type = TTStem;
},
{
horizontal = 1;
options = 4;
origin = (0,7);
target = (1,3);
type = TTStem;
},
{
horizontal = 1;
origin = (0,26);
target = (2,3);
type = Stem;
},
{
horizontal = 1;
origin = (0,7);
target = (1,3);
type = Stem;
},
{
origin = (0,11);
target = (1,10);
type = Stem;
},
{
origin = (2,0);
target = (0,29);
type = Stem;
},
{
horizontal = 1;
origin = (0,26);
target = (2,3);
type = TTStem;
},
{
horizontal = 1;
origin = (0,7);
target = (1,3);
type = TTStem;
},
{
horizontal = 1;
place = (90, 0);
place = (90, 0);
type = Stem;
},
{
horizontal = 1;
place = (90, 0);
place = (90, 0);
type = Stem;
}
);
layerId = "A14B1AE3-86D5-4EA7-AE2F-7B4FA04DAB2E";
shapes = (
{
closed = 1;
nodes = (
(488,783,ls),
(474,790,o),
(462,786,o),
(455,772,cs),
(405,672,l),
(373,697,o),
(333,710,o),
(288,710,cs),
(170,710,o),
(85,624,o),
(85,457,cs),
(85,243,ls),
(85,183,o),
(96,133,o),
(116,94,c),
(42,-54,ls),
(35,-68,o),
(39,-80,o),
(53,-87,cs),
(85,-103,ls),
(99,-110,o),
(111,-106,o),
(118,-92,cs),
(176,23,l),
(207,1,o),
(245,-10,o),
(288,-10,cs),
(406,-10,o),
(490,78,o),
(490,243,cs),
(490,457,ls),
(490,513,o),
(480,560,o),
(463,598,c),
(531,734,ls),
(538,748,o),
(534,760,o),
(520,767,cs)
);
},
{
closed = 1;
nodes = (
(170,457,ls),
(170,569,o),
(223,634,o),
(288,634,cs),
(318,634,o),
(345,620,o),
(366,594,c),
(172,206,l),
(171,218,o),
(170,230,o),
(170,243,cs)
);
},
{
closed = 1;
nodes = (
(405,243,ls),
(405,131,o),
(353,66,o),
(288,66,cs),
(260,66,o),
(234,78,o),
(214,100,c),
(404,480,l),
(405,473,o),
(405,465,o),
(405,457,cs)
);
}
);
width = 575;
},
{
layerId = "FB732A47-0020-4E5B-B7FA-72B1D79E8828";
shapes = (
{
ref = O;
},
{
pos = (0,90);
ref = slash;
}
);
width = 575;
},
{
layerId = "8A9476DE-11F4-4864-A7B4-14D9B7165FAE";
shapes = (
{
ref = O;
},
{
pos = (0,90);
ref = slash;
}
);
width = 575;
},
{
layerId = "C492240F-DFB2-48B7-8D1C-81E7E6E3599E";
shapes = (
{
ref = O;
},
{
pos = (0,90);
ref = slash;
}
);
width = 575;
}
);
unicode = 216;
},
{
glyphname = OE;
lastChange = "2016-06-09 18:35:33 +0000";
layers = (
{
hints = (
{
horizontal = 1;
origin = (0,20);
target = (1,7);
type = TTShift;
},
{
horizontal = 1;
origin = (0,27);
target = (1,0);
type = TTShift;
},
{
horizontal = 1;
origin = (0,1);
target = (0,10);
type = TTShift;
}
);
layerId = "A14B1AE3-86D5-4EA7-AE2F-7B4FA04DAB2E";
shapes = (
{
closed = 1;
nodes = (
(373,77,l),
(373,326,l),
(475,326,ls),
(491,326,o),
(500,335,o),
(500,351,cs),
(500,378,ls),
(500,394,o),
(491,403,o),
(475,403,cs),
(373,403,l),
(373,624,l),
(482,624,ls),
(498,624,o),
(507,632,o),
(507,649,cs),
(507,675,ls),
(507,692,o),
(498,700,o),
(482,700,cs),
(288,700,ls),
(146,700,o),
(85,594,o),
(85,447,cs),
(85,253,ls),
(85,109,o),
(144,0,o),
(288,0,cs),
(493,0,ls),
(510,0,o),
(518,9,o),
(518,25,cs),
(518,52,ls),
(518,68,o),
(510,77,o),
(493,77,cs)
);
},
{
closed = 1;
nodes = (
(288,77,l),
(196,77,o),
(170,161,o),
(170,253,cs),
(170,447,ls),
(170,539,o),
(196,624,o),
(288,624,c)
);
}
);
width = 575;
},
{
hints = (
{
horizontal = 1;
place = (0, 9699);
place = (0, 9699);
type = Stem;
},
{
horizontal = 1;
origin = (0,1);
target = (0,10);
type = TTStem;
},
{
horizontal = 1;
origin = (0,20);
target = (1,7);
type = TTStem;
},
{
horizontal = 1;
origin = (0,27);
target = (0,0);
type = TTShift;
}
);
layerId = "FB732A47-0020-4E5B-B7FA-72B1D79E8828";
shapes = (
{
closed = 1;
nodes = (
(383,97,l),
(383,326,l),
(475,326,l),
(495.142,326,o),
(510,340.858,o),
(510,361,c),
(510,388,l),
(510,408.142,o),
(495.142,423,o),
(475,423,c),
(383,423,l),
(383,624,l),
(482,624,l),
(501.802,624,o),
(517,637.509,o),
(517,659,c),
(517,685,l),
(517,706.491,o),
(501.802,720,o),
(482,720,c),
(288,720,l),
(140.217,720,o),
(75,606.672,o),
(75,457,c),
(75,263,l),
(75,116.467,o),
(138.042,0,o),
(288,0,c),
(493,0,l),
(514.491,0,o),
(528,15.198,o),
(528,35,c),
(528,62,l),
(528,81.802,o),
(514.491,97,o),
(493,97,c)
);
},
{
closed = 1;
nodes = (
(278,97.369,l),
(201.557,103.158,o),
(180,176.228,o),
(180,263,c),
(180,457,l),
(180,543.788,o),
(201.58,617.761,o),
(278,623.626,c)
);
}
);
width = 575;
},
{
layerId = "8A9476DE-11F4-4864-A7B4-14D9B7165FAE";
shapes = (
{
closed = 1;
nodes = (
(346,77,l),
(385,326,l),
(487,326,ls),
(503,326,o),
(513,335,o),
(516,351,cs),
(520,378,ls),
(523,394,o),
(515,403,o),
(499,403,cs),
(397,403,l),
(432,624,l),
(541,624,ls),
(557,624,o),
(568,632,o),
(570,649,cs),
(574,675,ls),
(577,692,o),
(569,700,o),
(553,700,cs),
(359,700,ls),
(217,700,o),
(139,594,o),
(116,447,cs),
(85,256,o),
(79,223,o),
(79,185,cs),
(79,76,o),
(128,0,o),
(248,0,cs),
(453,0,ls),
(470,0,o),
(480,9,o),
(482,25,cs),
(487,52,ls),
(489,68,o),
(483,77,o),
(466,77,cs)
);
},
{
closed = 1;
nodes = (
(261,77,l),
(189,77,o),
(165,129,o),
(165,196,cs),
(165,227,o),
(169,248,o),
(201,447,cs),
(216,539,o),
(255,624,o),
(347,624,c)
);
}
);
width = 575;
},
{
layerId = "C492240F-DFB2-48B7-8D1C-81E7E6E3599E";
shapes = (
{
closed = 1;
nodes = (
(359,97,l),
(395,326,l),
(487,326,l),
(507,326,o),
(524,341,o),
(528,361,c),
(532,388,l),
(535,408,o),
(523,423,o),
(502,423,c),
(410,423,l),
(442,624,l),
(541,624,l),
(561,624,o),
(578,638,o),
(582,659,c),
(586,685,l),
(589,706,o),
(576,720,o),
(556,720,c),
(362,720,l),
(215,720,o),
(131,607,o),
(108,457,c),
(77,265,o),
(71,233,o),
(71,194,cs),
(71,81,o),
(123,0,o),
(248,0,c),
(453,0,l),
(475,0,o),
(491,15,o),
(494,35,c),
(498,62,l),
(501,82,o),
(490,97,o),
(469,97,c)
);
},
{
closed = 1;
nodes = (
(254,97,l),
(196,102,o),
(177,145,o),
(177,203,cs),
(177,238,o),
(181,256,o),
(213,457,c),
(227,544,o),
(260,618,o),
(337,624,c)
);
}
);
width = 575;
}
);
unicode = 338;
},
{
glyphname = P;
lastChange = "2016-06-09 18:35:33 +0000";
layers = (
{
hints = (
{
horizontal = 1;
origin = (0,8);
target = up;
type = BottomGhost;
},
{
horizontal = 1;
origin = (0,12);
target = (1,0);
type = Stem;
},
{
horizontal = 1;
origin = (0,19);
target = (1,2);
type = Stem;
},
{
origin = (1,5);
target = (0,16);
type = Stem;
},
{
origin = (0,4);
target = (0,11);
type = Stem;
},
{
horizontal = 1;
place = (21.5, -21.5);
place = (21.5, -21.5);
type = Stem;
},
{
horizontal = 1;
origin = (0,12);
target = (1,0);
type = TTStem;
},
{
horizontal = 1;
origin = (0,0);
target = (1,1);
type = TTStem;
},
{
horizontal = 1;
origin = (0,8);
type = TTSnap;
}
);
layerId = "A14B1AE3-86D5-4EA7-AE2F-7B4FA04DAB2E";
shapes = (
{
closed = 1;
nodes = (
(110,700,ls),
(94,700,o),
(85,691,o),
(85,675,cs),
(85,25,ls),
(85,9,o),
(94,0,o),
(110,0,cs),
(145,0,ls),
(162,0,o),
(170,9,o),
(170,25,cs),
(170,260,l),
(245,260,ls),
(425,260,o),
(517,361,o),
(517,480,cs),
(517,596,o),
(427,700,o),
(245,700,cs)
);
},
{
closed = 1;
nodes = (
(170,336,l),
(170,624,l),
(245,624,ls),
(372,624,o),
(432,556,o),
(432,480,cs),
(432,404,o),
(373,336,o),
(245,336,cs)
);
}
);
width = 575;
},
{
hints = (
{
horizontal = 1;
place = (21.5, -21.5);
place = (21.5, -21.5);
type = Stem;
},
{
horizontal = 1;
origin = (0,12);
target = (1,0);
type = TTStem;
},
{
horizontal = 1;
origin = (0,0);
target = (1,1);
type = TTStem;
},
{
horizontal = 1;
origin = (0,8);
type = TTSnap;
}
);
layerId = "FB732A47-0020-4E5B-B7FA-72B1D79E8828";
shapes = (
{
closed = 1;
nodes = (
(110,720,ls),
(89,720,o),
(75,706,o),
(75,685,cs),
(75,35,ls),
(75,14,o),
(89,0,o),
(110,0,cs),
(145,0,ls),
(167,0,o),
(180,13,o),
(180,35,cs),
(180,260,l),
(245,260,ls),
(415,260,o),
(527,352,o),
(527,490,cs),
(527,627,o),
(414,720,o),
(245,720,cs)
);
},
{
closed = 1;
nodes = (
(180,356,l),
(180,624,l),
(245,624,ls),
(353,624,o),
(422,571,o),
(422,490,cs),
(422,408,o),
(354,356,o),
(245,356,cs)
);
}
);
width = 575;
},
{
layerId = "8A9476DE-11F4-4864-A7B4-14D9B7165FAE";
shapes = (
{
closed = 1;
nodes = (
(181,700,ls),
(165,700,o),
(155,691,o),
(152,675,cs),
(49,25,ls),
(47,9,o),
(54,0,o),
(70,0,cs),
(105,0,ls),
(122,0,o),
(132,9,o),
(134,25,cs),
(172,260,l),
(247,260,ls),
(418,260,o),
(556,360,o),
(556,508,cs),
(556,616,o),
(480,700,o),
(316,700,cs)
);
},
{
closed = 1;
nodes = (
(184,336,l),
(229,624,l),
(304,624,ls),
(419,624,o),
(470,569,o),
(470,495,cs),
(470,402,o),
(379,336,o),
(259,336,cs)
);
}
);
width = 575;
},
{
layerId = "C492240F-DFB2-48B7-8D1C-81E7E6E3599E";
shapes = (
{
closed = 1;
nodes = (
(183,720,ls),
(162,720,o),
(146,706,o),
(142,685,cs),
(39,35,ls),
(36,14,o),
(48,0,o),
(69,0,cs),
(104,0,ls),
(126,0,o),
(141,13,o),
(144,35,cs),
(180,260,l),
(245,260,ls),
(421,260,o),
(566,364,o),
(566,520,cs),
(566,644,o),
(471,720,o),
(318,720,cs)
);
},
{
closed = 1;
nodes = (
(195,356,l),
(238,624,l),
(303,624,ls),
(401,624,o),
(460,580,o),
(460,504,cs),
(460,416,o),
(372,356,o),
(260,356,cs)
);
}
);
width = 575;
}
);
unicode = 80;
},
{
glyphname = Thorn;
lastChange = "2016-06-09 18:35:33 +0000";
layers = (
{
layerId = "FB732A47-0020-4E5B-B7FA-72B1D79E8828";
shapes = (
{
closed = 1;
nodes = (
(180,685,l),
(180,706.474,o),
(166.474,720,o),
(145,720,cs),
(110,720,ls),
(88.526,720,o),
(75,706.474,o),
(75,685,cs),
(75,35,ls),
(75,13.526,o),
(88.526,0,o),
(110,0,cs),
(145,0,ls),
(166.474,0,o),
(180,13.526,o),
(180,35,cs),
(180,124.956,l),
(213.368,121.828,o),
(240.809,121,o),
(259,121,cs),
(430.036,121,o),
(500,199.838,o),
(500,392,cs),
(500,583.238,o),
(429.84,662,o),
(259,662,cs),
(239.125,662,o),
(211.697,661.181,o),
(180,658.096,c)
);
},
{
closed = 1;
nodes = (
(180,562.694,l),
(214.411,565,o),
(242.456,565,o),
(259,565,cs),
(362.662,565,o),
(395,524.225,o),
(395,392,cs),
(395,259.091,o),
(362.594,218,o),
(259,218,cs),
(240.831,218,o),
(212.81,218.828,o),
(180,221.255,c)
);
}
);
width = 575;
},
{
hints = (
{
horizontal = 1;
place = (21.5, -21.5);
place = (21.5, -21.5);
type = Stem;
},
{
horizontal = 1;
origin = (0,19);
target = (1,9);
type = TTStem;
},
{
horizontal = 1;
origin = (1,3);
target = (0,25);
type = TTStem;
},
{
horizontal = 1;
place = (699.99, -20.48);
place = (699.99, -20.48);
type = Stem;
}
);
layerId = "A14B1AE3-86D5-4EA7-AE2F-7B4FA04DAB2E";
shapes = (
{
closed = 1;
nodes = (
(170,675,ls),
(170,691,o),
(161,700,o),
(145,700,cs),
(110,700,ls),
(94,700,o),
(85,691,o),
(85,675,cs),
(85,25,ls),
(85,9,o),
(94,0,o),
(110,0,cs),
(145,0,ls),
(161,0,o),
(170,9,o),
(170,25,cs),
(170,126,l),
(208,122,o),
(239,121,o),
(259,121,cs),
(426,121,o),
(490,197,o),
(490,382,cs),
(490,567,o),
(425,642,o),
(259,642,cs),
(237,642,o),
(206,641,o),
(170,637,c)
);
},
{
closed = 1;
nodes = (
(170,562,l),
(209,565,o),
(241,565,o),
(259,565,cs),
(373,565,o),
(405,514,o),
(405,382,cs),
(405,247,o),
(371,198,o),
(259,198,cs),
(239,198,o),
(207,199,o),
(170,202,c)
);
}
);
width = 575;
},
{
layerId = "8A9476DE-11F4-4864-A7B4-14D9B7165FAE";
shapes = (
{
closed = 1;
nodes = (
(237,675,ls),
(240,691,o),
(232,700,o),
(216,700,cs),
(181,700,ls),
(165,700,o),
(155,691,o),
(152,675,cs),
(49,25,ls),
(47,9,o),
(54,0,o),
(70,0,cs),
(105,0,ls),
(121,0,o),
(132,9,o),
(134,25,cs),
(150,126,l),
(188,122,o),
(219,121,o),
(239,121,cs),
(438,121,o),
(519,254,o),
(519,448,cs),
(519,590,o),
(459,642,o),
(321,642,cs),
(299,642,o),
(268,641,o),
(231,637,c)
);
},
{
closed = 1;
nodes = (
(219,562,l),
(259,565,o),
(291,565,o),
(309,565,cs),
(399,565,o),
(433,533,o),
(433,435,cs),
(433,298,o),
(387,198,o),
(251,198,cs),
(231,198,o),
(199,199,o),
(162,202,c)
);
}
);
width = 575;
},
{
layerId = "C492240F-DFB2-48B7-8D1C-81E7E6E3599E";
shapes = (
{
closed = 1;
nodes = (
(247,683,ls),
(251,705,o),
(239,720,o),
(216,720,cs),
(181,720,ls),
(161,720,o),
(146,708,o),
(142,687,cs),
(39,37,ls),
(36,14,o),
(48,0,o),
(70,0,cs),
(105,0,ls),
(126,0,o),
(141,13,o),
(144,34,cs),
(158,125,l),
(192,122,o),
(221,121,o),
(239,121,cs),
(428,121,o),
(529,239,o),
(529,458,cs),
(529,602,o),
(468,662,o),
(321,662,cs),
(301,662,o),
(275,661,o),
(243,658,c)
);
},
{
closed = 1;
nodes = (
(228,563,l),
(264,565,o),
(292,565,o),
(309,565,cs),
(395,565,o),
(423,536,o),
(423,445,cs),
(423,293,o),
(366,218,o),
(251,218,cs),
(233,218,o),
(206,219,o),
(174,221,c)
);
}
);
width = 575;
}
);
unicode = 222;
},
{
glyphname = Q;
lastChange = "2016-06-09 18:35:33 +0000";
layers = (
{
anchors = (
{
name = top;
pos = (288,700);
}
);
hints = (
{
horizontal = 1;
options = 4;
origin = (0,9);
target = (1,10);
type = TTStem;
},
{
horizontal = 1;
options = 4;
origin = (0,16);
target = (1,3);
type = TTStem;
},
{
horizontal = 1;
origin = (0,9);
target = (1,10);
type = Stem;
},
{
horizontal = 1;
origin = (0,16);
target = (1,3);
type = Stem;
},
{
origin = (0,20);
target = (1,13);
type = Stem;
},
{
origin = (1,7);
target = (0,12);
type = Stem;
},
{
horizontal = 1;
origin = (0,9);
target = (1,10);
type = TTStem;
},
{
horizontal = 1;
origin = (0,16);
target = (1,3);
type = TTStem;
}
);
layerId = "A14B1AE3-86D5-4EA7-AE2F-7B4FA04DAB2E";
shapes = (
{
closed = 1;
nodes = (
(535,-142,l),
(528,-127,o),
(517,-122,o),
(502,-128,cs),
(475,-138,o),
(452,-142,o),
(427,-142,cs),
(369,-142,o),
(331,-114,o),
(331,-6,c),
(426,13,o),
(490,99,o),
(490,243,cs),
(490,457,ls),
(490,622,o),
(406,710,o),
(288,710,cs),
(170,710,o),
(85,624,o),
(85,457,cs),
(85,243,ls),
(85,97,o),
(150,13,o),
(245,-6,c),
(245,-167,o),
(332,-220,o),
(427,-220,cs),
(462,-220,o),
(499,-212,o),
(532,-200,c),
(548,-195,o),
(552,-183,o),
(546,-168,cs)
);
},
{
closed = 1;
nodes = (
(170,457,ls),
(170,569,o),
(223,634,o),
(288,634,cs),
(353,634,o),
(405,569,o),
(405,457,cs),
(405,243,ls),
(405,131,o),
(353,66,o),
(288,66,cs),
(223,66,o),
(170,131,o),
(170,243,cs)
);
}
);
width = 575;
},
{
layerId = "FB732A47-0020-4E5B-B7FA-72B1D79E8828";
shapes = (
{
closed = 1;
nodes = (
(544,-128,ls),
(536,-109,o),
(517,-101,o),
(498,-109,c),
(472,-118,o),
(451,-122,o),
(427,-122,cs),
(374,-122,o),
(341,-97,o),
(341,4,cs),
(341,63,l),
(235,63,l),
(235,4,ls),
(235,-163,o),
(329,-220,o),
(427,-220,cs),
(463,-220,o),
(502,-212,o),
(535,-199,c),
(556,-193,o),
(563,-173,o),
(555,-154,cs)
);
},
{
ref = O;
}
);
width = 575;
},
{
layerId = "8A9476DE-11F4-4864-A7B4-14D9B7165FAE";
shapes = (
{
closed = 1;
nodes = (
(473,-142,l),
(468,-127,o),
(458,-122,o),
(442,-128,cs),
(414,-138,o),
(390,-142,o),
(365,-142,cs),
(307,-142,o),
(273,-114,o),
(290,-6,cs),
(298,43,l),
(212,43,l),
(204,-6,ls),
(179,-167,o),
(258,-220,o),
(353,-220,cs),
(388,-220,o),
(426,-212,o),
(461,-200,c),
(478,-195,o),
(483,-183,o),
(480,-168,c)
);
},
{
ref = O;
}
);
width = 575;
},
{
layerId = "C492240F-DFB2-48B7-8D1C-81E7E6E3599E";
shapes = (
{
closed = 1;
nodes = (
(484,-128,ls),
(479,-109,o),
(461,-101,o),
(441,-109,c),
(414,-118,o),
(392,-122,o),
(368,-122,cs),
(315,-122,o),
(286,-97,o),
(302,4,cs),
(311,63,l),
(205,63,l),
(196,4,ls),
(170,-163,o),
(255,-220,o),
(353,-220,cs),
(389,-220,o),
(429,-212,o),
(464,-199,c),
(486,-193,o),
(496,-173,o),
(491,-154,cs)
);
},
{
ref = O;
}
);
width = 575;
},
{
associatedMasterId = "A14B1AE3-86D5-4EA7-AE2F-7B4FA04DAB2E";
hints = (
{
horizontal = 1;
origin = (1,3);
target = (2,3);
type = Stem;
},
{
horizontal = 1;
origin = (0,7);
target = (0,0);
type = Stem;
},
{
horizontal = 1;
origin = (1,10);
target = (2,10);
type = Stem;
},
{
origin = (1,13);
target = (2,7);
type = Stem;
},
{
origin = (2,13);
target = (1,7);
type = Stem;
},
{
origin = (0,4);
target = (0,3);
type = Stem;
}
);
layerId = "4280296E-605D-4E97-B8E4-348BB5218BF5";
name = "Regular Dec 30 14, 23:49";
shapes = (
{
closed = 1;
nodes = (
(447,-171,ls),
(346,-171,o),
(328,-123,o),
(330,-6,c),
(245,-6,l),
(246,-165,o),
(286,-248,o),
(447,-248,cs),
(508,-248,ls),
(524,-248,o),
(533,-239,o),
(533,-223,cs),
(533,-196,ls),
(533,-180,o),
(524,-171,o),
(508,-171,cs)
);
},
{
closed = 1;
nodes = (
(85,243,ls),
(85,99,o),
(144,-10,o),
(288,-10,cs),
(429,-10,o),
(490,97,o),
(490,243,cs),
(490,457,ls),
(490,602,o),
(431,710,o),
(288,710,cs),
(146,710,o),
(85,604,o),
(85,457,cs)
);
},
{
closed = 1;
nodes = (
(405,243,ls),
(405,151,o),
(380,67,o),
(288,67,cs),
(196,67,o),
(170,151,o),
(170,243,cs),
(170,457,ls),
(170,549,o),
(196,634,o),
(288,634,cs),
(380,634,o),
(405,549,o),
(405,457,cs)
);
}
);
width = 575;
}
);
unicode = 81;
},
{
glyphname = R;
lastChange = "2016-06-09 18:35:33 +0000";
layers = (
{
anchors = (
{
name = bottom;
pos = (288,0);
},
{
name = top;
pos = (288,700);
}
);
hints = (
{
place = (85, 85);
place = (85, 85);
type = Stem;
},
{
horizontal = 1;
place = (312, 77);
place = (312, 77);
type = Stem;
},
{
horizontal = 1;
place = (700, -77);
place = (700, -77);
type = Stem;
},
{
horizontal = 1;
place = (675, 10.5);
place = (675, 10.5);
type = Stem;
},
{
place = (415, 85);
place = (415, 85);
type = Stem;
},
{
horizontal = 1;
place = (21.5, -21.5);
place = (21.5, -21.5);
type = Stem;
},
{
horizontal = 1;
origin = (0,19);
target = (1,0);
type = TTStem;
},
{
horizontal = 1;
origin = (0,7);
target = (1,1);
type = TTStem;
},
{
horizontal = 1;
origin = (0,15);
type = TTSnap;
},
{
horizontal = 1;
origin = (0,24);
type = TTSnap;
}
);
layerId = "A14B1AE3-86D5-4EA7-AE2F-7B4FA04DAB2E";
shapes = (
{
closed = 1;
nodes = (
(398,335,l),
(463,367,o),
(500,434,o),
(500,506,cs),
(500,615,o),
(421,700,o),
(268,700,cs),
(110,700,ls),
(94,700,o),
(85,692,o),
(85,675,cs),
(85,25,ls),
(85,9,o),
(94,0,o),
(110,0,cs),
(145,0,ls),
(161,0,o),
(170,9,o),
(170,25,cs),
(170,312,l),
(315,312,l),
(462,18,ls),
(468,6,o),
(477,0,o),
(491,0,cs),
(533,0,ls),
(552,0,o),
(560,12,o),
(551,30,cs)
);
},
{
closed = 1;
nodes = (
(170,389,l),
(170,624,l),
(268,624,ls),
(367,624,o),
(415,565,o),
(415,506,cs),
(415,448,o),
(369,389,o),
(268,389,cs)
);
}
);
width = 575;
},
{
anchors = (
{
name = bottom;
pos = (288,0);
},
{
name = top;
pos = (288,700);
}
);
hints = (
{
horizontal = 1;
place = (21.5, -21.5);
place = (21.5, -21.5);
type = Stem;
},
{
horizontal = 1;
origin = (0,19);
target = (1,0);
type = TTStem;
},
{
horizontal = 1;
origin = (0,7);
target = (1,1);
type = TTStem;
},
{
horizontal = 1;
origin = (0,15);
type = TTSnap;
},
{
horizontal = 1;
origin = (0,24);
type = TTSnap;
}
);
layerId = "FB732A47-0020-4E5B-B7FA-72B1D79E8828";
shapes = (
{
closed = 1;
nodes = (
(411,341,l),
(472,375,o),
(510,442,o),
(510,516,cs),
(510,640,o),
(415,720,o),
(268,720,cs),
(110,720,ls),
(88,720,o),
(75,707,o),
(75,685,cs),
(75,35,ls),
(75,14,o),
(89,0,o),
(110,0,cs),
(145,0,ls),
(166,0,o),
(180,14,o),
(180,35,cs),
(180,312,l),
(309,312,l),
(453,24,ls),
(461,8,o),
(474,0,o),
(491,0,cs),
(533,0,ls),
(560,0,o),
(572,20,o),
(560,44,cs)
);
},
{
closed = 1;
nodes = (
(180,409,l),
(180,624,l),
(268,624,ls),
(350,624,o),
(405,580,o),
(405,516,cs),
(405,453,o),
(350,409,o),
(268,409,cs)
);
}
);
width = 575;
},
{
anchors = (
{
name = bottom;
pos = (288,0);
},
{
name = top;
pos = (288,700);
}
);
associatedMasterId = "A14B1AE3-86D5-4EA7-AE2F-7B4FA04DAB2E";
hints = (
{
place = (0, 0);
place = (0, 0);
type = Stem;
},
{
horizontal = 1;
place = (0, 0);
place = (0, 0);
type = Stem;
},
{
horizontal = 1;
place = (0, 0);
place = (0, 0);
type = Stem;
},
{
horizontal = 1;
place = (0, 0);
place = (0, 0);
type = Stem;
},
{
place = (0, 0);
place = (0, 0);
type = Stem;
}
);
layerId = "39D6DB0C-DC26-40A3-ADCF-99F89BA864AD";
name = "Regular Jan 23 14, 23:00";
shapes = (
{
closed = 1;
nodes = (
(533,0,ls),
(552,0,o),
(560,12,o),
(551,30,cs),
(401,330,l),
(459,358,o),
(500,421,o),
(500,506,cs),
(500,635,o),
(421,700,o),
(288,700,cs),
(110,700,ls),
(94,700,o),
(85,692,o),
(85,675,cs),
(85,25,ls),
(85,9,o),
(94,0,o),
(110,0,cs),
(145,0,ls),
(161,0,o),
(170,9,o),
(170,25,cs),
(170,312,l),
(315,312,l),
(462,18,ls),
(468,6,o),
(477,0,o),
(491,0,cs)
);
},
{
closed = 1;
nodes = (
(170,389,l),
(170,624,l),
(288,624,ls),
(367,624,o),
(415,585,o),
(415,506,cs),
(415,430,o),
(369,389,o),
(288,389,cs)
);
}
);
width = 575;
},
{
layerId = "8A9476DE-11F4-4864-A7B4-14D9B7165FAE";
shapes = (
{
closed = 1;
nodes = (
(411,335,l),
(489,370,o),
(544,454,o),
(544,537,cs),
(544,631,o),
(476,700,o),
(339,700,cs),
(181,700,ls),
(165,700,o),
(155,692,o),
(152,675,cs),
(49,25,ls),
(47,9,o),
(54,0,o),
(70,0,cs),
(105,0,ls),
(121,0,o),
(132,9,o),
(134,25,cs),
(180,312,l),
(325,312,l),
(425,18,ls),
(429,6,o),
(437,0,o),
(451,0,cs),
(493,0,ls),
(512,0,o),
(522,12,o),
(516,30,cs)
);
},
{
closed = 1;
nodes = (
(192,389,l),
(229,624,l),
(327,624,ls),
(417,624,o),
(457,575,o),
(457,520,cs),
(457,446,o),
(383,389,o),
(290,389,cs)
);
}
);
width = 575;
},
{
layerId = "C492240F-DFB2-48B7-8D1C-81E7E6E3599E";
shapes = (
{
closed = 1;
nodes = (
(424,341,l),
(500,380,o),
(554,455,o),
(554,541,cs),
(554,645,o),
(474,720,o),
(341,720,cs),
(183,720,ls),
(161,720,o),
(146,707,o),
(142,685,cs),
(39,35,ls),
(36,14,o),
(48,0,o),
(69,0,cs),
(104,0,ls),
(125,0,o),
(141,14,o),
(144,35,cs),
(188,312,l),
(317,312,l),
(416,24,ls),
(421,8,o),
(433,0,o),
(450,0,cs),
(492,0,ls),
(519,0,o),
(534,20,o),
(526,44,cs)
);
},
{
closed = 1;
nodes = (
(204,409,l),
(238,624,l),
(326,624,ls),
(401,624,o),
(447,577,o),
(447,519,cs),
(447,449,o),
(377,409,o),
(292,409,cs)
);
}
);
width = 575;
}
);
unicode = 82;
},
{
glyphname = S;
lastChange = "2016-06-09 18:35:33 +0000";
layers = (
{
anchors = (
{
name = bottom;
pos = (288,0);
},
{
name = top;
pos = (288,696);
}
);
background = {
shapes = (
{
closed = 1;
nodes = (
(171,360,o),
(171,530,cs),
(171,593,o),
(231,632,o),
(328,632,cs),
(369,632,o),
(405,625,o),
(449,609,cs),
(464,603,o),
(475,608,o),
(481,623,cs),
(491,647,ls),
(497,662,o),
(493,674,o),
(478,680,cs),
(431,700,o),
(379,710,o),
(328,710,cs),
(178,710,o),
(85,641,o),
(85,530,cs),
(85,290,o),
(428,360,o),
(428,190,cs),
(428,123,o),
(368,68,o),
(251,68,cs),
(210,68,o),
(155,78,o),
(110,94,c),
(95,100,o),
(84,95,o),
(78,80,cs),
(68,56,ls),
(62,41,o),
(66,29,o),
(81,23,cs),
(128,3,o),
(200,-10,o),
(251,-10,cs),
(425,-10,o),
(514,71,o),
(514,190,cs),
(514,430,o)
);
}
);
};
hints = (
{
horizontal = 1;
origin = (0,31);
target = (0,18);
type = TTStem;
},
{
horizontal = 1;
origin = (0,6);
target = (0,43);
type = TTStem;
}
);
layerId = "A14B1AE3-86D5-4EA7-AE2F-7B4FA04DAB2E";
shapes = (
{
closed = 1;
nodes = (
(467,652,ls),
(472,668,o),
(471,676,o),
(456,683,cs),
(415,701,o),
(359,710,o),
(316,710,cs),
(196,710,o),
(82,646,o),
(82,521,cs),
(82,434,o),
(138,349,o),
(284,318,cs),
(385,297,o),
(428,246,o),
(428,190,cs),
(428,113,o),
(348,69,o),
(255,69,cs),
(221,69,o),
(169,75,o),
(130,91,cs),
(115,97,o),
(104,92,o),
(98,77,cs),
(88,53,ls),
(82,38,o),
(86,26,o),
(101,20,cs),
(147,0,o),
(202,-10,o),
(250,-10,cs),
(387,-10,o),
(514,69,o),
(514,195,cs),
(514,291,o),
(441,372,o),
(292,403,cs),
(206,421,o),
(168,474,o),
(168,524,cs),
(168,593,o),
(239,634,o),
(316,634,cs),
(354,634,o),
(392,624,o),
(427,611,cs),
(442,605,o),
(453,610,o),
(458,625,cs)
);
}
);
width = 575;
},
{
anchors = (
{
name = bottom;
pos = (288,0);
},
{
name = top;
pos = (288,700);
}
);
hints = (
{
horizontal = 1;
origin = (0,31);
target = (0,18);
type = TTStem;
},
{
horizontal = 1;
origin = (0,6);
target = (0,43);
type = TTStem;
}
);
layerId = "FB732A47-0020-4E5B-B7FA-72B1D79E8828";
shapes = (
{
closed = 1;
nodes = (
(476,659,ls),
(483,681,o),
(479,693,o),
(460,702,cs),
(421,719,o),
(365,730,o),
(316,730,cs),
(173,730,o),
(72,649,o),
(72,531,cs),
(72,424,o),
(149,346,o),
(282,318,cs),
(369,300,o),
(418,257,o),
(418,200,cs),
(418,135,o),
(351,89,o),
(255,89,cs),
(214,89,o),
(166,97,o),
(134,110,cs),
(114,118,o),
(97,111,o),
(89,91,cs),
(79,67,ls),
(71,46,o),
(78,29,o),
(97,21,cs),
(142,1,o),
(198,-10,o),
(250,-10,cs),
(405,-10,o),
(524,82,o),
(524,205,cs),
(524,312,o),
(439,393,o),
(294,423,cs),
(223,438,o),
(178,481,o),
(178,534,cs),
(178,591,o),
(237,634,o),
(316,634,cs),
(347,634,o),
(382,627,o),
(424,612,cs),
(443,604,o),
(461,611,o),
(467,632,cs)
);
}
);
width = 575;
},
{
associatedMasterId = "A14B1AE3-86D5-4EA7-AE2F-7B4FA04DAB2E";
layerId = "87D3D162-565C-4898-8664-533F5AECE3CB";
name = "Regular Dec 14 13, 11:16";
shapes = (
{
closed = 1;
nodes = (
(453,667,ls),
(457,683,o),
(450,694,o),
(434,698,cs),
(376,708,o),
(330,710,o),
(297,710,cs),
(174,710,o),
(85,653,o),
(85,538,cs),
(85,424,o),
(164,365,o),
(268,316,cs),
(334,287,o),
(407,250,o),
(407,172,cs),
(407,103,o),
(357,67,o),
(259,67,cs),
(230,67,o),
(179,68,o),
(118,79,cs),
(102,81,o),
(92,75,o),
(88,59,cs),
(82,33,ls),
(79,17,o),
(86,6,o),
(102,3,cs),
(168,-8,o),
(223,-10,o),
(259,-10,cs),
(416,-10,o),
(493,62,o),
(493,166,cs),
(493,280,o),
(407,333,o),
(307,384,cs),
(238,420,o),
(170,461,o),
(170,537,cs),
(170,607,o),
(224,634,o),
(297,634,cs),
(321,634,o),
(365,632,o),
(416,623,cs),
(432,620,o),
(442,626,o),
(446,641,cs)
);
}
);
width = 575;
},
{
anchors = (
{
name = bottom;
pos = (208,0);
},
{
name = top;
pos = (449,694);
}
);
layerId = "8A9476DE-11F4-4864-A7B4-14D9B7165FAE";
shapes = (
{
closed = 1;
nodes = (
(531,652,ls),
(538,668,o),
(538,676,o),
(525,683,cs),
(486,701,o),
(432,710,o),
(389,710,cs),
(248,710,o),
(122,623,o),
(122,493,cs),
(122,415,o),
(171,345,o),
(295,318,cs),
(382,299,o),
(419,256,o),
(419,204,cs),
(419,118,o),
(323,69,o),
(226,69,cs),
(192,69,o),
(141,75,o),
(105,91,c),
(91,97,o),
(79,92,o),
(71,77,cs),
(57,53,ls),
(48,38,o),
(51,26,o),
(65,20,cs),
(107,0,o),
(161,-10,o),
(209,-10,cs),
(357,-10,o),
(507,84,o),
(507,220,cs),
(507,307,o),
(446,375,o),
(316,403,cs),
(242,419,o),
(210,463,o),
(210,511,cs),
(210,586,o),
(294,634,o),
(377,634,cs),
(415,634,o),
(451,624,o),
(484,611,cs),
(498,605,o),
(510,610,o),
(517,625,cs)
);
}
);
width = 575;
},
{
layerId = "C492240F-DFB2-48B7-8D1C-81E7E6E3599E";
shapes = (
{
closed = 1;
nodes = (
(539,659,ls),
(550,681,o),
(548,693,o),
(530,702,cs),
(494,719,o),
(439,730,o),
(390,730,cs),
(240,730,o),
(112,636,o),
(112,499,cs),
(112,408,o),
(176,343,o),
(291,318,cs),
(367,302,o),
(409,265,o),
(409,212,cs),
(409,137,o),
(323,89,o),
(228,89,cs),
(187,89,o),
(140,97,o),
(110,110,cs),
(92,118,o),
(73,111,o),
(62,91,cs),
(48,67,ls),
(37,46,o),
(41,29,o),
(59,21,cs),
(101,1,o),
(155,-10,o),
(207,-10,cs),
(365,-10,o),
(517,89,o),
(517,231,cs),
(517,327,o),
(446,396,o),
(320,423,cs),
(257,437,o),
(220,474,o),
(220,521,cs),
(220,587,o),
(294,634,o),
(375,634,cs),
(406,634,o),
(440,627,o),
(480,612,cs),
(497,604,o),
(517,611,o),
(526,632,cs)
);
}
);
width = 575;
},
{
anchors = (
{
name = bottom;
pos = (288,0);
},
{
name = top;
pos = (288,700);
}
);
associatedMasterId = "A14B1AE3-86D5-4EA7-AE2F-7B4FA04DAB2E";
layerId = "71B9E3DD-23A4-43BE-8F82-1E31DE592B71";
name = "Regular Jan 12 15, 17:10";
shapes = (
{
closed = 1;
nodes = (
(453,667,ls),
(457,683,o),
(450,694,o),
(434,698,cs),
(376,708,o),
(330,710,o),
(297,710,cs),
(174,710,o),
(85,653,o),
(85,538,cs),
(85,424,o),
(164,365,o),
(268,316,cs),
(334,287,o),
(407,250,o),
(407,172,cs),
(407,103,o),
(357,67,o),
(259,67,cs),
(230,67,o),
(179,68,o),
(118,79,cs),
(102,81,o),
(92,75,o),
(88,59,cs),
(82,33,ls),
(79,17,o),
(86,6,o),
(102,3,cs),
(168,-8,o),
(223,-10,o),
(259,-10,cs),
(416,-10,o),
(493,62,o),
(493,166,cs),
(493,280,o),
(407,333,o),
(307,384,cs),
(238,420,o),
(170,461,o),
(170,537,cs),
(170,607,o),
(224,634,o),
(297,634,cs),
(321,634,o),
(365,632,o),
(416,623,cs),
(432,620,o),
(442,626,o),
(446,641,cs)
);
}
);
width = 575;
},
{
anchors = (
{
name = bottom;
pos = (288,0);
},
{
name = top;
pos = (288,700);
}
);
associatedMasterId = "A14B1AE3-86D5-4EA7-AE2F-7B4FA04DAB2E";
background = {
shapes = (
{
closed = 1;
nodes = (
(481,77,ls),
(475,92,o),
(464,97,o),
(449,91,cs),
(405,75,o),
(369,68,o),
(328,68,cs),
(239,68,o),
(171,114,o),
(171,270,cs),
(171,430,ls),
(171,586,o),
(239,632,o),
(328,632,cs),
(369,632,o),
(405,625,o),
(449,609,cs),
(464,603,o),
(475,608,o),
(481,623,cs),
(491,647,ls),
(497,662,o),
(493,674,o),
(478,680,cs),
(431,700,o),
(379,710,o),
(328,710,cs),
(202,710,o),
(85,640,o),
(85,430,cs),
(85,270,ls),
(85,60,o),
(202,-10,o),
(328,-10,cs),
(379,-10,o),
(431,0,o),
(478,20,cs),
(493,26,o),
(497,38,o),
(491,53,cs)
);
},
{
closed = 1;
nodes = (
(72,38,o),
(76,26,o),
(91,20,cs),
(138,0,o),
(190,-10,o),
(241,-10,cs),
(367,-10,o),
(484,60,o),
(484,270,cs),
(484,430,ls),
(484,640,o),
(367,710,o),
(241,710,cs),
(190,710,o),
(138,700,o),
(91,680,cs),
(76,674,o),
(72,662,o),
(78,647,cs),
(88,623,ls),
(94,608,o),
(105,603,o),
(120,609,cs),
(164,625,o),
(200,632,o),
(241,632,cs),
(330,632,o),
(398,586,o),
(398,430,cs),
(398,270,ls),
(398,114,o),
(330,68,o),
(241,68,cs),
(200,68,o),
(164,75,o),
(120,91,cs),
(105,97,o),
(94,92,o),
(88,77,cs),
(78,53,ls)
);
}
);
};
layerId = "E6745AAE-C119-48CF-9728-E5C68A94FE5F";
name = "Regular Jan 27 15, 08:58";
shapes = (
{
closed = 1;
nodes = (
(165,3,o),
(234,-10,o),
(295,-10,cs),
(405.766,-10,o),
(513,34.472,o),
(513,170,cs),
(513,294.397,o),
(403.681,347.127,o),
(318.681,388.127,cs),
(234.347,428.326,o),
(172,460.447,o),
(172,536,cs),
(172,609.005,o),
(213.993,632,o),
(289,632,cs),
(333,632,o),
(381,623,o),
(432,609,cs),
(447,605,o),
(458,610,o),
(463,625,cs),
(474,652,ls),
(480,668,o),
(474,680,o),
(458,684,cs),
(401,699,o),
(341,710,o),
(289,710,cs),
(183.965,710,o),
(86,663.03,o),
(86,536,cs),
(86,411.603,o),
(195.319,358.873,o),
(281.495,317.796,cs),
(364.48,277.76,o),
(427,245.553,o),
(427,170,cs),
(427,91.495,o),
(378.273,68,o),
(295,68,cs),
(242,68,o),
(184,79,o),
(129,93,cs),
(114,97,o),
(103,92,o),
(97,77,cs),
(87,50,ls),
(80,34,o),
(86,22,o),
(103,18,cs)
);
}
);
width = 575;
}
);
unicode = 83;
},
{
glyphname = T;
lastChange = "2016-06-09 18:35:33 +0000";
layers = (
{
anchors = (
{
name = bottom;
pos = (288,0);
},
{
name = center;
pos = (288,350);
},
{
name = top;
pos = (288,700);
}
);
hints = (
{
horizontal = 1;
origin = (0,16);
target = up;
type = BottomGhost;
},
{
horizontal = 1;
origin = (0,4);
target = (0,11);
type = Stem;
},
{
origin = (0,12);
target = (0,21);
type = Stem;
},
{
horizontal = 1;
place = (21.5, -21.5);
place = (21.5, -21.5);
type = Stem;
},
{
horizontal = 1;
origin = (0,4);
target = (0,11);
type = TTStem;
},
{
horizontal = 1;
origin = (0,17);
type = TTSnap;
}
);
layerId = "A14B1AE3-86D5-4EA7-AE2F-7B4FA04DAB2E";
shapes = (
{
closed = 1;
nodes = (
(554,675,ls),
(554,692,o),
(545,700,o),
(529,700,cs),
(47,700,ls),
(30,700,o),
(22,691,o),
(22,675,cs),
(22,649,ls),
(22,633,o),
(30,624,o),
(46,624,cs),
(245,624,l),
(245,25,ls),
(245,9,o),
(254,0,o),
(270,0,cs),
(305,0,ls),
(322,0,o),
(330,9,o),
(330,25,cs),
(330,624,l),
(529,624,ls),
(545,624,o),
(554,633,o),
(554,649,cs)
);
}
);
width = 575;
},
{
anchors = (
{
name = bottom;
pos = (288,0);
},
{
name = center;
pos = (288,350);
},
{
name = top;
pos = (288,700);
}
);
hints = (
{
horizontal = 1;
place = (21.5, -21.5);
place = (21.5, -21.5);
type = Stem;
},
{
horizontal = 1;
origin = (0,4);
target = (0,11);
type = TTStem;
},
{
horizontal = 1;
origin = (0,17);
type = TTSnap;
}
);
layerId = "FB732A47-0020-4E5B-B7FA-72B1D79E8828";
shapes = (
{
closed = 1;
nodes = (
(564,685,l),
(564,706,o),
(549,720,o),
(529,720,c),
(47,720,l),
(26,720,o),
(12,705,o),
(12,685,c),
(12,659,l),
(12,639,o),
(26,624,o),
(46,624,c),
(235,624,l),
(235,35,l),
(235,15,o),
(250,0,o),
(270,0,c),
(305,0,l),
(326,0,o),
(340,15,o),
(340,35,c),
(340,624,l),
(529,624,l),
(549,624,o),
(564,639,o),
(564,659,c)
);
}
);
width = 575;
},
{
layerId = "8A9476DE-11F4-4864-A7B4-14D9B7165FAE";
shapes = (
{
closed = 1;
nodes = (
(621,675,ls),
(624,692,o),
(616,700,o),
(600,700,cs),
(118,700,ls),
(101,700,o),
(92,691,o),
(89,675,cs),
(85,649,ls),
(83,633,o),
(89,624,o),
(105,624,cs),
(304,624,l),
(209,25,ls),
(207,9,o),
(214,0,o),
(230,0,cs),
(265,0,ls),
(282,0,o),
(292,9,o),
(294,25,cs),
(389,624,l),
(588,624,ls),
(604,624,o),
(615,633,o),
(617,649,cs)
);
}
);
width = 575;
},
{
layerId = "C492240F-DFB2-48B7-8D1C-81E7E6E3599E";
shapes = (
{
closed = 1;
nodes = (
(633,685,l),
(636,706,o),
(623,720,o),
(603,720,c),
(121,720,l),
(100,720,o),
(84,705,o),
(81,685,c),
(77,659,l),
(74,639,o),
(85,624,o),
(105,624,c),
(294,624,l),
(201,35,l),
(198,15,o),
(210,0,o),
(230,0,c),
(265,0,l),
(286,0,o),
(303,15,o),
(306,35,c),
(399,624,l),
(588,624,l),
(608,624,o),
(626,639,o),
(629,659,c)
);
}
);
width = 575;
}
);
unicode = 84;
},
{
glyphname = U;
lastChange = "2019-04-15 20:28:16 +0000";
layers = (
{
anchors = (
{
name = bottom;
pos = (288,0);
},
{
name = ogonek;
pos = (355,5);
},
{
name = top;
pos = (288,700);
},
{
name = topright;
pos = (555,700);
}
);
hints = (
{
horizontal = 1;
origin = (0,18);
target = (0,3);
type = TTStem;
},
{
horizontal = 1;
origin = (0,10);
type = TTSnap;
},
{
horizontal = 1;
origin = (0,26);
type = TTSnap;
},
{
horizontal = 1;
origin = (0,18);
target = (0,3);
type = Stem;
},
{
horizontal = 1;
origin = (0,11);
target = down;
type = TopGhost;
},
{
origin = (0,15);
target = (0,6);
type = Stem;
},
{
origin = (0,0);
target = (0,21);
type = Stem;
}
);
layerId = "A14B1AE3-86D5-4EA7-AE2F-7B4FA04DAB2E";
shapes = (
{
closed = 1;
nodes = (
(405,213,ls),
(405,103,o),
(372,66,o),
(288,66,cs),
(203,66,o),
(170,103,o),
(170,213,cs),
(170,675,ls),
(170,691,o),
(161,700,o),
(145,700,cs),
(110,700,ls),
(94,700,o),
(85,691,o),
(85,675,cs),
(85,213,ls),
(85,46,o),
(170,-10,o),
(288,-10,cs),
(406,-10,o),
(490,46,o),
(490,213,cs),
(490,675,ls),
(490,691,o),
(481,700,o),
(465,700,cs),
(430,700,ls),
(414,700,o),
(405,691,o),
(405,675,cs)
);
}
);
width = 575;
},
{
anchors = (
{
name = ogonek;
pos = (518,5);
},
{
name = top;
pos = (288,700);
}
);
hints = (
{
horizontal = 1;
origin = (0,18);
target = (0,3);
type = TTStem;
},
{
horizontal = 1;
origin = (0,10);
type = TTSnap;
},
{
horizontal = 1;
origin = (0,26);
type = TTSnap;
},
{
horizontal = 1;
origin = (0,18);
target = (0,3);
type = Stem;
},
{
horizontal = 1;
origin = (0,11);
target = down;
type = TopGhost;
},
{
origin = (0,15);
target = (0,6);
type = Stem;
},
{
origin = (0,0);
target = (0,21);
type = Stem;
}
);
layerId = "FB732A47-0020-4E5B-B7FA-72B1D79E8828";
shapes = (
{
closed = 1;
nodes = (
(395,223,ls),
(395,119.995,o),
(367.572,86,o),
(288,86,cs),
(207.541,86,o),
(180,119.832,o),
(180,223,cs),
(180,685,ls),
(180,706.474,o),
(166.474,720,o),
(145,720,cs),
(110,720,ls),
(88.526,720,o),
(75,706.474,o),
(75,685,cs),
(75,223,ls),
(75,68.629,o),
(146.708,-10,o),
(288,-10,cs),
(428.921,-10,o),
(500,68.318,o),
(500,223,cs),
(500,685,ls),
(500,706.474,o),
(486.474,720,o),
(465,720,cs),
(430,720,ls),
(408.526,720,o),
(395,706.474,o),
(395,685,cs)
);
}
);
width = 575;
},
{
anchors = (
{
name = bottom;
pos = (248,0);
},
{
name = ogonek;
pos = (477,10);
},
{
name = top;
pos = (359,700);
},
{
name = topright;
pos = (626,700);
}
);
hints = (
{
horizontal = 1;
origin = (0,24);
target = (0,3);
type = Stem;
},
{
horizontal = 1;
origin = (0,14);
target = down;
type = TopGhost;
}
);
layerId = "8A9476DE-11F4-4864-A7B4-14D9B7165FAE";
shapes = (
{
closed = 1;
nodes = (
(399,213,ls),
(382,103,o),
(355,66,o),
(271,66,cs),
(202,66,o),
(159,90,o),
(159,159,cs),
(159,174,o),
(161,192,o),
(164,213,cs),
(237,675,ls),
(240,691,o),
(232,700,o),
(216,700,cs),
(181,700,ls),
(165,700,o),
(155,691,o),
(152,675,cs),
(79,213,ls),
(76,191,o),
(74,171,o),
(74,152,cs),
(74,32,o),
(157,-10,o),
(259,-10,cs),
(377,-10,o),
(458,46,o),
(484,213,cs),
(557,675,ls),
(560,691,o),
(552,700,o),
(536,700,cs),
(501,700,ls),
(485,700,o),
(475,691,o),
(472,675,cs)
);
}
);
width = 575;
},
{
anchors = (
{
name = bottom;
pos = (247,0);
},
{
name = ogonek;
pos = (476,10);
},
{
name = top;
pos = (361,720);
},
{
name = topright;
pos = (628,720);
}
);
hints = (
{
horizontal = 1;
origin = (0,24);
target = (0,3);
type = Stem;
},
{
horizontal = 1;
origin = (0,14);
target = down;
type = TopGhost;
}
);
layerId = "C492240F-DFB2-48B7-8D1C-81E7E6E3599E";
shapes = (
{
closed = 1;
nodes = (
(389,223,ls),
(373,120,o),
(350,86,o),
(270,86,cs),
(206,86,o),
(169,108,o),
(169,169,cs),
(169,185,o),
(171,202,o),
(174,223,cs),
(247,685,ls),
(251,706,o),
(239,720,o),
(218,720,cs),
(183,720,ls),
(161,720,o),
(146,706,o),
(142,685,cs),
(69,223,ls),
(66,201,o),
(64,180,o),
(64,161,cs),
(64,48,o),
(134,-10,o),
(255,-10,cs),
(396,-10,o),
(470,68,o),
(494,223,cs),
(567,685,ls),
(571,706,o),
(559,720,o),
(538,720,cs),
(503,720,ls),
(481,720,o),
(466,706,o),
(462,685,cs)
);
}
);
width = 575;
},
{
anchors = (
{
name = ogonek;
pos = (355,5);
},
{
name = top;
pos = (288,700);
}
);
associatedMasterId = "A14B1AE3-86D5-4EA7-AE2F-7B4FA04DAB2E";
hints = (
{
horizontal = 1;
origin = (0,14);
target = down;
type = TopGhost;
},
{
horizontal = 1;
origin = (0,22);
target = (0,7);
type = Stem;
},
{
origin = (0,19);
target = (0,10);
type = Stem;
},
{
origin = (0,4);
target = (0,25);
type = Stem;
},
{
horizontal = 1;
origin = (0,14);
type = TTSnap;
},
{
horizontal = 1;
origin = (0,22);
target = (0,7);
type = TTShift;
}
);
layerId = "867F95A2-EF2F-4476-A605-5C22CF53B1CF";
name = "Regular Dec 21 15, 18:29";
shapes = (
{
closed = 1;
nodes = (
(430,700,ls),
(414,700,o),
(405,691,o),
(405,675,cs),
(405,213,ls),
(405,110,o),
(353,66,o),
(288,66,cs),
(223,66,o),
(170,110,o),
(170,213,cs),
(170,675,ls),
(170,692,o),
(161,700,o),
(145,700,cs),
(110,700,ls),
(94,700,o),
(85,691,o),
(85,675,cs),
(85,213,ls),
(85,46,o),
(170,-10,o),
(288,-10,cs),
(406,-10,o),
(490,48,o),
(490,213,cs),
(490,675,ls),
(490,692,o),
(482,700,o),
(465,700,cs)
);
}
);
width = 575;
}
);
unicode = 85;
},
{
glyphname = V;
lastChange = "2016-06-09 18:35:33 +0000";
layers = (
{
anchors = (
{
name = ogonek;
pos = (517,690);
},
{
name = top;
pos = (288,0);
}
);
hints = (
{
horizontal = 1;
place = (700, -20);
target = down;
type = TopGhost;
},
{
horizontal = 1;
place = (-10, 77);
place = (-10, 77);
type = Stem;
},
{
horizontal = 1;
place = (700, 21);
target = up;
type = BottomGhost;
},
{
horizontal = 1;
place = (-10, 76);
place = (-10, 76);
type = Stem;
},
{
horizontal = 1;
origin = (0,26);
target = (0,11);
type = TTShift;
},
{
horizontal = 1;
origin = (0,15);
other1 = (0,14);
other2 = (0,23);
target = (0,22);
type = TTDiagonal;
},
{
horizontal = 1;
origin = (0,0);
other1 = (0,29);
other2 = (0,8);
target = (0,7);
type = TTDiagonal;
},
{
horizontal = 1;
origin = (0,18);
type = TTSnap;
},
{
horizontal = 1;
origin = (0,4);
type = TTSnap;
}
);
layerId = "A14B1AE3-86D5-4EA7-AE2F-7B4FA04DAB2E";
shapes = (
{
closed = 1;
nodes = (
(558,672,l),
(563,689,o),
(554,700,o),
(537,700,cs),
(501,700,ls),
(486,700,o),
(477,693,o),
(473,678,cs),
(327,93,ls),
(323,75,o),
(305,66,o),
(288,66,cs),
(271,66,o),
(253,75,o),
(249,93,cs),
(102,678,l),
(99,693,o),
(89,700,o),
(74,700,cs),
(39,700,ls),
(21,700,o),
(13,689,o),
(17,672,cs),
(165,79,ls),
(180,21,o),
(229,-10,o),
(288,-10,cs),
(347,-10,o),
(396,21,o),
(410,79,cs)
);
}
);
width = 575;
},
{
hints = (
{
horizontal = 1;
place = (-10, 11500);
place = (-10, 11500);
type = Stem;
},
{
place = (5.93, 563.41);
place = (5.93, 563.41);
type = Stem;
},
{
horizontal = 1;
origin = (0,18);
type = TTSnap;
},
{
horizontal = 1;
origin = (0,26);
target = (0,11);
type = TTShift;
}
);
layerId = "FB732A47-0020-4E5B-B7FA-72B1D79E8828";
shapes = (
{
closed = 1;
nodes = (
(568,680,l),
(574,702,o),
(561,720,o),
(537,720,cs),
(501,720,ls),
(482,720,o),
(468,710,o),
(463,691,cs),
(317,105,ls),
(315,94,o),
(303,86,o),
(288,86,cs),
(273,86,o),
(261,94,o),
(259,105,cs),
(112,690,l),
(108,709,o),
(94,720,o),
(74,720,cs),
(39,720,ls),
(15,720,o),
(2,703,o),
(7,680,cs),
(155,87,ls),
(171,27,o),
(222,-10,o),
(288,-10,cs),
(355,-10,o),
(405,27,o),
(420,87,cs)
);
}
);
width = 575;
},
{
associatedMasterId = "A14B1AE3-86D5-4EA7-AE2F-7B4FA04DAB2E";
hints = (
{
horizontal = 1;
place = (0, 0);
place = (0, 0);
type = Stem;
},
{
horizontal = 1;
place = (0, 0);
place = (0, 0);
type = Stem;
},
{
place = (0, 0);
place = (0, 0);
type = Stem;
},
{
place = (0, 0);
place = (0, 0);
type = Stem;
}
);
layerId = "436DD152-1BCD-4BDA-8943-33290E82B091";
name = "Regular Dec 27 13, 23:35";
shapes = (
{
closed = 1;
nodes = (
(36,700,ls),
(18,700,o),
(10,690,o),
(15,672,cs),
(181,64,ls),
(196,8,o),
(228,-10,o),
(288,-10,cs),
(346,-10,o),
(379,7,o),
(395,64,cs),
(561,672,ls),
(565,690,o),
(557,700,o),
(539,700,cs),
(502,700,ls),
(487,700,o),
(478,693,o),
(474,679,cs),
(313,84,ls),
(310,71,o),
(304,67,o),
(288,67,cs),
(277,67,o),
(266,68,o),
(263,84,c),
(101,679,ls),
(97,693,o),
(88,700,o),
(73,700,cs)
);
}
);
width = 575;
},
{
associatedMasterId = "FB732A47-0020-4E5B-B7FA-72B1D79E8828";
layerId = "54FEFE0C-49D8-405A-945E-D7D668D42C7D";
name = "Bold Aug 24 14, 22:52";
shapes = (
{
closed = 1;
nodes = (
(558,672,ls),
(563,690,o),
(554,700,o),
(537,700,cs),
(451,700,ls),
(436,700,o),
(426,693,o),
(423,679,cs),
(327,93,ls),
(324,76,o),
(309,67,o),
(288,67,cs),
(267,67,o),
(252,76,o),
(249,93,cs),
(152,679,ls),
(150,693,o),
(139,700,o),
(124,700,cs),
(39,700,ls),
(21,700,o),
(13,690,o),
(17,672,cs),
(165,80,ls),
(180,22,o),
(223,-10,o),
(288,-10,cs),
(352,-10,o),
(396,22,o),
(410,80,cs)
);
}
);
width = 575;
},
{
layerId = "8A9476DE-11F4-4864-A7B4-14D9B7165FAE";
shapes = (
{
closed = 1;
nodes = (
(625,672,ls),
(633,689,o),
(625,700,o),
(608,700,cs),
(572,700,ls),
(557,700,o),
(547,693,o),
(541,678,c),
(302,93,l),
(295,75,o),
(276,66,o),
(259,66,cs),
(242,66,o),
(225,75,o),
(224,93,c),
(170,678,l),
(169,693,o),
(160,700,o),
(145,700,cs),
(110,700,ls),
(92,700,o),
(83,689,o),
(84,672,cs),
(138,79,ls),
(144,21,o),
(194,-10,o),
(253,-10,cs),
(312,-10,o),
(360,21,o),
(383,79,cs)
);
}
);
width = 575;
},
{
layerId = "C492240F-DFB2-48B7-8D1C-81E7E6E3599E";
shapes = (
{
closed = 1;
nodes = (
(634,680,l),
(644,702,o),
(634,720,o),
(610,720,cs),
(574,720,ls),
(554,720,o),
(540,710,o),
(532,691,cs),
(293,105,ls),
(288,94,o),
(275,86,o),
(260,86,cs),
(245,86,o),
(235,94,o),
(234,105,cs),
(180,690,l),
(179,709,o),
(167,720,o),
(147,720,cs),
(112,720,ls),
(88,720,o),
(72,703,o),
(74,680,cs),
(128,87,ls),
(134,27,o),
(186,-10,o),
(252,-10,cs),
(319,-10,o),
(368,27,o),
(392,87,cs)
);
}
);
width = 575;
}
);
unicode = 86;
},
{
glyphname = W;
lastChange = "2016-06-09 18:35:33 +0000";
layers = (
{
anchors = (
{
name = top;
pos = (288,700);
}
);
hints = (
{
horizontal = 1;
place = (400, 0);
type = TTSnap;
},
{
horizontal = 1;
place = (700, 0);
type = TTSnap;
},
{
horizontal = 1;
place = (700, 0);
type = TTSnap;
},
{
horizontal = 1;
place = (-5, 0);
type = TTSnap;
},
{
horizontal = 1;
place = (678.5, 21.5);
place = (678.5, 21.5);
type = Stem;
},
{
horizontal = 1;
place = (-4.99, 20.48);
place = (-4.99, 20.48);
type = Stem;
},
{
place = (50.99, -73.99);
place = (50.99, -73.99);
type = Stem;
},
{
place = (450.99, -74);
place = (450.99, -74);
type = Stem;
},
{
horizontal = 1;
origin = (0,30);
type = TTSnap;
},
{
horizontal = 1;
origin = (0,38);
type = TTSnap;
},
{
horizontal = 1;
origin = (0,21);
type = TTSnap;
},
{
horizontal = 1;
origin = (0,4);
type = TTSnap;
}
);
layerId = "A14B1AE3-86D5-4EA7-AE2F-7B4FA04DAB2E";
shapes = (
{
closed = 1;
nodes = (
(545,674,ls),
(545,689,o),
(534,700,o),
(519,700,cs),
(485,700,ls),
(470,700,o),
(461,689,o),
(460,674,cs),
(442,160,l),
(331,382,ls),
(325,395,o),
(316,400,o),
(302,400,cs),
(274,400,ls),
(260,400,o),
(251,395,o),
(245,382,cs),
(134,160,l),
(116,674,ls),
(115,689,o),
(106,700,o),
(91,700,cs),
(57,700,ls),
(42,700,o),
(31,689,o),
(31,674,cs),
(51,20,ls),
(51,4,o),
(60,-5,o),
(78,-5,cs),
(94,-5,ls),
(122,-5,o),
(141,6,o),
(153,31,cs),
(288,301,l),
(423,31,ls),
(435,6,o),
(454,-5,o),
(482,-5,cs),
(498,-5,ls),
(516,-5,o),
(525,4,o),
(525,20,cs)
);
}
);
width = 575;
},
{
anchors = (
{
name = top;
pos = (288,700);
}
);
layerId = "FB732A47-0020-4E5B-B7FA-72B1D79E8828";
shapes = (
{
angle = 180;
pos = (575,720);
ref = M;
}
);
width = 575;
},
{
anchors = (
{
name = top;
pos = (288,700);
}
);
associatedMasterId = "A14B1AE3-86D5-4EA7-AE2F-7B4FA04DAB2E";
hints = (
{
horizontal = 1;
place = (-5, 10.5);
place = (-5, 10.5);
type = Stem;
},
{
place = (447, 0);
place = (447, 0);
type = Stem;
},
{
horizontal = 1;
place = (700, -10);
place = (700, -10);
type = Stem;
},
{
place = (51, 85);
place = (51, 85);
type = Stem;
},
{
place = (439, 85);
place = (439, 85);
type = Stem;
},
{
horizontal = 1;
place = (0, 0);
place = (0, 0);
type = Stem;
}
);
layerId = "55B76DDD-9971-40EF-B971-0706934E2DEA";
name = "Regular Jan 21 14, 20:25";
shapes = (
{
closed = 1;
nodes = (
(515,-5,o),
(524,4,o),
(524,20,cs),
(524,675,ls),
(524,690,o),
(514,700,o),
(499,700,cs),
(465,700,ls),
(450,700,o),
(439,690,o),
(439,675,cs),
(439,426,o),
(441,299,o),
(444,226,c),
(382,351,ls),
(360,394,o),
(336,430,o),
(288,430,cs),
(240,430,o),
(215,394,o),
(194,351,cs),
(131,226,l),
(134,299,o),
(136,426,o),
(136,675,cs),
(136,690,o),
(126,700,o),
(111,700,cs),
(77,700,ls),
(62,700,o),
(51,690,o),
(51,675,cs),
(51,20,ls),
(51,4,o),
(60,-5,o),
(78,-5,cs),
(79,-5,ls),
(93,-5,o),
(103,1,o),
(109,13,cs),
(262,320,ls),
(268,332,o),
(275,342,o),
(288,342,cs),
(301,342,o),
(307,332,o),
(313,320,cs),
(467,13,ls),
(473,1,o),
(482,-5,o),
(496,-5,cs),
(498,-5,ls)
);
}
);
width = 575;
},
{
layerId = "8A9476DE-11F4-4864-A7B4-14D9B7165FAE";
shapes = (
{
angle = 180;
pos = (607,700);
ref = M;
}
);
width = 575;
},
{
layerId = "C492240F-DFB2-48B7-8D1C-81E7E6E3599E";
shapes = (
{
angle = 180;
pos = (607,720);
ref = M;
}
);
width = 575;
},
{
anchors = (
{
name = top;
pos = (288,700);
}
);
associatedMasterId = "A14B1AE3-86D5-4EA7-AE2F-7B4FA04DAB2E";
layerId = "E34D159A-D0D3-4DBA-B4E1-7A4D0E6BD5AD";
name = "Regular Feb 23 15, 17:43";
shapes = (
{
closed = 1;
nodes = (
(466,700,ls),
(450,700,o),
(441,692,o),
(441,675,cs),
(441,153,ls),
(441,96,o),
(422,67,o),
(386,67,cs),
(350,67,o),
(331,96,o),
(331,153,cs),
(331,475,ls),
(331,492,o),
(323,500,o),
(306,500,cs),
(271,500,ls),
(254,500,o),
(246,492,o),
(246,475,cs),
(246,153,ls),
(246,96,o),
(227,67,o),
(191,67,cs),
(155,67,o),
(136,96,o),
(136,153,cs),
(136,675,ls),
(136,692,o),
(127,700,o),
(111,700,cs),
(76,700,ls),
(60,700,o),
(51,691,o),
(51,675,cs),
(51,153,ls),
(51,45,o),
(94,-10,o),
(177,-10,cs),
(233.108,-10,o),
(270.488,15.75,o),
(288.5,66.61,c),
(306.512,15.75,o),
(343.892,-10,o),
(400,-10,cs),
(483,-10,o),
(526,45,o),
(526,153,cs),
(526,675,ls),
(526,691,o),
(517,700,o),
(501,700,cs)
);
}
);
width = 575;
}
);
unicode = 87;
},
{
glyphname = X;
lastChange = "2016-06-09 18:35:33 +0000";
layers = (
{
background = {
shapes = (
{
closed = 1;
nodes = (
(190,77,l),
(419,534,ls),
(458,611,o),
(472,649,o),
(472,675,cs),
(473,691,o),
(464,700,o),
(447,700,cs),
(126,700,ls),
(110,700,o),
(101,692,o),
(101,675,cs),
(101,649,ls),
(101,633,o),
(110,624,o),
(126,624,cs),
(371,624,l),
(142,167,ls),
(103,89,o),
(89,51,o),
(89,25,cs),
(88,9,o),
(97,0,o),
(114,0,cs),
(465,0,ls),
(481,0,o),
(490,9,o),
(490,25,cs),
(490,52,ls),
(490,68,o),
(481,77,o),
(465,77,cs)
);
}
);
};
hints = (
{
horizontal = 1;
place = (700, -10);
place = (700, -10);
type = Stem;
},
{
horizontal = 1;
place = (0, 0);
place = (0, 0);
type = Stem;
},
{
horizontal = 1;
origin = (0,18);
type = TTSnap;
},
{
horizontal = 1;
origin = (0,34);
type = TTSnap;
}
);
layerId = "A14B1AE3-86D5-4EA7-AE2F-7B4FA04DAB2E";
shapes = (
{
closed = 1;
nodes = (
(528,671,l),
(537,688,o),
(529,700,o),
(510,700,cs),
(479,700,ls),
(465,700,o),
(455,695,o),
(449,682,cs),
(318,419,ls),
(308,399,o),
(298,390,o),
(288,390,cs),
(277,390,o),
(267,400,o),
(258,419,cs),
(126,682,ls),
(120,695,o),
(111,700,o),
(97,700,cs),
(66,700,ls),
(46,700,o),
(39,688,o),
(47,671,cs),
(183,390,l),
(189,376,o),
(204,364,o),
(220,357,c),
(204,351,o),
(189,338,o),
(183,325,cs),
(40,30,ls),
(32,12,o),
(40,0,o),
(59,0,cs),
(90,0,ls),
(104,0,o),
(113,6,o),
(119,18,cs),
(258,295,l),
(267,315,o),
(277,325,o),
(288,325,cs),
(298,325,o),
(308,315,o),
(318,295,cs),
(456,18,ls),
(462,6,o),
(472,0,o),
(486,0,cs),
(517,0,ls),
(536,0,o),
(543,12,o),
(535,30,cs),
(393,325,l),
(386,338,o),
(372,351,o),
(355,357,c),
(372,364,o),
(386,376,o),
(393,390,cs)
);
}
);
width = 575;
},
{
hints = (
{
horizontal = 1;
origin = (0,18);
type = TTSnap;
},
{
horizontal = 1;
origin = (0,34);
type = TTSnap;
}
);
layerId = "FB732A47-0020-4E5B-B7FA-72B1D79E8828";
shapes = (
{
closed = 1;
nodes = (
(537,677,l),
(549,699,o),
(534,720,o),
(510,720,cs),
(479,720,ls),
(463,720,o),
(447,712,o),
(440,696,c),
(309,433,ls),
(300,415,o),
(294,410,o),
(288,410,cs),
(281,410,o),
(275,416,o),
(267,433,cs),
(135,696,l),
(128,712,o),
(114,720,o),
(97,720,cs),
(66,720,ls),
(40,720,o),
(28,698,o),
(38,677,cs),
(174,396,ls),
(179,385,o),
(188,375,o),
(199,367,c),
(188,360,o),
(179,349,o),
(174,339,cs),
(31,44,l),
(21,21,o),
(35,0,o),
(59,0,cs),
(90,0,ls),
(107,0,o),
(121,9,o),
(128,24,cs),
(267,301,l),
(275,319,o),
(281,325,o),
(288,325,cs),
(294,325,o),
(300,319,o),
(309,301,cs),
(447,24,ls),
(454,9,o),
(469,0,o),
(486,0,cs),
(517,0,ls),
(542,0,o),
(554,21,o),
(544,44,c),
(402,339,ls),
(397,349,o),
(387,360,o),
(376,367,c),
(387,375,o),
(397,385,o),
(402,396,cs)
);
}
);
width = 575;
},
{
associatedMasterId = "A14B1AE3-86D5-4EA7-AE2F-7B4FA04DAB2E";
hints = (
{
horizontal = 1;
place = (700, -10);
place = (700, -10);
type = Stem;
},
{
horizontal = 1;
place = (0, 10.5);
place = (0, 10.5);
type = Stem;
},
{
place = (51, 85);
place = (51, 85);
type = Stem;
},
{
place = (439, 85);
place = (439, 85);
type = Stem;
},
{
horizontal = 1;
place = (313, 103);
place = (313, 103);
type = Stem;
}
);
layerId = "70152E1B-E18C-44B5-8FA1-F94DCD8135AD";
name = "Regular Dec 28 13, 19:42";
width = 575;
},
{
associatedMasterId = "A14B1AE3-86D5-4EA7-AE2F-7B4FA04DAB2E";
background = {
shapes = (
{
closed = 1;
nodes = (
(190,77,l),
(419,534,ls),
(458,611,o),
(472,649,o),
(472,675,cs),
(473,691,o),
(464,700,o),
(447,700,cs),
(126,700,ls),
(110,700,o),
(101,692,o),
(101,675,cs),
(101,649,ls),
(101,633,o),
(110,624,o),
(126,624,cs),
(371,624,l),
(142,167,ls),
(103,89,o),
(89,51,o),
(89,25,cs),
(88,9,o),
(97,0,o),
(114,0,cs),
(465,0,ls),
(481,0,o),
(490,9,o),
(490,25,cs),
(490,52,ls),
(490,68,o),
(481,77,o),
(465,77,cs)
);
}
);
};
hints = (
{
horizontal = 1;
place = (0, 10.5);
place = (0, 10.5);
type = Stem;
},
{
horizontal = 1;
place = (0, 0);
place = (0, 0);
type = Stem;
},
{
horizontal = 1;
place = (0, 0);
place = (0, 0);
type = Stem;
},
{
place = (0, 0);
place = (0, 0);
type = Stem;
},
{
place = (0, 0);
place = (0, 0);
type = Stem;
}
);
layerId = "819CE97F-C5AF-4895-8655-6CC104178DA9";
name = "Regular Jan 7 14, 14:49";
shapes = (
{
closed = 1;
nodes = (
(339,360,l),
(434,455,ls),
(483,504,o),
(510,572,o),
(510,645,cs),
(510,675,ls),
(510,692,o),
(502,700,o),
(485,700,cs),
(450,700,ls),
(434,700,o),
(425,692,o),
(425,675,cs),
(425,646,ls),
(425,583,o),
(409,533,o),
(380,504,cs),
(288,412,l),
(196,504,ls),
(165,535,o),
(149,585,o),
(150,646,cs),
(150,675,ls),
(150,692,o),
(142,700,o),
(125,700,cs),
(90,700,ls),
(74,700,o),
(65,691,o),
(65,675,cs),
(65,645,ls),
(65,572,o),
(92,504,o),
(141,455,cs),
(236,360,l),
(141,265,ls),
(92,216,o),
(65,142,o),
(65,55,cs),
(65,25,ls),
(65,9,o),
(74,0,o),
(90,0,cs),
(125,0,ls),
(142,0,o),
(150,9,o),
(150,25,cs),
(150,55,ls),
(150,130,o),
(166,187,o),
(196,217,cs),
(288,309,l),
(380,217,ls),
(409,187,o),
(425,130,o),
(425,55,cs),
(425,25,ls),
(425,9,o),
(434,0,o),
(450,0,cs),
(485,0,ls),
(502,0,o),
(510,9,o),
(510,25,cs),
(510,55,ls),
(510,116,o),
(503,164,o),
(490,192,cs),
(477,220,o),
(456,243,o),
(434,265,cs)
);
}
);
width = 575;
},
{
associatedMasterId = "A14B1AE3-86D5-4EA7-AE2F-7B4FA04DAB2E";
background = {
shapes = (
{
closed = 1;
nodes = (
(190,77,l),
(419,534,ls),
(458,611,o),
(472,649,o),
(472,675,cs),
(473,691,o),
(464,700,o),
(447,700,cs),
(126,700,ls),
(110,700,o),
(101,692,o),
(101,675,cs),
(101,649,ls),
(101,633,o),
(110,624,o),
(126,624,cs),
(371,624,l),
(142,167,ls),
(103,89,o),
(89,51,o),
(89,25,cs),
(88,9,o),
(97,0,o),
(114,0,cs),
(465,0,ls),
(481,0,o),
(490,9,o),
(490,25,cs),
(490,52,ls),
(490,68,o),
(481,77,o),
(465,77,cs)
);
}
);
};
hints = (
{
horizontal = 1;
place = (0, 10.5);
place = (0, 10.5);
type = Stem;
},
{
horizontal = 1;
place = (309, 103);
place = (309, 103);
type = Stem;
},
{
horizontal = 1;
place = (700, -10);
place = (700, -10);
type = Stem;
},
{
place = (65, 85);
place = (65, 85);
type = Stem;
},
{
place = (425, 85);
place = (425, 85);
type = Stem;
}
);
layerId = "5CCFB8D4-7C82-4308-B1A5-18E04A86066D";
name = "Regular Aug 23 14, 16:56";
shapes = (
{
closed = 1;
nodes = (
(510,675,ls),
(510,691,o),
(502,700,o),
(486,700,cs),
(450,700,ls),
(434,700,o),
(425,692,o),
(425,676,cs),
(425,615,ls),
(425,573,o),
(409,533,o),
(380,504,cs),
(288,412,l),
(196,504,ls),
(166,533,o),
(150,573,o),
(150,615,cs),
(150,676,ls),
(150,692,o),
(141,700,o),
(125,700,cs),
(90,700,ls),
(74,700,o),
(65,691,o),
(65,675,cs),
(65,615,ls),
(65,561,o),
(92,504,o),
(141,455,cs),
(236,360,l),
(141,265,ls),
(92,216,o),
(65,160,o),
(65,107,cs),
(65,25,ls),
(65,9,o),
(74,0,o),
(90,0,cs),
(125,0,ls),
(141,0,o),
(150,9,o),
(150,25,cs),
(150,107,ls),
(150,148,o),
(166,187,o),
(196,217,cs),
(288,309,l),
(380,217,ls),
(409,187,o),
(425,148,o),
(425,107,cs),
(425,25,ls),
(425,9,o),
(434,0,o),
(450,0,cs),
(486,0,ls),
(502,0,o),
(510,9,o),
(510,25,cs),
(510,107,ls),
(510,160,o),
(483,216,o),
(434,265,cs),
(339,360,l),
(434,455,ls),
(483,504,o),
(510,561,o),
(510,615,cs)
);
}
);
width = 575;
},
{
associatedMasterId = "FB732A47-0020-4E5B-B7FA-72B1D79E8828";
layerId = "2A1BCE1A-3E4E-4D78-B1C4-A474DA9BE524";
name = "Bold Aug 24 14, 22:52";
shapes = (
{
closed = 1;
nodes = (
(510,675,ls),
(510,691,o),
(502,700,o),
(486,700,cs),
(400,700,ls),
(384,700,o),
(375,692,o),
(375,676,cs),
(375,615,ls),
(375,573,o),
(367,539,o),
(345,504,cs),
(288,412,l),
(226,504,ls),
(203,538,o),
(200,573,o),
(200,615,cs),
(200,676,ls),
(200,692,o),
(191,700,o),
(175,700,cs),
(90,700,ls),
(74,700,o),
(65,691,o),
(65,675,cs),
(65,615,ls),
(65,561,o),
(97,508,o),
(141,455,cs),
(221,360,l),
(141,265,ls),
(97,212,o),
(65,160,o),
(65,107,cs),
(65,25,ls),
(65,9,o),
(74,0,o),
(90,0,cs),
(175,0,ls),
(191,0,o),
(200,9,o),
(200,25,cs),
(200,107,ls),
(200,148,o),
(209,181,o),
(231,217,cs),
(288,309,l),
(345,217,ls),
(367,181,o),
(375,148,o),
(375,107,cs),
(375,25,ls),
(375,9,o),
(384,0,o),
(400,0,cs),
(486,0,ls),
(502,0,o),
(510,9,o),
(510,25,cs),
(510,107,ls),
(510,160,o),
(479,212,o),
(434,265,cs),
(354,360,l),
(434,455,ls),
(479,508,o),
(510,561,o),
(510,615,cs)
);
}
);
width = 575;
},
{
layerId = "8A9476DE-11F4-4864-A7B4-14D9B7165FAE";
shapes = (
{
closed = 1;
nodes = (
(595,671,ls),
(606,688,o),
(600,700,o),
(581,700,cs),
(550,700,ls),
(536,700,o),
(525,695,o),
(517,682,cs),
(345,419,ls),
(332,399,o),
(320,390,o),
(310,390,cs),
(299,390,o),
(291,400,o),
(285,419,cs),
(194,682,ls),
(190,695,o),
(182,700,o),
(168,700,cs),
(137,700,ls),
(117,700,o),
(108,688,o),
(114,671,cs),
(205,390,ls),
(209,376,o),
(222,364,o),
(237,357,c),
(220,351,o),
(203,338,o),
(195,325,cs),
(5,30,ls),
(-6,12,o),
(0,0,o),
(19,0,cs),
(50,0,ls),
(64,0,o),
(74,6,o),
(82,18,cs),
(265,295,ls),
(277,315,o),
(289,325,o),
(300,325,cs),
(310,325,o),
(318,315,o),
(325,295,cs),
(419,18,ls),
(423,6,o),
(432,0,o),
(446,0,cs),
(477,0,ls),
(496,0,o),
(505,12,o),
(500,30,cs),
(405,325,ls),
(400,338,o),
(388,351,o),
(372,357,c),
(390,364,o),
(406,376,o),
(415,390,cs)
);
}
);
width = 575;
},
{
layerId = "C492240F-DFB2-48B7-8D1C-81E7E6E3599E";
shapes = (
{
closed = 1;
nodes = (
(605,677,l),
(620,699,o),
(608,720,o),
(584,720,cs),
(553,720,ls),
(537,720,o),
(520,712,o),
(511,696,c),
(338,433,ls),
(326,415,o),
(319,410,o),
(313,410,cs),
(306,410,o),
(301,416,o),
(296,433,cs),
(206,696,l),
(201,712,o),
(188,720,o),
(171,720,cs),
(140,720,ls),
(114,720,o),
(99,698,o),
(106,677,cs),
(197,396,ls),
(200,385,o),
(208,375,o),
(218,367,c),
(205,360,o),
(195,349,o),
(188,339,cs),
(-2,44,l),
(-15,21,o),
(-5,0,o),
(19,0,cs),
(50,0,ls),
(67,0,o),
(83,9,o),
(92,24,cs),
(275,301,l),
(286,319,o),
(293,325,o),
(300,325,cs),
(306,325,o),
(311,319,o),
(317,301,cs),
(411,24,ls),
(416,9,o),
(429,0,o),
(446,0,cs),
(477,0,ls),
(502,0,o),
(518,21,o),
(511,44,c),
(416,339,ls),
(413,349,o),
(404,360,o),
(395,367,c),
(407,375,o),
(418,385,o),
(425,396,cs)
);
}
);
width = 575;
}
);
unicode = 88;
},
{
glyphname = Y;
lastChange = "2016-06-09 18:35:33 +0000";
layers = (
{
anchors = (
{
name = top;
pos = (288,700);
}
);
background = {
shapes = (
{
closed = 1;
nodes = (
(451,825,ls),
(436,825,o),
(427,818,o),
(423,804,cs),
(327,418,ls),
(323,401,o),
(309,392,o),
(288,392,cs),
(267,392,o),
(253,401,o),
(249,418,cs),
(152,804,ls),
(149,818,o),
(140,825,o),
(125,825,cs),
(89,825,ls),
(71,825,o),
(63,815,o),
(67,797,cs),
(165,405,ls),
(180,347,o),
(223,315,o),
(288,315,cs),
(352,315,o),
(396,347,o),
(410,405,cs),
(508,797,ls),
(513,815,o),
(504,825,o),
(487,825,cs)
);
}
);
};
hints = (
{
horizontal = 1;
place = (0, 0);
place = (0, 0);
type = Stem;
},
{
horizontal = 1;
origin = (0,14);
target = down;
type = TopGhost;
},
{
horizontal = 1;
origin = (0,26);
target = up;
type = BottomGhost;
},
{
horizontal = 1;
origin = (0,22);
target = (0,7);
type = Stem;
},
{
origin = (0,23);
target = (0,30);
type = Stem;
},
{
horizontal = 1;
origin = (0,14);
type = TTSnap;
},
{
horizontal = 1;
origin = (0,26);
type = TTSnap;
}
);
layerId = "A14B1AE3-86D5-4EA7-AE2F-7B4FA04DAB2E";
shapes = (
{
closed = 1;
nodes = (
(496,700,ls),
(482,700,o),
(472,695,o),
(466,682,cs),
(330,410,ls),
(321,391,o),
(306,380,o),
(288,380,cs),
(270,380,o),
(255,391,o),
(245,410,cs),
(109,682,ls),
(103,695,o),
(94,700,o),
(80,700,cs),
(43,700,ls),
(24,700,o),
(16,688,o),
(25,671,cs),
(170,380,ls),
(186,347,o),
(212,325,o),
(245,315,c),
(245,25,ls),
(245,9,o),
(254,0,o),
(270,0,cs),
(305,0,ls),
(321,0,o),
(330,9,o),
(330,25,cs),
(330,315,l),
(363,325,o),
(389,347,o),
(405,380,cs),
(550,671,ls),
(559,688,o),
(552,700,o),
(532,700,cs)
);
}
);
width = 575;
},
{
anchors = (
{
name = top;
pos = (288,700);
}
);
hints = (
{
horizontal = 1;
origin = (0,14);
type = TTSnap;
},
{
horizontal = 1;
origin = (0,26);
type = TTSnap;
}
);
layerId = "FB732A47-0020-4E5B-B7FA-72B1D79E8828";
shapes = (
{
closed = 1;
nodes = (
(496,720,l),
(479.639,720,o),
(464.39,712.376,o),
(456.92,696.191,c),
(321.056,424.472,l),
(313.046,407.568,o),
(302.726,400,o),
(288,400,c),
(273.274,400,o),
(262.774,407.699,o),
(253.849,424.657,c),
(117.944,696.472,l),
(110.711,712.156,o),
(96.591,720,o),
(80,720,c),
(43,720,l),
(18.648,720,o),
(4.374,698.588,o),
(16.162,676.321,c),
(161.05,385.54,l),
(176.767,353.122,o),
(203.181,329.46,o),
(235,317.804,c),
(235,35,l),
(235,14.858,o),
(249.858,0,o),
(270,0,c),
(305,0,l),
(325.142,0,o),
(340,14.858,o),
(340,35,c),
(340,317.804,l),
(371.819,329.46,o),
(398.233,353.122,o),
(413.998,385.637,c),
(558.95,676.54,l),
(570.44,698.236,o),
(557.744,720,o),
(532,720,c)
);
}
);
width = 575;
},
{
anchors = (
{
name = top;
pos = (288,700);
}
);
associatedMasterId = "A14B1AE3-86D5-4EA7-AE2F-7B4FA04DAB2E";
hints = (
{
place = (0, 0);
place = (0, 0);
type = Stem;
},
{
horizontal = 1;
place = (0, 0);
place = (0, 0);
type = Stem;
},
{
horizontal = 1;
place = (0, 0);
place = (0, 0);
type = Stem;
}
);
layerId = "39D73D99-A128-4EE2-A08D-89B9BCA0807D";
name = "Regular Dec 27 13, 23:47";
shapes = (
{
closed = 1;
nodes = (
(477,700,ls),
(462,700,o),
(455,693,o),
(448,679,cs),
(309,402,ls),
(304,391,o),
(299,385,o),
(288,385,cs),
(277,385,o),
(272,391,o),
(266,402,cs),
(127,679,ls),
(120,693,o),
(114,700,o),
(99,700,cs),
(60,700,ls),
(42,700,o),
(32,688,o),
(40,672,cs),
(184,379,ls),
(203,342,o),
(219,322,o),
(245,314,c),
(245,25,ls),
(245,9,o),
(254,0,o),
(270,0,cs),
(305,0,ls),
(321,0,o),
(330,9,o),
(330,25,cs),
(330,313,l),
(357,322,o),
(373,341,o),
(391,379,cs),
(536,672,ls),
(544,688,o),
(533,700,o),
(515,700,cs)
);
}
);
width = 575;
},
{
layerId = "8A9476DE-11F4-4864-A7B4-14D9B7165FAE";
shapes = (
{
closed = 1;
nodes = (
(567,700,ls),
(553,700,o),
(542,695,o),
(534,682,cs),
(355,410,ls),
(343,391,o),
(327,380,o),
(309,380,cs),
(291,380,o),
(277,391,o),
(270,410,cs),
(177,682,ls),
(173,695,o),
(165,700,o),
(151,700,cs),
(114,700,ls),
(95,700,o),
(85,688,o),
(92,671,cs),
(191,380,ls),
(201,347,o),
(224,325,o),
(255,315,c),
(209,25,ls),
(207,9,o),
(214,0,o),
(230,0,cs),
(265,0,ls),
(281,0,o),
(292,9,o),
(294,25,cs),
(340,315,l),
(375,325,o),
(404,347,o),
(426,380,cs),
(617,671,ls),
(628,688,o),
(623,700,o),
(603,700,cs)
);
}
);
width = 575;
},
{
layerId = "C492240F-DFB2-48B7-8D1C-81E7E6E3599E";
shapes = (
{
closed = 1;
nodes = (
(570,720,l),
(554,720,o),
(538,712,o),
(528,696,c),
(349,424,l),
(338,408,o),
(326,400,o),
(312,400,c),
(297,400,o),
(288,408,o),
(282,425,c),
(189,696,l),
(184,712,o),
(171,720,o),
(154,720,c),
(117,720,l),
(93,720,o),
(75,699,o),
(84,676,c),
(183,386,l),
(193,353,o),
(216,329,o),
(246,318,c),
(201,35,l),
(198,15,o),
(210,0,o),
(230,0,c),
(265,0,l),
(286,0,o),
(303,15,o),
(306,35,c),
(351,318,l),
(384,329,o),
(415,353,o),
(435,386,c),
(627,677,l),
(641,698,o),
(632,720,o),
(606,720,c)
);
}
);
width = 575;
}
);
unicode = 89;
},
{
glyphname = Z;
lastChange = "2016-06-09 18:35:33 +0000";
layers = (
{
background = {
shapes = (
{
closed = 1;
nodes = (
(141,153,l),
(214,116,l),
(434,547,l),
(362,585,l)
);
}
);
};
hints = (
{
horizontal = 1;
origin = (0,8);
target = (0,15);
type = TTShift;
},
{
horizontal = 1;
origin = (0,27);
target = (0,36);
type = TTShift;
},
{
horizontal = 1;
origin = (0,39);
other1 = (0,0);
other2 = (0,19);
target = (0,20);
type = TTDiagonal;
}
);
layerId = "A14B1AE3-86D5-4EA7-AE2F-7B4FA04DAB2E";
shapes = (
{
closed = 1;
nodes = (
(434,455,ls),
(483,504,o),
(510,572,o),
(510,645,cs),
(510,675,ls),
(510,692,o),
(502,700,o),
(485,700,cs),
(121,700,ls),
(105,700,o),
(96,692,o),
(96,675,cs),
(96,649,ls),
(96,633,o),
(105,624,o),
(121,624,cs),
(424,624,l),
(421,571,o),
(405,529,o),
(380,504,cs),
(141,265,ls),
(92,216,o),
(65,142,o),
(65,55,cs),
(65,25,ls),
(65,9,o),
(74,0,o),
(90,0,cs),
(485,0,ls),
(501,0,o),
(510,9,o),
(510,25,cs),
(510,52,ls),
(510,68,o),
(501,77,o),
(485,77,cs),
(150,77,l),
(153,141,o),
(169,190,o),
(196,217,cs)
);
}
);
width = 575;
},
{
anchors = (
{
name = top;
pos = (288,700);
}
);
hints = (
{
horizontal = 1;
place = (0, 9699);
place = (0, 9699);
type = Stem;
},
{
horizontal = 1;
origin = (0,8);
target = (0,15);
type = TTStem;
},
{
horizontal = 1;
origin = (0,27);
target = (0,36);
type = TTShift;
}
);
layerId = "FB732A47-0020-4E5B-B7FA-72B1D79E8828";
shapes = (
{
closed = 1;
nodes = (
(441,458,l),
(492,508,o),
(520,580,o),
(520,655,c),
(520,685,l),
(520,706,o),
(506,720,o),
(485,720,c),
(121,720,l),
(101,720,o),
(86,706,o),
(86,685,c),
(86,659,l),
(86,639,o),
(101,624,o),
(121,624,c),
(413,624,l),
(409,578,o),
(395,543,o),
(373,521,c),
(134,282,l),
(83,232,o),
(55,154,o),
(55,65,c),
(55,35,l),
(55,15,o),
(70,0,o),
(90,0,c),
(485,0,l),
(505,0,o),
(520,15,o),
(520,35,c),
(520,62,l),
(520,82,o),
(505,97,o),
(485,97,c),
(161,97,l),
(165,154,o),
(179,196,o),
(203,220,c)
);
}
);
width = 575;
},
{
anchors = (
{
name = top;
pos = (288,700);
}
);
associatedMasterId = "A14B1AE3-86D5-4EA7-AE2F-7B4FA04DAB2E";
hints = (
{
horizontal = 1;
place = (0, 0);
place = (0, 0);
type = Stem;
},
{
horizontal = 1;
place = (0, 0);
place = (0, 0);
type = Stem;
},
{
place = (0, 0);
place = (0, 0);
type = Stem;
},
{
place = (0, 0);
place = (0, 0);
type = Stem;
}
);
layerId = "EE4D294C-1330-4A37-9ADC-2EAA3E55134F";
name = "Regular Dec 28 13, 19:17";
shapes = (
{
closed = 1;
nodes = (
(414,439,ls),
(475,500,o),
(490,547,o),
(490,658,cs),
(490,675,ls),
(490,691,o),
(481,700,o),
(465,700,cs),
(130,700,ls),
(114,700,o),
(105,692,o),
(105,675,cs),
(105,649,ls),
(105,632,o),
(114,624,o),
(131,624,cs),
(405,624,l),
(403,573,o),
(396,524,o),
(360,488,cs),
(161,289,ls),
(90,217,o),
(86,175,o),
(85,26,cs),
(85,9,o),
(94,0,o),
(110,0,cs),
(465,0,ls),
(481,0,o),
(490,9,o),
(490,25,cs),
(490,52,ls),
(490,68,o),
(481,77,o),
(465,77,cs),
(170,77,l),
(170,157,o),
(175,201,o),
(216,241,cs)
);
}
);
width = 575;
},
{
anchors = (
{
name = top;
pos = (288,700);
}
);
associatedMasterId = "A14B1AE3-86D5-4EA7-AE2F-7B4FA04DAB2E";
background = {
shapes = (
{
closed = 1;
nodes = (
(141,153,l),
(214,116,l),
(434,547,l),
(362,585,l)
);
}
);
};
hints = (
{
horizontal = 1;
place = (0, 0);
place = (0, 0);
type = Stem;
},
{
horizontal = 1;
place = (0, 0);
place = (0, 0);
type = Stem;
}
);
layerId = "7AD8499D-992C-4043-AD8A-80BA666A76CB";
name = "Regular Dec 30 13, 22:13";
shapes = (
{
closed = 1;
nodes = (
(190,77,l),
(419,534,ls),
(458,611,o),
(472,649,o),
(472,675,cs),
(473,691,o),
(464,700,o),
(447,700,cs),
(126,700,ls),
(110,700,o),
(101,692,o),
(101,675,cs),
(101,649,ls),
(101,633,o),
(110,624,o),
(126,624,cs),
(371,624,l),
(142,167,ls),
(103,89,o),
(89,51,o),
(89,25,cs),
(88,9,o),
(97,0,o),
(114,0,cs),
(465,0,ls),
(481,0,o),
(490,9,o),
(490,25,cs),
(490,52,ls),
(490,68,o),
(481,77,o),
(465,77,cs)
);
}
);
width = 575;
},
{
layerId = "8A9476DE-11F4-4864-A7B4-14D9B7165FAE";
shapes = (
{
closed = 1;
nodes = (
(466,455,ls),
(523,504,o),
(561,572,o),
(573,645,cs),
(577,675,ls),
(580,692,o),
(573,700,o),
(556,700,cs),
(192,700,ls),
(176,700,o),
(166,692,o),
(163,675,cs),
(159,649,ls),
(157,633,o),
(164,624,o),
(180,624,cs),
(483,624,l),
(472,571,o),
(449,529,o),
(420,504,cs),
(143,265,ls),
(87,216,o),
(48,142,o),
(34,55,cs),
(29,25,ls),
(27,9,o),
(34,0,o),
(50,0,cs),
(445,0,ls),
(461,0,o),
(472,9,o),
(474,25,cs),
(479,52,ls),
(481,68,o),
(474,77,o),
(458,77,cs),
(123,77,l),
(136,141,o),
(159,190,o),
(191,217,cs)
);
}
);
width = 575;
},
{
layerId = "C492240F-DFB2-48B7-8D1C-81E7E6E3599E";
shapes = (
{
closed = 1;
nodes = (
(474,458,l),
(533,508,o),
(572,580,o),
(584,655,c),
(589,685,l),
(592,706,o),
(580,720,o),
(559,720,c),
(195,720,l),
(175,720,o),
(158,706,o),
(155,685,c),
(151,659,l),
(148,639,o),
(160,624,o),
(180,624,c),
(472,624,l),
(461,578,o),
(441,543,o),
(416,521,c),
(139,282,l),
(80,232,o),
(40,154,o),
(26,65,c),
(21,35,l),
(18,15,o),
(30,0,o),
(50,0,c),
(445,0,l),
(465,0,o),
(483,15,o),
(486,35,c),
(490,62,l),
(493,82,o),
(481,97,o),
(461,97,c),
(137,97,l),
(150,154,o),
(170,196,o),
(198,220,c)
);
}
);
width = 575;
}
);
unicode = 90;
},
{
glyphname = A.hex;
lastChange = "2016-06-09 18:35:33 +0000";
layers = (
{
anchors = (
{
name = ogonek;
pos = (517,10);
},
{
name = top;
pos = (288,700);
}
);
hints = (
{
horizontal = 1;
place = (2150, 100);
place = (2150, 100);
type = Stem;
},
{
horizontal = 1;
place = (21999, 100);
place = (21999, 100);
type = Stem;
},
{
horizontal = 1;
place = (63399, 100);
place = (63399, 100);
type = Stem;
},
{
place = (1619, 100);
place = (1619, 100);
type = Stem;
},
{
horizontal = 1;
origin = (2,3);
target = (3,3);
type = TTShift;
},
{
horizontal = 1;
origin = (2,20);
type = TTSnap;
},
{
horizontal = 1;
origin = (2,11);
type = TTSnap;
},
{
horizontal = 1;
origin = (2,6);
other1 = (2,7);
other2 = (2,14);
target = (3,0);
type = TTDiagonal;
},
{
horizontal = 1;
origin = (2,0);
other1 = (2,24);
other2 = (2,17);
target = (3,6);
type = TTDiagonal;
},
{
horizontal = 1;
origin = (2,15);
target = (3,8);
type = TTShift;
}
);
layerId = "A14B1AE3-86D5-4EA7-AE2F-7B4FA04DAB2E";
shapes = (
{
closed = 1;
nodes = (
(114,875,ls),
(114,891,o),
(105,900,o),
(89,900,cs),
(54,900,ls),
(38,900,o),
(29,891,o),
(29,875,cs),
(29,829,ls),
(29,813,o),
(37,804,o),
(54,804,cs),
(89,804,ls),
(105,804,o),
(114,812,o),
(114,829,cs)
);
},
{
closed = 1;
nodes = (
(402,875,ls),
(402,891,o),
(393,900,o),
(377,900,cs),
(342,900,ls),
(326,900,o),
(317,891,o),
(317,875,cs),
(317,829,ls),
(317,813,o),
(325,804,o),
(342,804,cs),
(377,804,ls),
(393,804,o),
(402,812,o),
(402,829,cs)
);
},
{
closed = 1;
nodes = (
(410,621,ls),
(396,679,o),
(347,710,o),
(288,710,cs),
(229,710,o),
(180,679,o),
(165,621,cs),
(17,28,ls),
(13,11,o),
(21,0,o),
(39,0,cs),
(74,0,ls),
(89,0,o),
(99,7,o),
(102,22,c),
(152,220,l),
(424,220,l),
(473,22,ls),
(477,7,o),
(486,0,o),
(501,0,cs),
(537,0,ls),
(554,0,o),
(563,11,o),
(558,28,c)
);
},
{
closed = 1;
nodes = (
(249,607,ls),
(253,625,o),
(271,634,o),
(288,634,cs),
(305,634,o),
(323,625,o),
(327,607,cs),
(405,296,l),
(171,296,l)
);
}
);
width = 575;
},
{
layerId = "FB732A47-0020-4E5B-B7FA-72B1D79E8828";
shapes = (
{
closed = 1;
nodes = (
(114,875,ls),
(114,891,o),
(105,900,o),
(89,900,cs),
(54,900,ls),
(38,900,o),
(29,891,o),
(29,875,cs),
(29,829,ls),
(29,813,o),
(37,804,o),
(54,804,cs),
(89,804,ls),
(105,804,o),
(114,812,o),
(114,829,cs)
);
},
{
closed = 1;
nodes = (
(402,875,ls),
(402,891,o),
(393,900,o),
(377,900,cs),
(342,900,ls),
(326,900,o),
(317,891,o),
(317,875,cs),
(317,829,ls),
(317,813,o),
(325,804,o),
(342,804,cs),
(377,804,ls),
(393,804,o),
(402,812,o),
(402,829,cs)
);
},
{
ref = A;
}
);
width = 575;
},
{
layerId = "8A9476DE-11F4-4864-A7B4-14D9B7165FAE";
shapes = (
{
closed = 1;
nodes = (
(114,875,ls),
(114,891,o),
(105,900,o),
(89,900,cs),
(54,900,ls),
(38,900,o),
(29,891,o),
(29,875,cs),
(29,829,ls),
(29,813,o),
(37,804,o),
(54,804,cs),
(89,804,ls),
(105,804,o),
(114,812,o),
(114,829,cs)
);
},
{
closed = 1;
nodes = (
(402,875,ls),
(402,891,o),
(393,900,o),
(377,900,cs),
(342,900,ls),
(326,900,o),
(317,891,o),
(317,875,cs),
(317,829,ls),
(317,813,o),
(325,804,o),
(342,804,cs),
(377,804,ls),
(393,804,o),
(402,812,o),
(402,829,cs)
);
},
{
ref = A;
}
);
width = 575;
},
{
layerId = "C492240F-DFB2-48B7-8D1C-81E7E6E3599E";
shapes = (
{
ref = A;
}
);
width = 575;
}
);
},
{
glyphname = B.hex;
lastChange = "2016-06-09 18:35:33 +0000";
layers = (
{
hints = (
{
horizontal = 1;
place = (0, 7699);
place = (0, 7699);
type = Stem;
},
{
horizontal = 1;
origin = (5,1);
target = (4,8);
type = TTStem;
},
{
horizontal = 1;
origin = (3,17);
target = (3,24);
type = TTStem;
}
);
layerId = "A14B1AE3-86D5-4EA7-AE2F-7B4FA04DAB2E";
shapes = (
{
closed = 1;
nodes = (
(114,875,ls),
(114,891,o),
(105,900,o),
(89,900,cs),
(54,900,ls),
(38,900,o),
(29,891,o),
(29,875,cs),
(29,829,ls),
(29,813,o),
(37,804,o),
(54,804,cs),
(89,804,ls),
(105,804,o),
(114,812,o),
(114,829,cs)
);
},
{
closed = 1;
nodes = (
(402,875,ls),
(402,891,o),
(393,900,o),
(377,900,cs),
(342,900,ls),
(326,900,o),
(317,891,o),
(317,875,cs),
(317,829,ls),
(317,813,o),
(325,804,o),
(342,804,cs),
(377,804,ls),
(393,804,o),
(402,812,o),
(402,829,cs)
);
},
{
closed = 1;
nodes = (
(546,875,ls),
(546,891,o),
(537,900,o),
(521,900,cs),
(486,900,ls),
(470,900,o),
(461,891,o),
(461,875,cs),
(461,829,ls),
(461,813,o),
(469,804,o),
(486,804,cs),
(521,804,ls),
(537,804,o),
(546,812,o),
(546,829,cs)
);
},
{
closed = 1;
nodes = (
(102,25,ls),
(102,9,o),
(111,0,o),
(127,0,cs),
(264,0,ls),
(424,0,o),
(513,96,o),
(513,196,cs),
(513,271,o),
(463,341,o),
(382,370,c),
(430,395,o),
(473,453,o),
(473,521,cs),
(473,606,o),
(406,700,o),
(244,700,cs),
(64,700,ls),
(47,700,o),
(39,691,o),
(39,675,cs),
(39,649,ls),
(39,633,o),
(47,624,o),
(64,624,cs),
(102,624,l)
);
},
{
closed = 1;
nodes = (
(187,624,l),
(244,624,ls),
(354,624,o),
(398,564,o),
(398,511,cs),
(398,452,o),
(344,403,o),
(244,403,cs),
(187,403,l)
);
},
{
closed = 1;
nodes = (
(187,77,l),
(187,326,l),
(264,326,ls),
(380,326,o),
(437,263,o),
(437,201,cs),
(437,139,o),
(380,77,o),
(264,77,cs)
);
}
);
width = 575;
},
{
layerId = "FB732A47-0020-4E5B-B7FA-72B1D79E8828";
shapes = (
{
closed = 1;
nodes = (
(114,875,ls),
(114,891,o),
(105,900,o),
(89,900,cs),
(54,900,ls),
(38,900,o),
(29,891,o),
(29,875,cs),
(29,829,ls),
(29,813,o),
(37,804,o),
(54,804,cs),
(89,804,ls),
(105,804,o),
(114,812,o),
(114,829,cs)
);
},
{
closed = 1;
nodes = (
(402,875,ls),
(402,891,o),
(393,900,o),
(377,900,cs),
(342,900,ls),
(326,900,o),
(317,891,o),
(317,875,cs),
(317,829,ls),
(317,813,o),
(325,804,o),
(342,804,cs),
(377,804,ls),
(393,804,o),
(402,812,o),
(402,829,cs)
);
},
{
closed = 1;
nodes = (
(546,875,ls),
(546,891,o),
(537,900,o),
(521,900,cs),
(486,900,ls),
(470,900,o),
(461,891,o),
(461,875,cs),
(461,829,ls),
(461,813,o),
(469,804,o),
(486,804,cs),
(521,804,ls),
(537,804,o),
(546,812,o),
(546,829,cs)
);
},
{
ref = B;
}
);
width = 575;
},
{
layerId = "8A9476DE-11F4-4864-A7B4-14D9B7165FAE";
shapes = (
{
closed = 1;
nodes = (
(214,875,ls),
(214,891,o),
(205,900,o),
(189,900,cs),
(154,900,ls),
(138,900,o),
(129,891,o),
(129,875,cs),
(129,829,ls),
(129,813,o),
(137,804,o),
(154,804,cs),
(189,804,ls),
(205,804,o),
(214,812,o),
(214,829,cs)
);
},
{
closed = 1;
nodes = (
(502,875,ls),
(502,891,o),
(493,900,o),
(477,900,cs),
(442,900,ls),
(426,900,o),
(417,891,o),
(417,875,cs),
(417,829,ls),
(417,813,o),
(425,804,o),
(442,804,cs),
(477,804,ls),
(493,804,o),
(502,812,o),
(502,829,cs)
);
},
{
closed = 1;
nodes = (
(646,875,ls),
(646,891,o),
(637,900,o),
(621,900,cs),
(586,900,ls),
(570,900,o),
(561,891,o),
(561,875,cs),
(561,829,ls),
(561,813,o),
(569,804,o),
(586,804,cs),
(621,804,ls),
(637,804,o),
(646,812,o),
(646,829,cs)
);
},
{
ref = B;
}
);
width = 575;
},
{
layerId = "C492240F-DFB2-48B7-8D1C-81E7E6E3599E";
shapes = (
{
closed = 1;
nodes = (
(214,875,ls),
(214,891,o),
(205,900,o),
(189,900,cs),
(154,900,ls),
(138,900,o),
(129,891,o),
(129,875,cs),
(129,829,ls),
(129,813,o),
(137,804,o),
(154,804,cs),
(189,804,ls),
(205,804,o),
(214,812,o),
(214,829,cs)
);
},
{
closed = 1;
nodes = (
(502,875,ls),
(502,891,o),
(493,900,o),
(477,900,cs),
(442,900,ls),
(426,900,o),
(417,891,o),
(417,875,cs),
(417,829,ls),
(417,813,o),
(425,804,o),
(442,804,cs),
(477,804,ls),
(493,804,o),
(502,812,o),
(502,829,cs)
);
},
{
closed = 1;
nodes = (
(646,875,ls),
(646,891,o),
(637,900,o),
(621,900,cs),
(586,900,ls),
(570,900,o),
(561,891,o),
(561,875,cs),
(561,829,ls),
(561,813,o),
(569,804,o),
(586,804,cs),
(621,804,ls),
(637,804,o),
(646,812,o),
(646,829,cs)
);
},
{
ref = B;
}
);
width = 575;
}
);
},
{
glyphname = C.hex;
lastChange = "2016-06-09 18:35:33 +0000";
layers = (
{
anchors = (
{
name = bottom;
pos = (328,0);
},
{
name = top;
pos = (288,700);
}
);
hints = (
{
horizontal = 1;
origin = (2,25);
target = (2,12);
type = Stem;
},
{
horizontal = 1;
origin = (2,32);
target = (2,5);
type = Stem;
},
{
origin = (2,29);
target = (2,8);
type = Stem;
},
{
horizontal = 1;
origin = (2,25);
target = (2,12);
type = TTStem;
},
{
horizontal = 1;
origin = (2,32);
target = (2,5);
type = TTStem;
}
);
layerId = "A14B1AE3-86D5-4EA7-AE2F-7B4FA04DAB2E";
shapes = (
{
closed = 1;
nodes = (
(114,875,ls),
(114,891,o),
(105,900,o),
(89,900,cs),
(54,900,ls),
(38,900,o),
(29,891,o),
(29,875,cs),
(29,819,ls),
(29,803,o),
(37,794,o),
(54,794,cs),
(89,794,ls),
(105,794,o),
(114,802,o),
(114,819,cs)
);
},
{
closed = 1;
nodes = (
(258,875,ls),
(258,891,o),
(249,900,o),
(233,900,cs),
(198,900,ls),
(182,900,o),
(173,891,o),
(173,875,cs),
(173,829,ls),
(173,813,o),
(181,804,o),
(198,804,cs),
(233,804,ls),
(249,804,o),
(258,812,o),
(258,829,cs)
);
},
{
closed = 1;
nodes = (
(475,92,o),
(464,97,o),
(449,91,cs),
(405,75,o),
(369,68,o),
(338,68,cs),
(259,68,o),
(171,114,o),
(171,310,cs),
(171,390,ls),
(171,586,o),
(259,632,o),
(338,632,cs),
(369,632,o),
(405,625,o),
(449,609,cs),
(464,603,o),
(475,608,o),
(481,623,cs),
(491,647,ls),
(497,662,o),
(493,674,o),
(478,680,cs),
(431,700,o),
(385,710,o),
(340,710,cs),
(222,710,o),
(85,640,o),
(85,390,cs),
(85,310,ls),
(85,60,o),
(222,-10,o),
(340,-10,cs),
(385,-10,o),
(431,0,o),
(478,20,cs),
(493,26,o),
(497,38,o),
(491,53,cs),
(481,77,ls)
);
}
);
width = 575;
},
{
layerId = "FB732A47-0020-4E5B-B7FA-72B1D79E8828";
shapes = (
{
closed = 1;
nodes = (
(114,875,ls),
(114,891,o),
(105,900,o),
(89,900,cs),
(54,900,ls),
(38,900,o),
(29,891,o),
(29,875,cs),
(29,829,ls),
(29,813,o),
(37,804,o),
(54,804,cs),
(89,804,ls),
(105,804,o),
(114,812,o),
(114,829,cs)
);
},
{
closed = 1;
nodes = (
(258,875,ls),
(258,891,o),
(249,900,o),
(233,900,cs),
(198,900,ls),
(182,900,o),
(173,891,o),
(173,875,cs),
(173,829,ls),
(173,813,o),
(181,804,o),
(198,804,cs),
(233,804,ls),
(249,804,o),
(258,812,o),
(258,829,cs)
);
},
{
ref = C;
}
);
width = 575;
},
{
layerId = "8A9476DE-11F4-4864-A7B4-14D9B7165FAE";
shapes = (
{
closed = 1;
nodes = (
(214,875,ls),
(214,891,o),
(205,900,o),
(189,900,cs),
(154,900,ls),
(138,900,o),
(129,891,o),
(129,875,cs),
(129,829,ls),
(129,813,o),
(137,804,o),
(154,804,cs),
(189,804,ls),
(205,804,o),
(214,812,o),
(214,829,cs)
);
},
{
closed = 1;
nodes = (
(358,875,ls),
(358,891,o),
(349,900,o),
(333,900,cs),
(298,900,ls),
(282,900,o),
(273,891,o),
(273,875,cs),
(273,829,ls),
(273,813,o),
(281,804,o),
(298,804,cs),
(333,804,ls),
(349,804,o),
(358,812,o),
(358,829,cs)
);
},
{
ref = C;
}
);
width = 575;
},
{
layerId = "C492240F-DFB2-48B7-8D1C-81E7E6E3599E";
shapes = (
{
closed = 1;
nodes = (
(214,875,ls),
(214,891,o),
(205,900,o),
(189,900,cs),
(154,900,ls),
(138,900,o),
(129,891,o),
(129,875,cs),
(129,829,ls),
(129,813,o),
(137,804,o),
(154,804,cs),
(189,804,ls),
(205,804,o),
(214,812,o),
(214,829,cs)
);
},
{
closed = 1;
nodes = (
(358,875,ls),
(358,891,o),
(349,900,o),
(333,900,cs),
(298,900,ls),
(282,900,o),
(273,891,o),
(273,875,cs),
(273,829,ls),
(273,813,o),
(281,804,o),
(298,804,cs),
(333,804,ls),
(349,804,o),
(358,812,o),
(358,829,cs)
);
},
{
ref = C;
}
);
width = 575;
}
);
},
{
glyphname = D.hex;
lastChange = "2016-06-09 18:35:33 +0000";
layers = (
{
anchors = (
{
name = center;
pos = (288,350);
},
{
name = top;
pos = (288,700);
}
);
hints = (
{
horizontal = 1;
place = (0, 7699);
place = (0, 7699);
type = Stem;
},
{
horizontal = 1;
origin = (3,0);
target = (4,4);
type = TTStem;
}
);
layerId = "A14B1AE3-86D5-4EA7-AE2F-7B4FA04DAB2E";
shapes = (
{
closed = 1;
nodes = (
(114,875,ls),
(114,891,o),
(105,900,o),
(89,900,cs),
(54,900,ls),
(38,900,o),
(29,891,o),
(29,875,cs),
(29,829,ls),
(29,813,o),
(37,804,o),
(54,804,cs),
(89,804,ls),
(105,804,o),
(114,812,o),
(114,829,cs)
);
},
{
closed = 1;
nodes = (
(258,875,ls),
(258,891,o),
(249,900,o),
(233,900,cs),
(198,900,ls),
(182,900,o),
(173,891,o),
(173,875,cs),
(173,829,ls),
(173,813,o),
(181,804,o),
(198,804,cs),
(233,804,ls),
(249,804,o),
(258,812,o),
(258,829,cs)
);
},
{
closed = 1;
nodes = (
(546,875,ls),
(546,891,o),
(537,900,o),
(521,900,cs),
(486,900,ls),
(470,900,o),
(461,891,o),
(461,875,cs),
(461,829,ls),
(461,813,o),
(469,804,o),
(486,804,cs),
(521,804,ls),
(537,804,o),
(546,812,o),
(546,829,cs)
);
},
{
closed = 1;
nodes = (
(64,700,ls),
(47,700,o),
(39,691,o),
(39,675,cs),
(39,649,ls),
(39,633,o),
(47,624,o),
(64,624,cs),
(102,624,l),
(102,25,ls),
(102,9,o),
(111,0,o),
(127,0,cs),
(183,0,ls),
(434,0,o),
(517,102,o),
(517,330,cs),
(517,370,ls),
(517,631,o),
(393,700,o),
(144,700,cs)
);
},
{
closed = 1;
nodes = (
(432,330,ls),
(432,147,o),
(360,77,o),
(187,77,c),
(187,623,l),
(367,618,o),
(432,536,o),
(432,370,cs)
);
}
);
width = 575;
},
{
layerId = "FB732A47-0020-4E5B-B7FA-72B1D79E8828";
shapes = (
{
closed = 1;
nodes = (
(114,875,ls),
(114,891,o),
(105,900,o),
(89,900,cs),
(54,900,ls),
(38,900,o),
(29,891,o),
(29,875,cs),
(29,829,ls),
(29,813,o),
(37,804,o),
(54,804,cs),
(89,804,ls),
(105,804,o),
(114,812,o),
(114,829,cs)
);
},
{
closed = 1;
nodes = (
(258,875,ls),
(258,891,o),
(249,900,o),
(233,900,cs),
(198,900,ls),
(182,900,o),
(173,891,o),
(173,875,cs),
(173,829,ls),
(173,813,o),
(181,804,o),
(198,804,cs),
(233,804,ls),
(249,804,o),
(258,812,o),
(258,829,cs)
);
},
{
closed = 1;
nodes = (
(546,875,ls),
(546,891,o),
(537,900,o),
(521,900,cs),
(486,900,ls),
(470,900,o),
(461,891,o),
(461,875,cs),
(461,829,ls),
(461,813,o),
(469,804,o),
(486,804,cs),
(521,804,ls),
(537,804,o),
(546,812,o),
(546,829,cs)
);
},
{
ref = D;
}
);
width = 575;
},
{
layerId = "8A9476DE-11F4-4864-A7B4-14D9B7165FAE";
shapes = (
{
closed = 1;
nodes = (
(214,875,ls),
(214,891,o),
(205,900,o),
(189,900,cs),
(154,900,ls),
(138,900,o),
(129,891,o),
(129,875,cs),
(129,829,ls),
(129,813,o),
(137,804,o),
(154,804,cs),
(189,804,ls),
(205,804,o),
(214,812,o),
(214,829,cs)
);
},
{
closed = 1;
nodes = (
(358,875,ls),
(358,891,o),
(349,900,o),
(333,900,cs),
(298,900,ls),
(282,900,o),
(273,891,o),
(273,875,cs),
(273,829,ls),
(273,813,o),
(281,804,o),
(298,804,cs),
(333,804,ls),
(349,804,o),
(358,812,o),
(358,829,cs)
);
},
{
closed = 1;
nodes = (
(646,875,ls),
(646,891,o),
(637,900,o),
(621,900,cs),
(586,900,ls),
(570,900,o),
(561,891,o),
(561,875,cs),
(561,829,ls),
(561,813,o),
(569,804,o),
(586,804,cs),
(621,804,ls),
(637,804,o),
(646,812,o),
(646,829,cs)
);
},
{
ref = D;
}
);
width = 575;
},
{
layerId = "C492240F-DFB2-48B7-8D1C-81E7E6E3599E";
shapes = (
{
closed = 1;
nodes = (
(214,875,ls),
(214,891,o),
(205,900,o),
(189,900,cs),
(154,900,ls),
(138,900,o),
(129,891,o),
(129,875,cs),
(129,829,ls),
(129,813,o),
(137,804,o),
(154,804,cs),
(189,804,ls),
(205,804,o),
(214,812,o),
(214,829,cs)
);
},
{
closed = 1;
nodes = (
(358,875,ls),
(358,891,o),
(349,900,o),
(333,900,cs),
(298,900,ls),
(282,900,o),
(273,891,o),
(273,875,cs),
(273,829,ls),
(273,813,o),
(281,804,o),
(298,804,cs),
(333,804,ls),
(349,804,o),
(358,812,o),
(358,829,cs)
);
},
{
closed = 1;
nodes = (
(646,875,ls),
(646,891,o),
(637,900,o),
(621,900,cs),
(586,900,ls),
(570,900,o),
(561,891,o),
(561,875,cs),
(561,829,ls),
(561,813,o),
(569,804,o),
(586,804,cs),
(621,804,ls),
(637,804,o),
(646,812,o),
(646,829,cs)
);
},
{
ref = D;
}
);
width = 575;
}
);
},
{
glyphname = E.hex;
lastChange = "2016-06-09 18:35:33 +0000";
layers = (
{
anchors = (
{
name = bottom;
pos = (288,0);
},
{
name = ogonek;
pos = (518,1);
},
{
name = top;
pos = (288,700);
}
);
hints = (
{
horizontal = 1;
place = (0, 7699);
place = (0, 7699);
type = Stem;
},
{
horizontal = 1;
place = (32599, 100);
place = (32599, 100);
type = Stem;
},
{
horizontal = 1;
place = (62399, 100);
place = (62399, 100);
type = Stem;
},
{
place = (8499, 100);
place = (8499, 100);
type = Stem;
},
{
horizontal = 1;
place = (0, 7699);
place = (0, 7699);
type = Stem;
},
{
horizontal = 1;
place = (32599, 100);
place = (32599, 100);
type = Stem;
},
{
horizontal = 1;
place = (62399, 100);
place = (62399, 100);
type = Stem;
},
{
place = (8499, 100);
place = (8499, 100);
type = Stem;
},
{
horizontal = 1;
place = (0, 7699);
place = (0, 7699);
type = Stem;
},
{
horizontal = 1;
origin = (3,1);
target = (3,10);
type = TTStem;
},
{
horizontal = 1;
origin = (3,20);
target = (3,11);
type = TTStem;
}
);
layerId = "A14B1AE3-86D5-4EA7-AE2F-7B4FA04DAB2E";
shapes = (
{
closed = 1;
nodes = (
(114,875,ls),
(113,891,o),
(105,900,o),
(89,900,cs),
(54,900,ls),
(38,900,o),
(28,891,o),
(29,875,cs),
(31,829,ls),
(32,813,o),
(39,804,o),
(56,804,cs),
(91,804,ls),
(107,804,o),
(117,812,o),
(116,829,cs)
);
},
{
closed = 1;
nodes = (
(258,875,ls),
(258,891,o),
(249,900,o),
(233,900,cs),
(198,900,ls),
(182,900,o),
(173,891,o),
(173,875,cs),
(173,829,ls),
(173,813,o),
(181,804,o),
(198,804,cs),
(233,804,ls),
(249,804,o),
(258,812,o),
(258,829,cs)
);
},
{
closed = 1;
nodes = (
(402,875,ls),
(402,891,o),
(393,900,o),
(377,900,cs),
(342,900,ls),
(326,900,o),
(317,891,o),
(317,875,cs),
(317,829,ls),
(317,813,o),
(325,804,o),
(342,804,cs),
(377,804,ls),
(393,804,o),
(402,812,o),
(402,829,cs)
);
},
{
closed = 1;
nodes = (
(170,77,l),
(170,326,l),
(448,326,ls),
(464,326,o),
(473,335,o),
(473,351,cs),
(473,378,ls),
(473,394,o),
(464,403,o),
(448,403,cs),
(170,403,l),
(170,624,l),
(469,624,ls),
(485,624,o),
(494,632,o),
(494,649,cs),
(494,675,ls),
(494,692,o),
(485,700,o),
(469,700,cs),
(110,700,ls),
(94,700,o),
(85,691,o),
(85,675,cs),
(85,25,ls),
(85,9,o),
(94,0,o),
(110,0,cs),
(491,0,ls),
(507,0,o),
(516,9,o),
(516,25,cs),
(516,52,ls),
(516,68,o),
(507,77,o),
(491,77,cs)
);
}
);
width = 575;
},
{
layerId = "FB732A47-0020-4E5B-B7FA-72B1D79E8828";
shapes = (
{
closed = 1;
nodes = (
(114,875,ls),
(114,891,o),
(105,900,o),
(89,900,cs),
(54,900,ls),
(38,900,o),
(29,891,o),
(29,875,cs),
(29,829,ls),
(29,813,o),
(37,804,o),
(54,804,cs),
(89,804,ls),
(105,804,o),
(114,812,o),
(114,829,cs)
);
},
{
closed = 1;
nodes = (
(258,875,ls),
(258,891,o),
(249,900,o),
(233,900,cs),
(198,900,ls),
(182,900,o),
(173,891,o),
(173,875,cs),
(173,829,ls),
(173,813,o),
(181,804,o),
(198,804,cs),
(233,804,ls),
(249,804,o),
(258,812,o),
(258,829,cs)
);
},
{
closed = 1;
nodes = (
(402,875,ls),
(402,891,o),
(393,900,o),
(377,900,cs),
(342,900,ls),
(326,900,o),
(317,891,o),
(317,875,cs),
(317,829,ls),
(317,813,o),
(325,804,o),
(342,804,cs),
(377,804,ls),
(393,804,o),
(402,812,o),
(402,829,cs)
);
},
{
ref = E;
}
);
width = 575;
},
{
layerId = "8A9476DE-11F4-4864-A7B4-14D9B7165FAE";
shapes = (
{
closed = 1;
nodes = (
(214,875,ls),
(214,891,o),
(205,900,o),
(189,900,cs),
(154,900,ls),
(138,900,o),
(129,891,o),
(129,875,cs),
(129,829,ls),
(129,813,o),
(137,804,o),
(154,804,cs),
(189,804,ls),
(205,804,o),
(214,812,o),
(214,829,cs)
);
},
{
closed = 1;
nodes = (
(358,875,ls),
(358,891,o),
(349,900,o),
(333,900,cs),
(298,900,ls),
(282,900,o),
(273,891,o),
(273,875,cs),
(273,829,ls),
(273,813,o),
(281,804,o),
(298,804,cs),
(333,804,ls),
(349,804,o),
(358,812,o),
(358,829,cs)
);
},
{
closed = 1;
nodes = (
(502,875,ls),
(502,891,o),
(493,900,o),
(477,900,cs),
(442,900,ls),
(426,900,o),
(417,891,o),
(417,875,cs),
(417,829,ls),
(417,813,o),
(425,804,o),
(442,804,cs),
(477,804,ls),
(493,804,o),
(502,812,o),
(502,829,cs)
);
},
{
ref = E;
}
);
width = 575;
},
{
layerId = "C492240F-DFB2-48B7-8D1C-81E7E6E3599E";
shapes = (
{
closed = 1;
nodes = (
(214,875,ls),
(214,891,o),
(205,900,o),
(189,900,cs),
(154,900,ls),
(138,900,o),
(129,891,o),
(129,875,cs),
(129,829,ls),
(129,813,o),
(137,804,o),
(154,804,cs),
(189,804,ls),
(205,804,o),
(214,812,o),
(214,829,cs)
);
},
{
closed = 1;
nodes = (
(358,875,ls),
(358,891,o),
(349,900,o),
(333,900,cs),
(298,900,ls),
(282,900,o),
(273,891,o),
(273,875,cs),
(273,829,ls),
(273,813,o),
(281,804,o),
(298,804,cs),
(333,804,ls),
(349,804,o),
(358,812,o),
(358,829,cs)
);
},
{
closed = 1;
nodes = (
(502,875,ls),
(502,891,o),
(493,900,o),
(477,900,cs),
(442,900,ls),
(426,900,o),
(417,891,o),
(417,875,cs),
(417,829,ls),
(417,813,o),
(425,804,o),
(442,804,cs),
(477,804,ls),
(493,804,o),
(502,812,o),
(502,829,cs)
);
},
{
ref = E;
}
);
width = 575;
}
);
},
{
glyphname = F.hex;
lastChange = "2016-06-09 18:35:33 +0000";
layers = (
{
hints = (
{
horizontal = 1;
place = (0, 0);
place = (0, 0);
type = Stem;
},
{
origin = (4,4);
target = (4,11);
type = Stem;
},
{
horizontal = 1;
origin = (4,12);
target = (4,21);
type = Stem;
},
{
horizontal = 1;
origin = (4,0);
target = (4,22);
type = Stem;
},
{
horizontal = 1;
place = (21.5, -21.5);
place = (21.5, -21.5);
type = Stem;
},
{
horizontal = 1;
origin = (4,12);
target = (4,21);
type = TTStem;
},
{
horizontal = 1;
origin = (4,0);
target = (4,22);
type = TTStem;
}
);
layerId = "A14B1AE3-86D5-4EA7-AE2F-7B4FA04DAB2E";
shapes = (
{
closed = 1;
nodes = (
(140,875,ls),
(140,891,o),
(131,900,o),
(115,900,cs),
(80,900,ls),
(64,900,o),
(55,891,o),
(55,875,cs),
(55,829,ls),
(55,813,o),
(63,804,o),
(80,804,cs),
(115,804,ls),
(131,804,o),
(140,812,o),
(140,829,cs)
);
},
{
closed = 1;
nodes = (
(264,875,ls),
(264,891,o),
(255,900,o),
(239,900,cs),
(204,900,ls),
(188,900,o),
(179,891,o),
(179,875,cs),
(179,829,ls),
(179,813,o),
(187,804,o),
(204,804,cs),
(239,804,ls),
(255,804,o),
(264,812,o),
(264,829,cs)
);
},
{
closed = 1;
nodes = (
(388,875,ls),
(388,891,o),
(379,900,o),
(363,900,cs),
(328,900,ls),
(312,900,o),
(303,891,o),
(303,875,cs),
(303,829,ls),
(303,813,o),
(311,804,o),
(328,804,cs),
(363,804,ls),
(379,804,o),
(388,812,o),
(388,829,cs)
);
},
{
closed = 1;
nodes = (
(512,875,ls),
(512,891,o),
(503,900,o),
(487,900,cs),
(452,900,ls),
(436,900,o),
(427,891,o),
(427,875,cs),
(427,829,ls),
(427,813,o),
(435,804,o),
(452,804,cs),
(487,804,ls),
(503,804,o),
(512,812,o),
(512,829,cs)
);
},
{
closed = 1;
nodes = (
(110,700,ls),
(94,700,o),
(85,691,o),
(85,675,cs),
(85,25,ls),
(85,9,o),
(94,0,o),
(110,0,cs),
(145,0,ls),
(162,0,o),
(170,9,o),
(170,25,cs),
(170,292,l),
(469,292,ls),
(485,292,o),
(494,300,o),
(494,316,cs),
(494,343,ls),
(494,359,o),
(485,368,o),
(469,368,cs),
(170,368,l),
(170,624,l),
(491,624,ls),
(507,624,o),
(516,632,o),
(516,649,cs),
(516,675,ls),
(516,692,o),
(507,700,o),
(491,700,cs)
);
}
);
width = 575;
},
{
layerId = "FB732A47-0020-4E5B-B7FA-72B1D79E8828";
shapes = (
{
closed = 1;
nodes = (
(114,875,ls),
(114,891,o),
(105,900,o),
(89,900,cs),
(54,900,ls),
(38,900,o),
(29,891,o),
(29,875,cs),
(29,829,ls),
(29,813,o),
(37,804,o),
(54,804,cs),
(89,804,ls),
(105,804,o),
(114,812,o),
(114,829,cs)
);
},
{
closed = 1;
nodes = (
(258,875,ls),
(258,891,o),
(249,900,o),
(233,900,cs),
(198,900,ls),
(182,900,o),
(173,891,o),
(173,875,cs),
(173,829,ls),
(173,813,o),
(181,804,o),
(198,804,cs),
(233,804,ls),
(249,804,o),
(258,812,o),
(258,829,cs)
);
},
{
closed = 1;
nodes = (
(402,875,ls),
(402,891,o),
(393,900,o),
(377,900,cs),
(342,900,ls),
(326,900,o),
(317,891,o),
(317,875,cs),
(317,829,ls),
(317,813,o),
(325,804,o),
(342,804,cs),
(377,804,ls),
(393,804,o),
(402,812,o),
(402,829,cs)
);
},
{
closed = 1;
nodes = (
(546,875,ls),
(546,891,o),
(537,900,o),
(521,900,cs),
(486,900,ls),
(470,900,o),
(461,891,o),
(461,875,cs),
(461,829,ls),
(461,813,o),
(469,804,o),
(486,804,cs),
(521,804,ls),
(537,804,o),
(546,812,o),
(546,829,cs)
);
},
{
ref = F;
}
);
width = 575;
},
{
layerId = "8A9476DE-11F4-4864-A7B4-14D9B7165FAE";
shapes = (
{
closed = 1;
nodes = (
(214,875,ls),
(214,891,o),
(205,900,o),
(189,900,cs),
(154,900,ls),
(138,900,o),
(129,891,o),
(129,875,cs),
(129,829,ls),
(129,813,o),
(137,804,o),
(154,804,cs),
(189,804,ls),
(205,804,o),
(214,812,o),
(214,829,cs)
);
},
{
closed = 1;
nodes = (
(358,875,ls),
(358,891,o),
(349,900,o),
(333,900,cs),
(298,900,ls),
(282,900,o),
(273,891,o),
(273,875,cs),
(273,829,ls),
(273,813,o),
(281,804,o),
(298,804,cs),
(333,804,ls),
(349,804,o),
(358,812,o),
(358,829,cs)
);
},
{
closed = 1;
nodes = (
(502,875,ls),
(502,891,o),
(493,900,o),
(477,900,cs),
(442,900,ls),
(426,900,o),
(417,891,o),
(417,875,cs),
(417,829,ls),
(417,813,o),
(425,804,o),
(442,804,cs),
(477,804,ls),
(493,804,o),
(502,812,o),
(502,829,cs)
);
},
{
closed = 1;
nodes = (
(646,875,ls),
(646,891,o),
(637,900,o),
(621,900,cs),
(586,900,ls),
(570,900,o),
(561,891,o),
(561,875,cs),
(561,829,ls),
(561,813,o),
(569,804,o),
(586,804,cs),
(621,804,ls),
(637,804,o),
(646,812,o),
(646,829,cs)
);
},
{
ref = F;
}
);
width = 575;
},
{
layerId = "C492240F-DFB2-48B7-8D1C-81E7E6E3599E";
shapes = (
{
closed = 1;
nodes = (
(214,875,ls),
(214,891,o),
(205,900,o),
(189,900,cs),
(154,900,ls),
(138,900,o),
(129,891,o),
(129,875,cs),
(129,829,ls),
(129,813,o),
(137,804,o),
(154,804,cs),
(189,804,ls),
(205,804,o),
(214,812,o),
(214,829,cs)
);
},
{
closed = 1;
nodes = (
(358,875,ls),
(358,891,o),
(349,900,o),
(333,900,cs),
(298,900,ls),
(282,900,o),
(273,891,o),
(273,875,cs),
(273,829,ls),
(273,813,o),
(281,804,o),
(298,804,cs),
(333,804,ls),
(349,804,o),
(358,812,o),
(358,829,cs)
);
},
{
closed = 1;
nodes = (
(502,875,ls),
(502,891,o),
(493,900,o),
(477,900,cs),
(442,900,ls),
(426,900,o),
(417,891,o),
(417,875,cs),
(417,829,ls),
(417,813,o),
(425,804,o),
(442,804,cs),
(477,804,ls),
(493,804,o),
(502,812,o),
(502,829,cs)
);
},
{
closed = 1;
nodes = (
(646,875,ls),
(646,891,o),
(637,900,o),
(621,900,cs),
(586,900,ls),
(570,900,o),
(561,891,o),
(561,875,cs),
(561,829,ls),
(561,813,o),
(569,804,o),
(586,804,cs),
(621,804,ls),
(637,804,o),
(646,812,o),
(646,829,cs)
);
},
{
ref = F;
}
);
width = 575;
}
);
},
{
glyphname = a;
lastChange = "2016-06-09 18:35:33 +0000";
layers = (
{
anchors = (
{
name = ogonek;
pos = (518,5);
},
{
name = top;
pos = (288,550);
}
);
background = {
shapes = (
{
closed = 1;
nodes = (
(430,750,ls),
(414,750,o),
(405,741,o),
(405,725,cs),
(405,506,l),
(369,509,o),
(337,510,o),
(317,510,cs),
(176,510,o),
(85,464,o),
(85,250,cs),
(85,39,o),
(174,-10,o),
(317,-10,cs),
(348,-10,o),
(402,-9,o),
(467,3,cs),
(483,5,o),
(490,14,o),
(490,30,cs),
(490,725,ls),
(490,741,o),
(481,750,o),
(465,750,cs)
);
},
{
closed = 1;
nodes = (
(405,71,l),
(368,68,o),
(337,67,o),
(317,67,cs),
(221,67,o),
(170,96,o),
(170,250,cs),
(170,402,o),
(218,434,o),
(317,434,cs),
(335,434,o),
(367,433,o),
(405,430,c)
);
}
);
};
hints = (
{
horizontal = 1;
origin = (0,3);
target = (0,16);
type = TTShift;
},
{
horizontal = 1;
origin = (1,0);
target = (0,20);
type = TTShift;
},
{
horizontal = 1;
origin = (0,27);
target = (1,4);
type = TTShift;
}
);
layerId = "A14B1AE3-86D5-4EA7-AE2F-7B4FA04DAB2E";
shapes = (
{
closed = 1;
nodes = (
(470,319,ls),
(470,457,o),
(399,512,o),
(273,512,cs),
(236,512,o),
(194,508,o),
(149,499,cs),
(133,496,o),
(128,486,o),
(130,470,cs),
(133,443,ls),
(135,428,o),
(147,422,o),
(163,425,cs),
(193,431,o),
(223,435,o),
(254,435,cs),
(336,435,o),
(385,407,o),
(385,319,cs),
(385,279,l),
(288,279,ls),
(148,279,o),
(77,210,o),
(77,134,cs),
(77,58,o),
(149,-10,o),
(285,-10,cs),
(334,-10,o),
(388,-5,o),
(446,2,cs),
(462,4,o),
(470,13,o),
(470,29,cs)
);
},
{
closed = 1;
nodes = (
(385,202,l),
(385,71,l),
(352,68,o),
(320,65,o),
(291,65,cs),
(205,65,o),
(163,96,o),
(163,133,cs),
(163,170,o),
(205,202,o),
(288,202,cs)
);
}
);
width = 575;
},
{
anchors = (
{
name = ogonek;
pos = (518,5);
},
{
name = top;
pos = (288,570);
}
);
background = {
shapes = (
{
closed = 1;
nodes = (
(458,319,ls),
(458,456,o),
(400,510,o),
(262,510,cs),
(216,510,o),
(174,506,o),
(137,499,cs),
(121,496,o),
(115,485,o),
(118,470,cs),
(130,418,ls),
(133,403,o),
(147,390,o),
(160,400,cs),
(202,432,o),
(239,434,o),
(262,434,cs),
(312,434,o),
(333,397,o),
(333,309,c),
(276,309,ls),
(139,309,o),
(65,253,o),
(65,149,cs),
(67,44,o),
(146,-10,o),
(225,-10,cs),
(284,-10,o),
(343,21,o),
(367,85,c),
(389,4,o),
(454,0,o),
(523,0,cs),
(536,0,o),
(543,9,o),
(543,25,cs),
(543,52,ls),
(543,68,o),
(538,77,o),
(530,77,cs),
(468,77,o),
(458,101,o),
(458,162,cs)
);
},
{
closed = 1;
nodes = (
(333,232,l),
(333,182,ls),
(333,106,o),
(283,65,o),
(241,65,cs),
(201,65,o),
(179,100,o),
(179,138,cs),
(179,183,o),
(209,232,o),
(276,232,cs)
);
}
);
};
hints = (
{
horizontal = 1;
place = (-10, 9500);
place = (-10, 9500);
type = Stem;
},
{
horizontal = 1;
origin = (0,10);
target = (1,21);
type = TTStem;
},
{
horizontal = 1;
origin = (1,3);
target = (1,16);
type = TTStem;
},
{
horizontal = 1;
origin = (1,27);
target = (0,4);
type = TTShift;
}
);
layerId = "FB732A47-0020-4E5B-B7FA-72B1D79E8828";
shapes = (
{
closed = 1;
nodes = (
(375,202,l),
(375,90,l),
(345,87,o),
(317,85,o),
(291,85,c),
(210,85,o),
(172,107,o),
(173,145,c),
(173,181,o),
(210,202,o),
(288,202,c)
);
},
{
closed = 1;
nodes = (
(480,329,l),
(480,468,o),
(417,530,o),
(274,530,c),
(228,530,o),
(185,526,o),
(147,519,c),
(126,515,o),
(118,498,o),
(120,479,c),
(123,452,l),
(126,431,o),
(146,422,o),
(165,425,c),
(206,432,o),
(251,434,o),
(274,434,c),
(347,434,o),
(375,404,o),
(375,329,c),
(375,299,l),
(288,299,l),
(145,299,o),
(67,245,o),
(67,144,c),
(69,44,o),
(146,-10,o),
(285,-10,c),
(334,-10,o),
(389,-5,o),
(447,2,c),
(467,5,o),
(480,19,o),
(480,39,c)
);
}
);
width = 575;
},
{
anchors = (
{
name = ogonek;
pos = (518,5);
},
{
name = top;
pos = (288,550);
}
);
associatedMasterId = "A14B1AE3-86D5-4EA7-AE2F-7B4FA04DAB2E";
layerId = "8CF3208A-1DF8-41F0-88AD-E96D3AB5B651";
name = "Regular Nov 25 14, 08:27";
shapes = (
{
closed = 1;
nodes = (
(458,319,ls),
(458,456,o),
(400,510,o),
(262,510,cs),
(216,510,o),
(174,506,o),
(137,499,cs),
(121,496,o),
(114,486,o),
(118,470,cs),
(125,443,ls),
(129,428,o),
(139,422,o),
(155,425,cs),
(197,432,o),
(239,434,o),
(262,434,cs),
(329,434,o),
(373,407,o),
(373,309,c),
(276,309,ls),
(139,309,o),
(65,253,o),
(65,149,cs),
(67,46,o),
(125,-10,o),
(229,-10,cs),
(318,-10,o),
(375,24,o),
(392,85,c),
(414,19,o),
(454,0,o),
(523,0,cs),
(536,0,o),
(543,9,o),
(543,25,cs),
(543,52,ls),
(543,68,o),
(538,77,o),
(530,77,cs),
(468,77,o),
(458,101,o),
(458,162,cs)
);
},
{
closed = 1;
nodes = (
(373,232,l),
(373,182,ls),
(373,107,o),
(322,67,o),
(229,67,cs),
(177,67,o),
(150,93,o),
(150,140,cs),
(151,200,o),
(195,232,o),
(276,232,cs)
);
}
);
width = 575;
},
{
anchors = (
{
name = bottom;
pos = (248,0);
},
{
name = ogonek;
pos = (477,10);
},
{
name = top;
pos = (338,550);
}
);
layerId = "8A9476DE-11F4-4864-A7B4-14D9B7165FAE";
shapes = (
{
closed = 1;
nodes = (
(522,471,ls),
(525,487,o),
(517,497,o),
(501,500,cs),
(440,508,o),
(386,510,o),
(357,510,cs),
(157,510,o),
(77,370,o),
(77,189,cs),
(77,36,o),
(136,-10,o),
(212,-10,cs),
(263,-10,o),
(322,15,o),
(375,63,c),
(369,25,ls),
(366,9,o),
(374,0,o),
(390,0,cs),
(427,0,ls),
(443,0,o),
(452,14,o),
(454,30,cs)
);
},
{
closed = 1;
nodes = (
(388,151,l),
(336,95,o),
(283,66,o),
(242,66,cs),
(195,66,o),
(163,94,o),
(163,204,cs),
(163,326,o),
(209,434,o),
(345,434,cs),
(363,434,o),
(395,433,o),
(433,430,c)
);
}
);
width = 575;
},
{
anchors = (
{
name = top;
pos = (338,570);
}
);
layerId = "C492240F-DFB2-48B7-8D1C-81E7E6E3599E";
shapes = (
{
closed = 1;
nodes = (
(532,479,ls),
(536,500,o),
(525,516,o),
(503,520,cs),
(502,520,ls),
(441,528,o),
(386,530,o),
(357,530,cs),
(172,530,o),
(67,410,o),
(67,199,cs),
(67,60,o),
(115,-10,o),
(212,-10,cs),
(260,-10,o),
(313,11,o),
(367,78,c),
(359,37,ls),
(355,15,o),
(367,0,o),
(390,0,cs),
(427,0,ls),
(447,0,o),
(461,15,o),
(464,39,cs)
);
},
{
closed = 1;
nodes = (
(379,166,l),
(331,115,o),
(281,86,o),
(242,86,cs),
(194,86,o),
(173,122,o),
(173,214,cs),
(173,356,o),
(233,434,o),
(345,434,cs),
(361,434,o),
(388,433,o),
(421,431,c)
);
}
);
width = 575;
}
);
unicode = 97;
},
{
glyphname = ae;
lastChange = "2016-06-09 18:35:33 +0000";
layers = (
{
hints = (
{
horizontal = 1;
origin = (0,35);
target = (0,6);
type = TTShift;
},
{
horizontal = 1;
origin = (0,13);
target = (2,0);
type = TTShift;
}
);
layerId = "A14B1AE3-86D5-4EA7-AE2F-7B4FA04DAB2E";
shapes = (
{
closed = 1;
nodes = (
(125,443,ls),
(129,428,o),
(139,422,o),
(155,425,cs),
(186,430,o),
(217,432,o),
(240,433,c),
(240,298,l),
(127,290,o),
(65,243,o),
(65,149,cs),
(67,46,o),
(125,-10,o),
(290,-10,cs),
(362,-9,o),
(374,-9,o),
(428,1,cs),
(445,4,o),
(452,15,o),
(448,31,cs),
(442,57,ls),
(438,73,o),
(428,79,o),
(412,76,c),
(379,71,o),
(349,68,o),
(325,67,c),
(325,222,l),
(459,222,ls),
(475,222,o),
(484,231,o),
(484,247,cs),
(484,270,ls),
(484,412,o),
(418,510,o),
(252,510,cs),
(216,510,o),
(174,506,o),
(137,499,cs),
(121,496,o),
(114,486,o),
(118,470,cs)
);
},
{
closed = 1;
nodes = (
(325,299,l),
(325,415,l),
(379,401,o),
(396,347,o),
(399,299,c)
);
},
{
closed = 1;
nodes = (
(240,67,l),
(188,73,o),
(150,98,o),
(150,140,cs),
(151,190,o),
(183,214,o),
(240,220,c)
);
}
);
width = 575;
},
{
layerId = "FB732A47-0020-4E5B-B7FA-72B1D79E8828";
shapes = (
{
closed = 1;
nodes = (
(115,450,l),
(120,432,o),
(137,421,o),
(157,425,c),
(183,429,o),
(209,431,o),
(230,433,c),
(230,317,l),
(120,307,o),
(55,255,o),
(55,159,c),
(57,52,o),
(121,-10,o),
(290,-10,c),
(362,-9,o),
(375,-9,o),
(430,1,c),
(451,5,o),
(463,23,o),
(458,43,c),
(452,69,l),
(447,89,o),
(430,100,o),
(410,96,c),
(382,92,o),
(357,89,o),
(335,88,c),
(335,222,l),
(459,222,l),
(479,222,o),
(494,237,o),
(494,257,c),
(494,280,l),
(494,425,o),
(423,530,o),
(252,530,c),
(216,530,o),
(173,526,o),
(135,519,c),
(115,515,o),
(103,498,o),
(108,478,c)
);
},
{
closed = 1;
nodes = (
(335,319,l),
(335,411,l),
(371,395,o),
(384,358,o),
(388,319,c)
);
},
{
closed = 1;
nodes = (
(230,89,l),
(188,96,o),
(160,118,o),
(160,150,c),
(161,190,o),
(185,211,o),
(230,219,c)
);
}
);
width = 575;
},
{
layerId = "8A9476DE-11F4-4864-A7B4-14D9B7165FAE";
shapes = (
{
closed = 1;
nodes = (
(156,443,ls),
(157,428,o),
(166,422,o),
(183,425,cs),
(215,430,o),
(246,432,o),
(269,433,c),
(248,298,l),
(133,290,o),
(64,243,o),
(49,149,cs),
(35,46,o),
(84,-10,o),
(249,-10,c),
(321,-9,o),
(333,-9,o),
(389,1,cs),
(406,4,o),
(415,15,o),
(413,31,cs),
(411,57,ls),
(410,73,o),
(401,79,o),
(384,76,cs),
(351,71,o),
(320,68,o),
(296,67,c),
(321,222,l),
(455,222,ls),
(471,222,o),
(481,231,o),
(484,247,cs),
(487,270,ls),
(510,412,o),
(459,510,o),
(293,510,cs),
(257,510,o),
(215,506,o),
(176,499,cs),
(160,496,o),
(151,486,o),
(153,470,cs)
);
},
{
closed = 1;
nodes = (
(333,299,l),
(351,415,l),
(403,401,o),
(411,347,o),
(407,299,c)
);
},
{
closed = 1;
nodes = (
(211,67,l),
(160,73,o),
(126,98,o),
(133,140,cs),
(141,190,o),
(177,214,o),
(235,220,c)
);
}
);
width = 575;
},
{
layerId = "C492240F-DFB2-48B7-8D1C-81E7E6E3599E";
shapes = (
{
closed = 1;
nodes = (
(145,450,l),
(147,432,o),
(162,421,o),
(183,425,c),
(210,429,o),
(236,431,o),
(257,433,c),
(239,317,l),
(127,307,o),
(54,255,o),
(39,159,c),
(24,52,o),
(78,-10,o),
(247,-10,c),
(319,-9,o),
(332,-9,o),
(389,1,c),
(411,5,o),
(425,23,o),
(424,43,c),
(422,69,l),
(420,89,o),
(405,100,o),
(384,96,c),
(355,92,o),
(330,89,o),
(308,88,c),
(329,222,l),
(453,222,l),
(473,222,o),
(490,237,o),
(494,257,c),
(497,280,l),
(520,425,o),
(466,530,o),
(295,530,c),
(259,530,o),
(215,526,o),
(176,519,c),
(155,515,o),
(141,498,o),
(143,478,c)
);
},
{
closed = 1;
nodes = (
(344,319,l),
(359,411,l),
(392,395,o),
(400,358,o),
(397,319,c)
);
},
{
closed = 1;
nodes = (
(203,89,l),
(162,96,o),
(138,118,o),
(143,150,c),
(150,190,o),
(177,211,o),
(224,219,c)
);
}
);
width = 575;
}
);
unicode = 230;
},
